<?xml version="1.0" encoding="utf-8"?>
<!-- Generator: Adobe Illustrator 26.1.0, SVG Export Plug-In . SVG Version: 6.00 Build 0)  -->
<svg version="1.0" id="Capa_1" xmlns="http://www.w3.org/2000/svg" xmlns:xlink="http://www.w3.org/1999/xlink" x="0px" y="0px"
	 viewBox="0 0 118.1 40.1" enable-background="new 0 0 118.1 40.1" xml:space="preserve">
<g>
	<g>
		<g>
			<path fill="#FFFFFF" d="M11.5,7.2h1.1l4.7,10.5h-1.3l-1.2-2.7H9.2L8,17.6H6.8L11.5,7.2z M14.4,13.8L12,8.5l-2.4,5.3H14.4z"/>
			<path fill="#FFFFFF" d="M19.4,7.2H23c3.3,0,5.5,2.2,5.5,5.2v0c0,2.9-2.3,5.2-5.5,5.2h-3.6V7.2z M20.6,8.3v8.2H23
				c2.6,0,4.3-1.8,4.3-4.1v0c0-2.3-1.7-4.1-4.3-4.1H20.6z"/>
			<path fill="#FFFFFF" d="M30.2,16.1l0.7-0.9c1.1,1,2.1,1.5,3.6,1.5c1.4,0,2.3-0.7,2.3-1.8v0c0-1-0.5-1.5-2.7-2
				c-2.4-0.5-3.5-1.3-3.5-3v0c0-1.6,1.4-2.8,3.4-2.8c1.5,0,2.6,0.4,3.6,1.3L37,9.3c-1-0.8-1.9-1.1-3-1.1c-1.3,0-2.2,0.7-2.2,1.7v0
				c0,1,0.5,1.5,2.8,2c2.3,0.5,3.4,1.3,3.4,2.9v0c0,1.8-1.5,2.9-3.5,2.9C32.8,17.8,31.4,17.2,30.2,16.1z"/>
			<path fill="#FFFFFF" d="M39.9,12.4L39.9,12.4c0-3,2.2-5.4,5.2-5.4c1.9,0,3,0.7,4,1.6l-0.8,0.9c-0.9-0.8-1.9-1.4-3.3-1.4
				c-2.3,0-4,1.9-4,4.3v0c0,2.4,1.7,4.3,4,4.3c1.4,0,2.4-0.5,3.4-1.5l0.8,0.8c-1.1,1.1-2.3,1.8-4.2,1.8
				C42.1,17.8,39.9,15.4,39.9,12.4z"/>
			<path fill="#FFFFFF" d="M51.3,7.2h4.5c1.3,0,2.3,0.4,3,1c0.5,0.5,0.8,1.2,0.8,2v0c0,1.7-1.2,2.7-2.8,3l3.2,4.2h-1.4l-3-4h-3v4
				h-1.2V7.2z M55.6,12.5c1.6,0,2.7-0.8,2.7-2.1v0c0-1.3-1-2-2.7-2h-3.2v4.2H55.6z"/>
			<path fill="#FFFFFF" d="M62.1,7.2h1.2v10.4h-1.2V7.2z"/>
			<path fill="#FFFFFF" d="M69.1,8.3h-3.5V7.2h8.2v1.1h-3.5v9.3h-1.2V8.3z"/>
			<path fill="#FFFFFF" d="M74.8,12.4L74.8,12.4c0-2.9,2.1-5.4,5.3-5.4c3.2,0,5.3,2.5,5.3,5.3v0c0,2.9-2.2,5.4-5.3,5.4
				C76.9,17.8,74.8,15.3,74.8,12.4z M84.1,12.4L84.1,12.4c0-2.4-1.7-4.3-4.1-4.3c-2.4,0-4.1,1.9-4.1,4.3v0c0,2.4,1.7,4.3,4.1,4.3
				C82.4,16.7,84.1,14.8,84.1,12.4z"/>
			<path fill="#FFFFFF" d="M87.1,16.1l0.7-0.9c1.1,1,2.1,1.5,3.6,1.5c1.4,0,2.3-0.7,2.3-1.8v0c0-1-0.5-1.5-2.7-2
				c-2.4-0.5-3.5-1.3-3.5-3v0c0-1.6,1.4-2.8,3.4-2.8c1.5,0,2.6,0.4,3.6,1.3l-0.7,0.9c-1-0.8-1.9-1.1-3-1.1c-1.3,0-2.2,0.7-2.2,1.7v0
				c0,1,0.5,1.5,2.8,2c2.3,0.5,3.4,1.3,3.4,2.9v0c0,1.8-1.5,2.9-3.5,2.9C89.7,17.8,88.3,17.2,87.1,16.1z"/>
			<path fill="#FFFFFF" d="M105.4,7.2h1.1l4.7,10.5h-1.3l-1.2-2.7h-5.6l-1.2,2.7h-1.2L105.4,7.2z M108.3,13.8l-2.4-5.3l-2.4,5.3
				H108.3z"/>
		</g>
	</g>
	<g>
		<g>
			<path fill="#FFFFFF" d="M5.9,27.1L5.9,27.1c0-3.5,2.7-6.3,6.4-6.3c2.2,0,3.5,0.6,4.8,1.7l-1.7,2c-0.9-0.8-1.8-1.2-3.2-1.2
				c-1.9,0-3.5,1.7-3.5,3.8v0c0,2.2,1.5,3.8,3.7,3.8c1,0,1.8-0.2,2.5-0.7v-1.7h-2.7v-2.3h5.3v5.3c-1.2,1.1-3,1.9-5.2,1.9
				C8.5,33.3,5.9,30.7,5.9,27.1z"/>
			<path fill="#FFFFFF" d="M20,21h5.5c1.5,0,2.7,0.4,3.5,1.2c0.7,0.7,1,1.6,1,2.8v0c0,2-1.1,3.2-2.6,3.8l3,4.3h-3.1l-2.6-3.9h-2.1
				v3.9H20V21z M25.3,26.9c1.3,0,2-0.7,2-1.7v0c0-1.1-0.8-1.7-2.1-1.7h-2.7v3.5H25.3z"/>
			<path fill="#FFFFFF" d="M36.6,20.9h2.5l5.2,12.2h-2.8l-1.1-2.7h-5.1l-1.1,2.7h-2.7L36.6,20.9z M39.5,28l-1.6-3.9L36.2,28H39.5z"
				/>
			<path fill="#FFFFFF" d="M47.4,23.4h-3.7V21h10v2.5h-3.7v9.7h-2.7V23.4z"/>
			<path fill="#FFFFFF" d="M55.6,27.9V21h2.7v6.9c0,2,1,3,2.6,3s2.6-1,2.6-2.9V21h2.7v6.8c0,3.7-2.1,5.5-5.3,5.5
				C57.6,33.3,55.6,31.5,55.6,27.9z"/>
			<path fill="#FFFFFF" d="M69,21h2.7v12.1H69V21z"/>
			<path fill="#FFFFFF" d="M74.7,21h4.7c3.8,0,6.4,2.6,6.4,6v0c0,3.4-2.6,6.1-6.4,6.1h-4.7V21z M77.4,23.4v7.3h2.1
				c2.2,0,3.7-1.5,3.7-3.6v0c0-2.1-1.5-3.7-3.7-3.7H77.4z"/>
			<path fill="#FFFFFF" d="M91.6,20.9H94l5.2,12.2h-2.8l-1.1-2.7h-5.1l-1.1,2.7h-2.7L91.6,20.9z M94.4,28l-1.6-3.9L91.1,28H94.4z"/>
			<path fill="#FFFFFF" d="M101.1,21h4.7c3.8,0,6.4,2.6,6.4,6v0c0,3.4-2.6,6.1-6.4,6.1h-4.7V21z M103.7,23.4v7.3h2.1
				c2.2,0,3.7-1.5,3.7-3.6v0c0-2.1-1.5-3.7-3.7-3.7H103.7z"/>
		</g>
	</g>
	<polygon fill="#FFFFFF" points="0,0 0,40.1 46.9,40.1 46.9,38.6 1.5,38.6 1.5,1.5 116.6,1.5 116.6,38.6 38.7,38.6 38.7,40.1 
		118.1,40.1 118.1,0 	"/>
</g>
<g>
</g>
<g>
</g>
<g>
</g>
<g>
</g>
<g>
</g>
<g>
</g>
</svg>
