<svg id="Capa_1" data-name="Capa 1" xmlns="http://www.w3.org/2000/svg" viewBox="0 0 211 64"><defs><style>.cls-1{fill:#fff;}</style></defs><path class="cls-1" d="M3.16,10a12.54,12.54,0,0,1,.18-3.42A2.06,2.06,0,0,1,5.5,5.07,2.1,2.1,0,0,1,7.79,7.35c0,.09,0,.16-.1.17l-1.13.2a.12.12,0,0,1-.15-.13c0-.81-.33-1.16-.87-1.16A.71.71,0,0,0,4.78,7a13.92,13.92,0,0,0-.09,3,14.08,14.08,0,0,0,.09,3,.71.71,0,0,0,.76.53c.54,0,.82-.35.87-1.16a.12.12,0,0,1,.15-.13l1.13.2c.09,0,.11.08.1.16A2.1,2.1,0,0,1,5.5,14.83a2.05,2.05,0,0,1-2.16-1.45A12.59,12.59,0,0,1,3.16,10Z"/><path class="cls-1" d="M8.74,5.34a.13.13,0,0,1,.14-.14h3.9a.13.13,0,0,1,.14.14V6.42a.13.13,0,0,1-.14.14H10.32c-.05,0-.08,0-.08.08v2.5c0,.06,0,.09.08.09h2.13a.13.13,0,0,1,.14.14v1.07a.13.13,0,0,1-.14.14H10.32c-.05,0-.08,0-.08.09v2.6a.07.07,0,0,0,.08.08h2.46a.13.13,0,0,1,.14.14v1.08a.13.13,0,0,1-.14.14H8.88a.14.14,0,0,1-.14-.14Z"/><path class="cls-1" d="M14.07,5.34a.13.13,0,0,1,.14-.14h1.48a.18.18,0,0,1,.2.14l1.76,6.57h.07V5.34a.13.13,0,0,1,.14-.14h1a.13.13,0,0,1,.14.14v9.23a.13.13,0,0,1-.14.14H17.51a.18.18,0,0,1-.2-.14L15.47,8h-.08v6.57a.14.14,0,0,1-.15.14h-1a.14.14,0,0,1-.14-.14Z"/><path class="cls-1" d="M21.79,14.71a.14.14,0,0,1-.14-.14V6.64c0-.06,0-.08-.08-.08H20.11A.14.14,0,0,1,20,6.42V5.34a.13.13,0,0,1,.14-.14h4.58a.12.12,0,0,1,.13.14V6.42a.13.13,0,0,1-.13.14H23.23c-.05,0-.08,0-.08.08v7.93a.14.14,0,0,1-.14.14Z"/><path class="cls-1" d="M29.37,14.71a.14.14,0,0,1-.15-.1l-1.16-3.79h-.72c-.05,0-.08,0-.08.09v3.66a.14.14,0,0,1-.14.14H25.9a.14.14,0,0,1-.14-.14V5.34a.13.13,0,0,1,.14-.14h1.92c1.69,0,2.71.74,2.71,2.82a2.57,2.57,0,0,1-1.13,2.44l1.34,4.11c0,.07,0,.14-.07.14ZM29,8c0-1.11-.37-1.46-1.21-1.46h-.49c-.05,0-.08,0-.08.08V9.41a.07.07,0,0,0,.08.08h.49C28.67,9.49,29,9.16,29,8Z"/><path class="cls-1" d="M31.87,13.35c-.14-.42-.18-.75-.18-3.4s0-3,.18-3.39a2.16,2.16,0,0,1,2.26-1.49,2.14,2.14,0,0,1,2.23,1.49c.14.42.19.75.19,3.39s0,3-.19,3.4a2.13,2.13,0,0,1-2.23,1.48A2.16,2.16,0,0,1,31.87,13.35Zm3.05-.4c.09-.27.1-.38.1-3s0-2.72-.1-3a.78.78,0,0,0-.79-.53.81.81,0,0,0-.82.53,13.09,13.09,0,0,0-.09,3,13.16,13.16,0,0,0,.09,3,.81.81,0,0,0,.82.53A.78.78,0,0,0,34.92,13Z"/><path class="cls-1" d="M40.57,5.34a.13.13,0,0,1,.14-.14h2.2a2.14,2.14,0,0,1,2.31,1.52A11.39,11.39,0,0,1,45.45,10a11.34,11.34,0,0,1-.23,3.23,2.14,2.14,0,0,1-2.31,1.53h-2.2a.14.14,0,0,1-.14-.14Zm1.58,8h.6a.94.94,0,0,0,1-.68A9.84,9.84,0,0,0,43.93,10a9.79,9.79,0,0,0-.17-2.71.94.94,0,0,0-1-.68h-.6s-.08,0-.08.08v6.63A.07.07,0,0,0,42.15,13.35Z"/><path class="cls-1" d="M46.77,5.34a.13.13,0,0,1,.14-.14h3.9a.13.13,0,0,1,.14.14V6.42a.14.14,0,0,1-.14.14H48.35c-.06,0-.09,0-.09.08v2.5a.08.08,0,0,0,.09.09h2.12a.13.13,0,0,1,.14.14v1.07a.13.13,0,0,1-.14.14H48.35a.08.08,0,0,0-.09.09v2.6c0,.05,0,.08.09.08h2.46a.14.14,0,0,1,.14.14v1.08a.14.14,0,0,1-.14.14h-3.9a.13.13,0,0,1-.14-.14Z"/><path class="cls-1" d="M54.81,5.34A.13.13,0,0,1,55,5.2h3.9a.13.13,0,0,1,.14.14V6.42a.13.13,0,0,1-.14.14H56.39c-.06,0-.08,0-.08.08V9.21c0,.06,0,.09.08.09h2.13a.13.13,0,0,1,.14.14v1.07a.13.13,0,0,1-.14.14H56.39c-.06,0-.08,0-.08.09v3.83a.14.14,0,0,1-.14.14H55a.14.14,0,0,1-.14-.14Z"/><path class="cls-1" d="M60.08,13.35c-.14-.42-.18-.75-.18-3.4s0-3,.18-3.39a2.44,2.44,0,0,1,4.49,0c.14.42.18.75.18,3.39s0,3-.18,3.4a2.44,2.44,0,0,1-4.49,0Zm3.05-.4a12.52,12.52,0,0,0,.1-3,12.45,12.45,0,0,0-.1-3,.79.79,0,0,0-.8-.53.8.8,0,0,0-.81.53,12.45,12.45,0,0,0-.1,3,12.52,12.52,0,0,0,.1,3,.8.8,0,0,0,.81.53A.79.79,0,0,0,63.13,13Z"/><path class="cls-1" d="M69.68,14.71a.15.15,0,0,1-.16-.1l-1.16-3.79h-.71a.08.08,0,0,0-.09.09v3.66a.13.13,0,0,1-.14.14H66.21a.13.13,0,0,1-.14-.14V5.34a.13.13,0,0,1,.14-.14h1.91c1.7,0,2.72.74,2.72,2.82a2.55,2.55,0,0,1-1.14,2.44l1.35,4.11c0,.07,0,.14-.07.14ZM69.34,8c0-1.11-.36-1.46-1.2-1.46h-.49c-.06,0-.09,0-.09.08V9.41c0,.05,0,.08.09.08h.49C69,9.49,69.34,9.16,69.34,8Z"/><path class="cls-1" d="M72.16,5.34a.13.13,0,0,1,.14-.14h1.22c.13,0,.2,0,.22.14l1.59,5.36h0l1.54-5.36c0-.1.1-.14.22-.14h1.21a.13.13,0,0,1,.14.14v9.23a.14.14,0,0,1-.14.14H77.27a.14.14,0,0,1-.14-.14v-6h-.08l-1.23,4.32a.2.2,0,0,1-.19.14H75a.18.18,0,0,1-.18-.14L73.6,8.56h-.08v6a.13.13,0,0,1-.14.14H72.3a.14.14,0,0,1-.14-.14Z"/><path class="cls-1" d="M81.45,5.34c0-.09.07-.14.15-.14h1.18a.14.14,0,0,1,.15.14l2,9.23c0,.08,0,.14-.11.14H83.65a.15.15,0,0,1-.16-.14l-.37-1.92H81.23l-.38,1.92a.15.15,0,0,1-.15.14H79.51a.1.1,0,0,1-.11-.14Zm1.43,6.05-.67-3.53h0l-.7,3.53Z"/><path class="cls-1" d="M85.48,10c0-2.64,0-3,.18-3.42a2,2,0,0,1,2.15-1.46,2.11,2.11,0,0,1,2.3,2.28c0,.09,0,.16-.1.17l-1.13.2c-.09,0-.16,0-.16-.13,0-.81-.32-1.16-.86-1.16A.7.7,0,0,0,87.1,7a13.19,13.19,0,0,0-.1,3,13.35,13.35,0,0,0,.1,3,.7.7,0,0,0,.76.53c.54,0,.82-.35.86-1.16,0-.1.07-.14.16-.13l1.13.2c.08,0,.11.08.1.16a2.1,2.1,0,0,1-2.3,2.28,2,2,0,0,1-2.15-1.45C85.53,13,85.48,12.6,85.48,10Z"/><path class="cls-1" d="M91.06,5.34a.13.13,0,0,1,.14-.14h1.22a.13.13,0,0,1,.14.14v9.23a.14.14,0,0,1-.14.14H91.2a.13.13,0,0,1-.14-.14Z"/><path class="cls-1" d="M94.05,13.35c-.14-.42-.18-.75-.18-3.4s0-3,.18-3.39a2.44,2.44,0,0,1,4.49,0c.14.42.18.75.18,3.39s0,3-.18,3.4a2.44,2.44,0,0,1-4.49,0Zm3-.4a12.52,12.52,0,0,0,.1-3,12.45,12.45,0,0,0-.1-3,.79.79,0,0,0-.8-.53.8.8,0,0,0-.81.53,12.45,12.45,0,0,0-.1,3,12.52,12.52,0,0,0,.1,3,.8.8,0,0,0,.81.53A.79.79,0,0,0,97.1,13ZM95.74,4.07c-.08,0-.14-.07-.08-.14l1.08-1.5c.07-.1.11-.14.22-.14h1.13c.09,0,.13.07.07.14l-1.37,1.5a.38.38,0,0,1-.28.14Z"/><path class="cls-1" d="M100,5.34a.13.13,0,0,1,.14-.14h1.48a.18.18,0,0,1,.2.14l1.76,6.57h.07V5.34a.13.13,0,0,1,.14-.14h1a.13.13,0,0,1,.14.14v9.23a.13.13,0,0,1-.14.14h-1.38a.18.18,0,0,1-.2-.14L101.44,8h-.09v6.57a.13.13,0,0,1-.14.14h-1a.13.13,0,0,1-.14-.14Z"/><path class="cls-1" d="M110.33,14.71a.14.14,0,0,1-.14-.14V6.64c0-.06,0-.08-.08-.08h-1.46a.14.14,0,0,1-.14-.14V5.34a.13.13,0,0,1,.14-.14h4.58a.12.12,0,0,1,.13.14V6.42a.13.13,0,0,1-.13.14h-1.46s-.08,0-.08.08v7.93a.14.14,0,0,1-.14.14Z"/><path class="cls-1" d="M114.3,5.34a.13.13,0,0,1,.14-.14h3.9a.13.13,0,0,1,.14.14V6.42a.13.13,0,0,1-.14.14h-2.46s-.08,0-.08.08v2.5c0,.06,0,.09.08.09H118a.13.13,0,0,1,.14.14v1.07a.13.13,0,0,1-.14.14h-2.13s-.08,0-.08.09v2.6a.07.07,0,0,0,.08.08h2.46a.13.13,0,0,1,.14.14v1.08a.13.13,0,0,1-.14.14h-3.9a.14.14,0,0,1-.14-.14Zm1.57-1.27c-.08,0-.14-.07-.08-.14l1.07-1.5c.07-.1.11-.14.23-.14h1.13a.08.08,0,0,1,.07.14l-1.37,1.5a.4.4,0,0,1-.28.14Z"/><path class="cls-1" d="M119.46,10c0-2.64.06-3,.19-3.42a2,2,0,0,1,2.15-1.46,2.1,2.1,0,0,1,2.29,2.28c0,.09,0,.16-.1.17l-1.13.2a.12.12,0,0,1-.15-.13c0-.81-.32-1.16-.87-1.16a.69.69,0,0,0-.75.53,13.19,13.19,0,0,0-.1,3,13.35,13.35,0,0,0,.1,3,.69.69,0,0,0,.75.53c.55,0,.83-.35.87-1.16a.12.12,0,0,1,.15-.13l1.13.2a.12.12,0,0,1,.1.16,2.09,2.09,0,0,1-2.29,2.28,2,2,0,0,1-2.15-1.45C119.52,13,119.46,12.6,119.46,10Z"/><path class="cls-1" d="M125,5.34a.13.13,0,0,1,.14-.14h1.49a.17.17,0,0,1,.19.14l1.76,6.57h.07V5.34a.13.13,0,0,1,.14-.14h1a.13.13,0,0,1,.14.14v9.23a.14.14,0,0,1-.14.14h-1.39a.17.17,0,0,1-.19-.14L126.44,8h-.08v6.57a.14.14,0,0,1-.14.14h-1a.14.14,0,0,1-.14-.14Z"/><path class="cls-1" d="M131.49,5.34a.13.13,0,0,1,.14-.14h1.22a.13.13,0,0,1,.14.14v9.23a.14.14,0,0,1-.14.14h-1.22a.14.14,0,0,1-.14-.14Z"/><path class="cls-1" d="M134.3,10a12.54,12.54,0,0,1,.18-3.42,2.06,2.06,0,0,1,2.16-1.46,2.1,2.1,0,0,1,2.29,2.28c0,.09,0,.16-.1.17l-1.13.2a.12.12,0,0,1-.15-.13c0-.81-.32-1.16-.87-1.16a.69.69,0,0,0-.75.53,12.37,12.37,0,0,0-.1,3,12.52,12.52,0,0,0,.1,3,.69.69,0,0,0,.75.53c.55,0,.83-.35.87-1.16a.12.12,0,0,1,.15-.13l1.13.2a.12.12,0,0,1,.1.16,2.1,2.1,0,0,1-2.29,2.28,2.05,2.05,0,0,1-2.16-1.45A12.59,12.59,0,0,1,134.3,10Z"/><path class="cls-1" d="M141.29,5.34c0-.09.07-.14.16-.14h1.17a.15.15,0,0,1,.16.14l2,9.23a.11.11,0,0,1-.11.14h-1.19a.14.14,0,0,1-.15-.14L143,12.65h-1.89l-.38,1.92a.14.14,0,0,1-.15.14h-1.19a.11.11,0,0,1-.11-.14Zm1.43,6.05-.67-3.53h0l-.7,3.53Z"/><path class="cls-1" d="M150.48,14.83c-1.54,0-2.33-.82-2.37-2.48,0-.09,0-.14.11-.16l1.17-.19a.12.12,0,0,1,.16.12c0,1,.33,1.4,1,1.4s.89-.32.89-1.36-.2-1.35-.94-1.65l-.57-.22A2.38,2.38,0,0,1,148.2,7.6c0-1.63.74-2.53,2.31-2.53s2.25.84,2.34,2.32c0,.09,0,.13-.13.16l-1.12.17a.12.12,0,0,1-.15-.12c0-.78-.28-1.21-.9-1.21s-.86.36-.86,1.14.16,1.15.92,1.44l.57.23c1.25.49,1.74,1.16,1.74,2.78C152.92,13.86,152.29,14.83,150.48,14.83Z"/><path class="cls-1" d="M155.35,5.34c0-.09.07-.14.15-.14h1.18a.14.14,0,0,1,.15.14l2,9.23a.11.11,0,0,1-.12.14h-1.18a.15.15,0,0,1-.16-.14L157,12.65h-1.88l-.38,1.92a.15.15,0,0,1-.16.14h-1.18a.11.11,0,0,1-.12-.14Zm1.43,6.05-.68-3.53h0l-.7,3.53Z"/><path class="cls-1" d="M159.56,5.34a.13.13,0,0,1,.14-.14h1.48a.18.18,0,0,1,.2.14l1.76,6.57h.07V5.34a.13.13,0,0,1,.14-.14h1a.13.13,0,0,1,.14.14v9.23a.13.13,0,0,1-.14.14H163a.18.18,0,0,1-.2-.14L161,8h-.09v6.57a.13.13,0,0,1-.14.14h-1a.14.14,0,0,1-.14-.14Z"/><path class="cls-1" d="M167.08,14.71a.14.14,0,0,1-.14-.14V6.64c0-.06,0-.08-.08-.08h-1.45a.13.13,0,0,1-.14-.14V5.34a.13.13,0,0,1,.14-.14H170a.13.13,0,0,1,.14.14V6.42a.14.14,0,0,1-.14.14h-1.45c-.06,0-.09,0-.09.08v7.93a.14.14,0,0,1-.14.14Z"/><path class="cls-1" d="M170.88,13.35c-.14-.42-.19-.75-.19-3.4s.05-3,.19-3.39a2.43,2.43,0,0,1,4.48,0c.14.42.19.75.19,3.39s-.05,3-.19,3.4a2.44,2.44,0,0,1-4.48,0Zm3-.4c.09-.27.1-.38.1-3s0-2.72-.1-3a.78.78,0,0,0-.79-.53.79.79,0,0,0-.81.53c-.09.27-.1.38-.1,3s0,2.73.1,3a.79.79,0,0,0,.81.53A.78.78,0,0,0,173.92,13Z"/><path class="cls-1" d="M180.45,14.71a.14.14,0,0,1-.14-.14V6.64c0-.06,0-.08-.08-.08h-1.45a.13.13,0,0,1-.14-.14V5.34a.13.13,0,0,1,.14-.14h4.57a.13.13,0,0,1,.14.14V6.42a.14.14,0,0,1-.14.14H181.9c-.06,0-.09,0-.09.08v7.93a.14.14,0,0,1-.14.14Z"/><path class="cls-1" d="M184.25,13.35c-.14-.42-.19-.75-.19-3.4s.05-3,.19-3.39a2.43,2.43,0,0,1,4.48,0c.14.42.19.75.19,3.39s0,3-.19,3.4a2.44,2.44,0,0,1-4.48,0Zm3-.4c.09-.27.1-.38.1-3s0-2.72-.1-3a.78.78,0,0,0-.79-.53.79.79,0,0,0-.81.53c-.09.27-.1.38-.1,3s0,2.73.1,3a.79.79,0,0,0,.81.53A.78.78,0,0,0,187.29,13Z"/><path class="cls-1" d="M190,5.34a.13.13,0,0,1,.14-.14h1.22c.13,0,.2,0,.22.14l1.59,5.36h.05l1.54-5.36c0-.1.1-.14.22-.14h1.21a.13.13,0,0,1,.14.14v9.23a.14.14,0,0,1-.14.14h-1.08a.14.14,0,0,1-.14-.14v-6h-.08l-1.23,4.32a.2.2,0,0,1-.19.14h-.61a.18.18,0,0,1-.18-.14l-1.23-4.32h-.09v6a.13.13,0,0,1-.14.14h-1.08a.14.14,0,0,1-.14-.14Z"/><path class="cls-1" d="M199.12,5.34c0-.09.08-.14.16-.14h1.17a.15.15,0,0,1,.16.14l2,9.23a.11.11,0,0,1-.11.14h-1.19a.14.14,0,0,1-.15-.14l-.38-1.92H198.9l-.38,1.92a.14.14,0,0,1-.15.14h-1.19c-.08,0-.12-.06-.11-.14Zm1.43,6.05-.67-3.53h0l-.7,3.53Zm-1.09-7.32c-.08,0-.14-.07-.08-.14l1.07-1.5a.25.25,0,0,1,.23-.14h1.13c.08,0,.13.07.07.14l-1.37,1.5a.4.4,0,0,1-.28.14Z"/><path class="cls-1" d="M205.4,14.83c-1.53,0-2.33-.82-2.37-2.48,0-.09,0-.14.11-.16l1.17-.19a.12.12,0,0,1,.16.12c0,1,.33,1.4,1,1.4s.89-.32.89-1.36-.19-1.35-.94-1.65l-.57-.22a2.38,2.38,0,0,1-1.7-2.69c0-1.63.74-2.53,2.3-2.53s2.26.84,2.34,2.32c0,.09,0,.13-.13.16l-1.12.17a.12.12,0,0,1-.15-.12c0-.78-.28-1.21-.9-1.21s-.86.36-.86,1.14.17,1.15.92,1.44l.57.23c1.25.49,1.74,1.16,1.74,2.78C207.84,13.86,207.21,14.83,205.4,14.83Z"/><path class="cls-1" d="M12.67,56.84c0-2.78,0-3.14.18-3.56A1.82,1.82,0,0,1,14.76,52a1.93,1.93,0,0,1,2,1.87.15.15,0,0,1-.1.18l-.41.09a.13.13,0,0,1-.17-.1c-.12-.84-.53-1.36-1.37-1.36a1.16,1.16,0,0,0-1.21.84,13.29,13.29,0,0,0-.14,3.34c0,2.73,0,3,.14,3.34a1.2,1.2,0,0,0,1.23.84A1.2,1.2,0,0,0,16,60.18a10.15,10.15,0,0,0,.14-2.78s0-.08-.09-.08H14.93a.14.14,0,0,1-.14-.14v-.39a.13.13,0,0,1,.14-.14h1.79a.13.13,0,0,1,.14.14v.37c0,2.47,0,2.83-.18,3.25a1.84,1.84,0,0,1-1.92,1.3,1.83,1.83,0,0,1-1.91-1.3C12.71,60,12.67,59.63,12.67,56.84Z"/><path class="cls-1" d="M18,52.23a.13.13,0,0,1,.14-.14h3.23a.13.13,0,0,1,.14.14v.4a.13.13,0,0,1-.14.14H18.83s-.08,0-.08.09v3.49c0,.06,0,.09.08.09h2.24a.13.13,0,0,1,.14.14V57a.13.13,0,0,1-.14.14H18.83s-.08,0-.08.09v3.62a.07.07,0,0,0,.08.08h2.56a.13.13,0,0,1,.14.14v.41a.13.13,0,0,1-.14.14H18.16a.14.14,0,0,1-.14-.14Z"/><path class="cls-1" d="M24.06,61.71c-1.31,0-2-.78-2-2.39,0-.09,0-.14.1-.16l.42-.08c.11,0,.15,0,.15.11.1,1.39.55,1.85,1.39,1.85s1.28-.41,1.28-2c0-1.21-.29-1.67-1-2l-.58-.23c-1.26-.48-1.61-1.1-1.61-2.54,0-1.6.65-2.36,1.93-2.36S26,52.69,26,54.17c0,.09,0,.13-.09.16l-.41.07c-.1,0-.15,0-.15-.12-.05-1.12-.42-1.63-1.26-1.63s-1.23.49-1.23,1.66.28,1.53,1.06,1.83l.57.23c1.19.47,1.6,1.07,1.6,2.61C26.08,60.94,25.48,61.71,24.06,61.71Z"/><path class="cls-1" d="M28.44,61.6a.14.14,0,0,1-.14-.14v-8.6c0-.06,0-.09-.08-.09H26.54a.13.13,0,0,1-.14-.14v-.4a.13.13,0,0,1,.14-.14h4.25a.13.13,0,0,1,.14.14v.4a.13.13,0,0,1-.14.14H29.11c-.05,0-.08,0-.08.09v8.6a.14.14,0,0,1-.14.14Z"/><path class="cls-1" d="M31.59,52.23a.13.13,0,0,1,.14-.14h.45a.12.12,0,0,1,.13.14v9.23a.13.13,0,0,1-.13.14h-.45a.13.13,0,0,1-.14-.14Z"/><path class="cls-1" d="M33.68,60.41c-.13-.42-.18-.78-.18-3.57s0-3.14.18-3.56a2.07,2.07,0,0,1,3.84,0c.14.42.18.78.18,3.56s0,3.15-.18,3.57a2.07,2.07,0,0,1-3.84,0Zm3.14-.23c.1-.32.15-.61.15-3.34s0-3-.15-3.34a1.17,1.17,0,0,0-1.22-.84,1.18,1.18,0,0,0-1.22.84,14,14,0,0,0-.14,3.34,13.9,13.9,0,0,0,.14,3.34A1.19,1.19,0,0,0,35.6,61,1.18,1.18,0,0,0,36.82,60.18ZM35.38,50.9c-.09,0-.11-.07-.06-.14l1-1.44a.24.24,0,0,1,.24-.14h.46c.08,0,.11.07.06.14l-1.22,1.44c-.1.11-.14.14-.24.14Z"/><path class="cls-1" d="M38.9,52.23a.13.13,0,0,1,.14-.14h.56c.13,0,.18,0,.22.14L42.45,60h0V52.23a.13.13,0,0,1,.14-.14H43a.13.13,0,0,1,.14.14v9.23a.14.14,0,0,1-.14.14H42.5c-.13,0-.19,0-.23-.14l-2.65-7.79h0v7.79a.13.13,0,0,1-.14.14H39a.14.14,0,0,1-.14-.14Z"/><path class="cls-1" d="M46.55,52.23a.13.13,0,0,1,.14-.14h.45a.13.13,0,0,1,.14.14v9.23a.14.14,0,0,1-.14.14h-.45a.14.14,0,0,1-.14-.14Z"/><path class="cls-1" d="M48.64,52.23a.13.13,0,0,1,.14-.14h.56c.12,0,.18,0,.22.14L52.19,60h0V52.23a.13.13,0,0,1,.14-.14h.39a.13.13,0,0,1,.14.14v9.23a.13.13,0,0,1-.14.14h-.53c-.13,0-.18,0-.22-.14l-2.66-7.79h0v7.79a.14.14,0,0,1-.14.14h-.39a.13.13,0,0,1-.14-.14Z"/><path class="cls-1" d="M56,61.71c-1.31,0-2-.78-2-2.39,0-.09,0-.14.1-.16l.42-.08c.11,0,.15,0,.15.11.1,1.39.54,1.85,1.38,1.85s1.29-.41,1.29-2c0-1.21-.29-1.67-1-2l-.57-.23C54.37,56.4,54,55.78,54,54.34,54,52.74,54.66,52,56,52s1.89.71,1.93,2.19c0,.09,0,.13-.1.16l-.4.07c-.1,0-.16,0-.16-.12,0-1.12-.42-1.63-1.26-1.63s-1.23.49-1.23,1.66.28,1.53,1.07,1.83l.57.23C57.56,56.84,58,57.44,58,59,58,60.94,57.36,61.71,56,61.71Z"/><path class="cls-1" d="M60.33,61.6a.13.13,0,0,1-.14-.14v-8.6a.08.08,0,0,0-.09-.09H58.43a.13.13,0,0,1-.14-.14v-.4a.13.13,0,0,1,.14-.14h4.25a.13.13,0,0,1,.14.14v.4a.13.13,0,0,1-.14.14H61c-.06,0-.08,0-.08.09v8.6a.14.14,0,0,1-.14.14Z"/><path class="cls-1" d="M63.47,52.23a.13.13,0,0,1,.14-.14h.45a.13.13,0,0,1,.14.14v9.23a.13.13,0,0,1-.14.14h-.45a.14.14,0,0,1-.14-.14Z"/><path class="cls-1" d="M66.9,61.6a.14.14,0,0,1-.14-.14v-8.6c0-.06,0-.09-.08-.09H65a.13.13,0,0,1-.14-.14v-.4a.13.13,0,0,1,.14-.14h4.25a.13.13,0,0,1,.14.14v.4a.13.13,0,0,1-.14.14H67.57s-.08,0-.08.09v8.6a.14.14,0,0,1-.14.14Z"/><path class="cls-1" d="M70,59.36V52.23a.13.13,0,0,1,.14-.14h.45a.13.13,0,0,1,.14.14v7.19c0,1.1.53,1.6,1.33,1.6s1.34-.5,1.34-1.6V52.23a.13.13,0,0,1,.14-.14H74a.13.13,0,0,1,.14.14v7.13c0,1.58-.83,2.35-2.06,2.35S70,60.94,70,59.36Z"/><path class="cls-1" d="M75.33,56.84c0-2.78.06-3.16.19-3.56A1.77,1.77,0,0,1,77.38,52a1.88,1.88,0,0,1,1.94,1.93c0,.09,0,.15-.08.18l-.42.08c-.09,0-.16,0-.16-.11-.11-.9-.51-1.4-1.27-1.4a1.12,1.12,0,0,0-1.17.84,13.29,13.29,0,0,0-.14,3.34c0,2.72,0,3,.14,3.34a1.11,1.11,0,0,0,1.17.84c.76,0,1.16-.5,1.27-1.41,0-.08.07-.12.16-.1l.42.09c.08,0,.1.08.08.17a1.88,1.88,0,0,1-1.94,1.94,1.78,1.78,0,0,1-1.86-1.3C75.39,60,75.33,59.63,75.33,56.84Z"/><path class="cls-1" d="M80.17,52.23a.13.13,0,0,1,.14-.14h.45a.13.13,0,0,1,.14.14v9.23a.14.14,0,0,1-.14.14h-.45a.14.14,0,0,1-.14-.14Z"/><path class="cls-1" d="M82.29,60.41c-.14-.42-.19-.78-.19-3.57s.05-3.14.19-3.56a2.06,2.06,0,0,1,3.83,0c.14.42.18.78.18,3.56s0,3.15-.18,3.57a2.06,2.06,0,0,1-3.83,0Zm3.13-.23c.1-.32.15-.61.15-3.34s0-3-.15-3.34a1.17,1.17,0,0,0-1.22-.84A1.18,1.18,0,0,0,83,53.5a14.52,14.52,0,0,0-.13,3.34A14.44,14.44,0,0,0,83,60.18,1.19,1.19,0,0,0,84.2,61,1.18,1.18,0,0,0,85.42,60.18Z"/><path class="cls-1" d="M87.49,52.23a.13.13,0,0,1,.14-.14h.56c.12,0,.18,0,.22.14L91,60h0V52.23a.13.13,0,0,1,.14-.14h.39a.13.13,0,0,1,.14.14v9.23a.13.13,0,0,1-.14.14h-.53c-.12,0-.18,0-.22-.14L88.2,53.67h0v7.79a.14.14,0,0,1-.14.14h-.39a.13.13,0,0,1-.14-.14Z"/><path class="cls-1" d="M94.51,52.23c0-.09.07-.14.15-.14h.46a.15.15,0,0,1,.16.14l2,9.23a.12.12,0,0,1-.13.14h-.45a.14.14,0,0,1-.15-.14L96,59.18H93.71l-.47,2.28c0,.08-.06.14-.14.14h-.45a.13.13,0,0,1-.14-.14Zm1.38,6.29-1-4.85h0l-1,4.85Z"/><path class="cls-1" d="M98,52.23a.13.13,0,0,1,.14-.14h.45a.13.13,0,0,1,.14.14v8.6a.07.07,0,0,0,.08.08h2.55a.14.14,0,0,1,.14.14v.41a.14.14,0,0,1-.14.14H98.13a.14.14,0,0,1-.14-.14Z"/><path class="cls-1" d="M105.46,52.12a.14.14,0,0,1,.15-.14h.33a.11.11,0,0,1,.12.14l-1.75,9.45a.14.14,0,0,1-.15.14h-.31a.11.11,0,0,1-.12-.14Z"/><path class="cls-1" d="M108.89,52.23a.13.13,0,0,1,.14-.14h1.7a1.92,1.92,0,0,1,2.07,1.41,11.31,11.31,0,0,1,.23,3.34,11.31,11.31,0,0,1-.23,3.34,1.93,1.93,0,0,1-2.07,1.42H109a.13.13,0,0,1-.14-.14Zm.81,8.68h1a1.34,1.34,0,0,0,1.45-1,11.14,11.14,0,0,0,.2-3.11,11,11,0,0,0-.2-3.1,1.33,1.33,0,0,0-1.45-1h-1a.08.08,0,0,0-.09.09v8C109.61,60.88,109.64,60.91,109.7,60.91Z"/><path class="cls-1" d="M114.27,60.41c-.14-.42-.18-.78-.18-3.57s0-3.14.18-3.56a2.06,2.06,0,0,1,3.83,0c.14.42.18.78.18,3.56s0,3.15-.18,3.57a2.06,2.06,0,0,1-3.83,0Zm3.13-.23c.1-.32.16-.61.16-3.34s-.06-3-.16-3.34a1.3,1.3,0,0,0-2.43,0,13.29,13.29,0,0,0-.14,3.34c0,2.73,0,3,.14,3.34a1.3,1.3,0,0,0,2.43,0Z"/><path class="cls-1" d="M119.33,56.84c0-2.78.06-3.16.18-3.56a1.77,1.77,0,0,1,1.86-1.3,1.88,1.88,0,0,1,1.95,1.93c0,.09,0,.15-.08.18l-.42.08c-.09,0-.16,0-.16-.11-.11-.9-.52-1.4-1.27-1.4a1.13,1.13,0,0,0-1.18.84,14,14,0,0,0-.14,3.34,13.83,13.83,0,0,0,.14,3.34,1.12,1.12,0,0,0,1.18.84c.75,0,1.16-.5,1.27-1.41,0-.08.07-.12.16-.1l.42.09c.08,0,.09.08.08.17a1.89,1.89,0,0,1-1.95,1.94,1.78,1.78,0,0,1-1.86-1.3C119.39,60,119.33,59.63,119.33,56.84Z"/><path class="cls-1" d="M124.16,52.23a.13.13,0,0,1,.14-.14h3.23a.13.13,0,0,1,.14.14v.4a.13.13,0,0,1-.14.14H125a.08.08,0,0,0-.09.09v3.49a.08.08,0,0,0,.09.09h2.24a.13.13,0,0,1,.14.14V57a.13.13,0,0,1-.14.14H125a.08.08,0,0,0-.09.09v3.62c0,.05,0,.08.09.08h2.56a.14.14,0,0,1,.14.14v.41a.14.14,0,0,1-.14.14H124.3a.13.13,0,0,1-.14-.14Z"/><path class="cls-1" d="M128.52,52.23a.13.13,0,0,1,.14-.14h.56c.13,0,.18,0,.22.14L132.07,60h.05V52.23a.13.13,0,0,1,.14-.14h.39a.13.13,0,0,1,.14.14v9.23a.14.14,0,0,1-.14.14h-.53c-.13,0-.19,0-.23-.14l-2.66-7.79h0v7.79a.13.13,0,0,1-.14.14h-.39a.14.14,0,0,1-.14-.14Z"/><path class="cls-1" d="M134,56.84c0-2.78.06-3.16.18-3.56A1.77,1.77,0,0,1,136,52,1.88,1.88,0,0,1,138,53.91c0,.09,0,.15-.09.18l-.42.08a.1.1,0,0,1-.15-.11c-.11-.9-.52-1.4-1.27-1.4a1.13,1.13,0,0,0-1.18.84,13.29,13.29,0,0,0-.14,3.34c0,2.72,0,3,.14,3.34a1.12,1.12,0,0,0,1.18.84c.75,0,1.16-.5,1.27-1.41,0-.08.07-.12.15-.1l.42.09c.09,0,.1.08.09.17A1.89,1.89,0,0,1,136,61.71a1.78,1.78,0,0,1-1.86-1.3C134.05,60,134,59.63,134,56.84Z"/><path class="cls-1" d="M138.81,52.23a.13.13,0,0,1,.14-.14h.45a.13.13,0,0,1,.14.14v9.23a.14.14,0,0,1-.14.14H139a.14.14,0,0,1-.14-.14Z"/><path class="cls-1" d="M142.3,52.23c0-.09.07-.14.15-.14h.46a.15.15,0,0,1,.16.14l2,9.23a.11.11,0,0,1-.12.14h-.45a.14.14,0,0,1-.15-.14l-.48-2.28H141.5L141,61.46c0,.08-.05.14-.14.14h-.44c-.09,0-.16-.06-.14-.14Zm1.38,6.29-1-4.85h0l-1,4.85Z"/><path class="cls-1" d="M147.81,52.23a.13.13,0,0,1,.14-.14h1.7a1.92,1.92,0,0,1,2.07,1.41,11.31,11.31,0,0,1,.23,3.34,11.31,11.31,0,0,1-.23,3.34,1.93,1.93,0,0,1-2.07,1.42H148a.13.13,0,0,1-.14-.14Zm.81,8.68h.95A1.33,1.33,0,0,0,151,60a11.14,11.14,0,0,0,.2-3.11,11,11,0,0,0-.2-3.1,1.33,1.33,0,0,0-1.45-1h-.95a.08.08,0,0,0-.09.09v8C148.53,60.88,148.56,60.91,148.62,60.91Z"/><path class="cls-1" d="M153.16,52.23a.13.13,0,0,1,.14-.14h3.23a.13.13,0,0,1,.14.14v.4a.13.13,0,0,1-.14.14H154c-.05,0-.08,0-.08.09v3.49c0,.06,0,.09.08.09h2.24a.13.13,0,0,1,.14.14V57a.13.13,0,0,1-.14.14H154c-.05,0-.08,0-.08.09v3.62a.07.07,0,0,0,.08.08h2.56a.13.13,0,0,1,.14.14v.41a.13.13,0,0,1-.14.14H153.3a.14.14,0,0,1-.14-.14Z"/><path class="cls-1" d="M159.69,61.6a.14.14,0,0,1-.14-.14V52.23a.13.13,0,0,1,.14-.14h1.37c1.67,0,2.44.77,2.44,2.75s-.79,2.77-2.44,2.77h-.7c-.05,0-.08,0-.08.09v3.76a.14.14,0,0,1-.14.14Zm3.08-6.76c0-1.51-.46-2.07-1.71-2.07h-.7c-.05,0-.08,0-.08.09v4c0,.06,0,.09.08.09h.7C162.31,56.93,162.77,56.37,162.77,54.84Z"/><path class="cls-1" d="M167.86,61.6a.14.14,0,0,1-.15-.1l-1.23-4.2a3.7,3.7,0,0,1-.59.05h-.66s-.08,0-.08.08v4a.14.14,0,0,1-.14.14h-.45a.14.14,0,0,1-.14-.14V52.23a.13.13,0,0,1,.14-.14h1.36c1.66,0,2.42.7,2.42,2.63,0,1.33-.42,2.07-1.18,2.4l1.29,4.34c0,.08,0,.14-.07.14Zm-.25-6.88c0-1.47-.48-1.95-1.64-1.95h-.74s-.08,0-.08.09v3.73c0,.06,0,.08.08.08H166C167.11,56.67,167.61,56.24,167.61,54.72Z"/><path class="cls-1" d="M169.27,52.23a.13.13,0,0,1,.14-.14h3.23a.13.13,0,0,1,.14.14v.4a.13.13,0,0,1-.14.14h-2.56c-.05,0-.08,0-.08.09v3.49c0,.06,0,.09.08.09h2.24a.13.13,0,0,1,.14.14V57a.13.13,0,0,1-.14.14h-2.24c-.05,0-.08,0-.08.09v3.62a.07.07,0,0,0,.08.08h2.56a.13.13,0,0,1,.14.14v.41a.13.13,0,0,1-.14.14h-3.23a.14.14,0,0,1-.14-.14Z"/><path class="cls-1" d="M173.48,56.84c0-2.78,0-3.14.18-3.56a1.83,1.83,0,0,1,1.92-1.3,1.91,1.91,0,0,1,2,1.87c0,.1,0,.15-.1.18l-.4.09c-.1,0-.16,0-.17-.1-.13-.84-.53-1.36-1.37-1.36a1.18,1.18,0,0,0-1.22.84,13.29,13.29,0,0,0-.14,3.34c0,2.73,0,3,.14,3.34a1.32,1.32,0,0,0,2.46,0A10.15,10.15,0,0,0,177,57.4a.07.07,0,0,0-.08-.08h-1.13a.13.13,0,0,1-.14-.14v-.39a.13.13,0,0,1,.14-.14h1.79a.13.13,0,0,1,.14.14v.37c0,2.47-.05,2.83-.19,3.25a1.82,1.82,0,0,1-1.91,1.3,1.84,1.84,0,0,1-1.92-1.3C173.52,60,173.48,59.63,173.48,56.84Z"/><path class="cls-1" d="M182.28,61.6a.15.15,0,0,1-.16-.1l-1.23-4.2a3.48,3.48,0,0,1-.58.05h-.66c-.06,0-.09,0-.09.08v4a.13.13,0,0,1-.13.14H179a.13.13,0,0,1-.14-.14V52.23a.13.13,0,0,1,.14-.14h1.35c1.67,0,2.42.7,2.42,2.63,0,1.33-.42,2.07-1.17,2.4l1.29,4.34c0,.08,0,.14-.07.14ZM182,54.72c0-1.47-.48-1.95-1.64-1.95h-.74a.08.08,0,0,0-.09.09v3.73c0,.06,0,.08.09.08h.74C181.52,56.67,182,56.24,182,54.72Z"/><path class="cls-1" d="M185.09,52.23c0-.09.07-.14.15-.14h.46a.15.15,0,0,1,.16.14l2,9.23a.12.12,0,0,1-.13.14h-.45a.14.14,0,0,1-.15-.14l-.48-2.28h-2.32l-.47,2.28c0,.08-.06.14-.14.14h-.45c-.08,0-.16-.06-.14-.14Zm1.38,6.29-1-4.85h0l-1,4.85Z"/><path class="cls-1" d="M188.57,52.23a.13.13,0,0,1,.14-.14h1.71a1.93,1.93,0,0,1,2.07,1.41,11.5,11.5,0,0,1,.22,3.34,11.5,11.5,0,0,1-.22,3.34,1.94,1.94,0,0,1-2.07,1.42h-1.71a.14.14,0,0,1-.14-.14Zm.81,8.68h1a1.35,1.35,0,0,0,1.46-1,11.38,11.38,0,0,0,.19-3.11,11.28,11.28,0,0,0-.19-3.1,1.34,1.34,0,0,0-1.46-1h-1s-.08,0-.08.09v8A.07.07,0,0,0,189.38,60.91Z"/><path class="cls-1" d="M194,60.41c-.14-.42-.19-.78-.19-3.57s0-3.14.19-3.56a2.06,2.06,0,0,1,3.83,0c.14.42.18.78.18,3.56s0,3.15-.18,3.57a2.06,2.06,0,0,1-3.83,0Zm3.13-.23c.1-.32.15-.61.15-3.34s-.05-3-.15-3.34a1.17,1.17,0,0,0-1.22-.84,1.18,1.18,0,0,0-1.22.84,14,14,0,0,0-.14,3.34,13.9,13.9,0,0,0,.14,3.34,1.19,1.19,0,0,0,1.22.84A1.18,1.18,0,0,0,197.09,60.18Z"/><path class="cls-1" d="M11.08,45c0-.1,0-.16.14-.17l.39,0q.15,0,.15.12a2.8,2.8,0,0,0,.09,1,1,1,0,0,0,1,.7.93.93,0,0,0,1-.67A5.63,5.63,0,0,0,14,44.1a5.59,5.59,0,0,0-.12-1.77,1,1,0,0,0-1-.69,1.09,1.09,0,0,0-1,.53.2.2,0,0,1-.21.13h-.35a.14.14,0,0,1-.14-.14V37.73a.13.13,0,0,1,.14-.14h3.2a.13.13,0,0,1,.14.14v.37a.13.13,0,0,1-.14.14H11.92a.08.08,0,0,0-.09.09v3.16h0A1.42,1.42,0,0,1,13,41a1.49,1.49,0,0,1,1.57,1.07,7.47,7.47,0,0,1,.12,2,6.25,6.25,0,0,1-.14,2,1.56,1.56,0,0,1-1.65,1.13,1.62,1.62,0,0,1-1.68-1.15A3.39,3.39,0,0,1,11.08,45Z"/><path class="cls-1" d="M19.66,37.73c0-.09.07-.14.16-.14h.46a.14.14,0,0,1,.15.14l2,9.23a.11.11,0,0,1-.12.14h-.45a.15.15,0,0,1-.16-.14l-.47-2.28H18.87L18.39,47c0,.08-.05.14-.14.14H17.8a.13.13,0,0,1-.14-.14ZM21.05,44l-1-4.85h0L19,44Z"/><path class="cls-1" d="M23.34,37.73a.13.13,0,0,1,.14-.14H24a.2.2,0,0,1,.23.14l2.62,7.79h.05V37.73a.13.13,0,0,1,.14-.14h.39a.13.13,0,0,1,.14.14V47a.14.14,0,0,1-.14.14h-.53c-.13,0-.19,0-.23-.14l-2.65-7.79h0V47a.13.13,0,0,1-.14.14h-.39a.14.14,0,0,1-.14-.14Zm2-1.89a.76.76,0,0,0-.46-.22c-.23,0-.37.14-.55.4-.07.07-.17.06-.17,0v-.42a.28.28,0,0,1,.12-.22.74.74,0,0,1,.61-.34,1,1,0,0,1,.64.28c.17.14.28.24.45.24s.38-.14.56-.41c.06-.07.16,0,.16,0v.42a.3.3,0,0,1-.1.23.84.84,0,0,1-.63.33A.93.93,0,0,1,25.33,35.84Z"/><path class="cls-1" d="M29.19,45.91c-.14-.42-.18-.78-.18-3.57s0-3.14.18-3.56a1.82,1.82,0,0,1,1.91-1.3A1.83,1.83,0,0,1,33,38.78c.14.42.18.78.18,3.56s0,3.15-.18,3.57a1.84,1.84,0,0,1-1.92,1.3A1.83,1.83,0,0,1,29.19,45.91Zm3.13-.23c.1-.32.15-.61.15-3.34s0-3-.15-3.34a1.3,1.3,0,0,0-2.43,0c-.1.32-.14.61-.14,3.34s0,3,.14,3.34a1.3,1.3,0,0,0,2.43,0Z"/><path class="cls-1" d="M36.29,47.21c-1.31,0-2-.78-2-2.39,0-.09,0-.14.1-.16l.42-.08c.11,0,.15,0,.15.11.1,1.39.55,1.85,1.39,1.85s1.28-.41,1.28-2c0-1.21-.29-1.67-1-2L36,42.38c-1.26-.48-1.61-1.1-1.61-2.54,0-1.6.65-2.36,1.93-2.36s1.89.71,1.93,2.19c0,.09,0,.13-.09.15l-.41.08c-.1,0-.15,0-.15-.12,0-1.12-.42-1.63-1.26-1.63s-1.23.49-1.23,1.66.28,1.53,1.06,1.83l.57.23c1.19.47,1.6,1.07,1.6,2.61C38.31,46.44,37.71,47.21,36.29,47.21Z"/><path class="cls-1" d="M42.92,37.62a.15.15,0,0,1,.16-.14h.32a.11.11,0,0,1,.12.14l-1.74,9.45a.15.15,0,0,1-.16.14h-.31a.11.11,0,0,1-.12-.14Z"/><path class="cls-1" d="M46.74,37.73a.13.13,0,0,1,.14-.14h1.71A1.93,1.93,0,0,1,50.66,39a11.92,11.92,0,0,1,.22,3.34,11.92,11.92,0,0,1-.22,3.34,1.94,1.94,0,0,1-2.07,1.42H46.88a.14.14,0,0,1-.14-.14Zm.81,8.68h1a1.35,1.35,0,0,0,1.46-1,11.38,11.38,0,0,0,.19-3.11,11.22,11.22,0,0,0-.19-3.1,1.34,1.34,0,0,0-1.46-1h-1s-.08,0-.08.09v8A.07.07,0,0,0,47.55,46.41Z"/><path class="cls-1" d="M52.29,37.73a.13.13,0,0,1,.14-.14h3.23a.13.13,0,0,1,.14.14v.4a.13.13,0,0,1-.14.14H53.1c-.05,0-.08,0-.08.09v3.49c0,.06,0,.09.08.09h2.24a.13.13,0,0,1,.14.14v.4a.13.13,0,0,1-.14.14H53.1c-.05,0-.08,0-.08.09v3.62a.07.07,0,0,0,.08.08h2.56a.13.13,0,0,1,.14.14V47a.13.13,0,0,1-.14.14H52.43a.14.14,0,0,1-.14-.14Z"/><path class="cls-1" d="M58.54,47.21c-1.31,0-2-.78-2-2.39,0-.09,0-.14.1-.16l.42-.08c.11,0,.15,0,.15.11.1,1.39.55,1.85,1.39,1.85s1.28-.41,1.28-2c0-1.21-.29-1.67-1.05-2l-.57-.23c-1.26-.48-1.61-1.1-1.61-2.54,0-1.6.65-2.36,1.93-2.36s1.89.71,1.93,2.19c0,.09,0,.13-.1.15l-.4.08c-.1,0-.15,0-.15-.12,0-1.12-.42-1.63-1.26-1.63s-1.23.49-1.23,1.66.28,1.53,1.06,1.83l.57.23c1.19.47,1.6,1.07,1.6,2.61C60.56,46.44,60,47.21,58.54,47.21Z"/><path class="cls-1" d="M61.77,37.73a.13.13,0,0,1,.14-.14h1.71A1.92,1.92,0,0,1,65.69,39a11.5,11.5,0,0,1,.22,3.34,11.5,11.5,0,0,1-.22,3.34,1.93,1.93,0,0,1-2.07,1.42H61.91a.14.14,0,0,1-.14-.14Zm.81,8.68h1a1.34,1.34,0,0,0,1.46-1,11.14,11.14,0,0,0,.2-3.11,11,11,0,0,0-.2-3.1,1.34,1.34,0,0,0-1.46-1h-1s-.08,0-.08.09v8A.07.07,0,0,0,62.58,46.41Z"/><path class="cls-1" d="M67.33,37.73a.12.12,0,0,1,.13-.14H70.7a.13.13,0,0,1,.14.14v.4a.13.13,0,0,1-.14.14H68.14a.08.08,0,0,0-.09.09v3.49a.08.08,0,0,0,.09.09h2.23a.13.13,0,0,1,.14.14v.4a.13.13,0,0,1-.14.14H68.14a.08.08,0,0,0-.09.09v3.62c0,.05,0,.08.09.08H70.7a.14.14,0,0,1,.14.14V47a.14.14,0,0,1-.14.14H67.46a.13.13,0,0,1-.13-.14Z"/><path class="cls-1" d="M74.11,37.73a.13.13,0,0,1,.14-.14H76A1.92,1.92,0,0,1,78,39a11.31,11.31,0,0,1,.23,3.34A11.31,11.31,0,0,1,78,45.68,1.93,1.93,0,0,1,76,47.1h-1.7a.13.13,0,0,1-.14-.14Zm.81,8.68h1a1.33,1.33,0,0,0,1.45-1,11.14,11.14,0,0,0,.2-3.11,11,11,0,0,0-.2-3.1,1.33,1.33,0,0,0-1.45-1h-1a.08.08,0,0,0-.09.09v8C74.83,46.38,74.86,46.41,74.92,46.41Z"/><path class="cls-1" d="M79.66,37.73a.13.13,0,0,1,.14-.14h.45a.13.13,0,0,1,.14.14V47a.14.14,0,0,1-.14.14H79.8a.14.14,0,0,1-.14-.14Z"/><path class="cls-1" d="M81.78,42.34c0-2.78.06-3.16.19-3.56a1.77,1.77,0,0,1,1.86-1.3,1.88,1.88,0,0,1,1.94,1.93c0,.09,0,.15-.08.18l-.42.08c-.09,0-.16,0-.16-.11-.11-.9-.51-1.4-1.27-1.4a1.12,1.12,0,0,0-1.17.84,13.29,13.29,0,0,0-.14,3.34c0,2.72,0,3,.14,3.34a1.11,1.11,0,0,0,1.17.84c.76,0,1.16-.5,1.27-1.41,0-.08.07-.12.16-.1l.42.09c.08,0,.1.08.08.17a1.88,1.88,0,0,1-1.94,1.94A1.78,1.78,0,0,1,82,45.91C81.84,45.5,81.78,45.13,81.78,42.34Z"/><path class="cls-1" d="M86.61,46.05a.13.13,0,0,1,.14-.14h.63a.13.13,0,0,1,.14.14V47a.14.14,0,0,1-.14.14h-.63a.14.14,0,0,1-.14-.14Z"/><path class="cls-1" d="M91.09,37.73a.12.12,0,0,1,.13-.14h1.71A1.92,1.92,0,0,1,95,39a11.31,11.31,0,0,1,.23,3.34A11.31,11.31,0,0,1,95,45.68a1.93,1.93,0,0,1-2.07,1.42H91.22a.13.13,0,0,1-.13-.14Zm.81,8.68h.95a1.34,1.34,0,0,0,1.45-1,11.14,11.14,0,0,0,.2-3.11,11,11,0,0,0-.2-3.1,1.33,1.33,0,0,0-1.45-1H91.9a.08.08,0,0,0-.09.09v8C91.81,46.38,91.84,46.41,91.9,46.41Z"/><path class="cls-1" d="M96.64,37.73a.13.13,0,0,1,.14-.14H100a.13.13,0,0,1,.14.14v.4a.13.13,0,0,1-.14.14H97.45a.08.08,0,0,0-.09.09v3.49a.08.08,0,0,0,.09.09h2.24a.13.13,0,0,1,.14.14v.4a.13.13,0,0,1-.14.14H97.45a.08.08,0,0,0-.09.09v3.62c0,.05,0,.08.09.08H100a.14.14,0,0,1,.14.14V47a.14.14,0,0,1-.14.14H96.78a.13.13,0,0,1-.14-.14Z"/><path class="cls-1" d="M103.25,46.59a.4.4,0,0,1,.06-.22l2.39-4.76a3.73,3.73,0,0,0,.46-1.85,2.44,2.44,0,0,0-.1-.93,1,1,0,0,0-1-.7,1,1,0,0,0-1,.7,3.49,3.49,0,0,0-.08,1.09c0,.1-.06.16-.16.14l-.39,0c-.1,0-.14-.07-.14-.17a3.53,3.53,0,0,1,.13-1.23,1.61,1.61,0,0,1,1.68-1.14,1.59,1.59,0,0,1,1.67,1.14,3.33,3.33,0,0,1,.12,1.14A4.36,4.36,0,0,1,106.3,42L104,46.43h2.69a.14.14,0,0,1,.14.14V47a.14.14,0,0,1-.14.14h-3.32a.14.14,0,0,1-.14-.14Z"/><path class="cls-1" d="M108.06,42.34c0-3,.06-3.41.16-3.72a1.82,1.82,0,0,1,3.37,0c.1.31.15.7.15,3.72s0,3.41-.15,3.71a1.8,1.8,0,0,1-3.37,0C108.12,45.75,108.06,45.36,108.06,42.34Zm1.85,4.21a1,1,0,0,0,1-.71,16.14,16.14,0,0,0,.12-3.5,15.8,15.8,0,0,0-.12-3.49,1.08,1.08,0,0,0-2,0,15.14,15.14,0,0,0-.13,3.49,15.46,15.46,0,0,0,.13,3.5A1,1,0,0,0,109.91,46.55Z"/><path class="cls-1" d="M114.72,38.48h0l-1.2,1c-.08,0-.15,0-.15-.1v-.48a.24.24,0,0,1,.11-.21l1.23-1a.3.3,0,0,1,.21-.08h.38a.13.13,0,0,1,.14.14V47a.14.14,0,0,1-.14.14h-.41a.14.14,0,0,1-.14-.14Z"/><path class="cls-1" d="M120.25,42.9l0,0a1.12,1.12,0,0,1-.73.2,1.53,1.53,0,0,1-1.59-1.13,5.36,5.36,0,0,1-.12-1.67,4.93,4.93,0,0,1,.12-1.63,1.8,1.8,0,0,1,3.37,0,5.46,5.46,0,0,1,.11,1.63,5.47,5.47,0,0,1-.45,2.72l-1.55,4c0,.1-.07.13-.17.13h-.46c-.09,0-.13,0-.09-.14Zm.36-1.19a5,5,0,0,0,.08-1.44,5,5,0,0,0-.08-1.44,1,1,0,0,0-1-.7,1,1,0,0,0-1,.7,4.21,4.21,0,0,0-.1,1.44,4.16,4.16,0,0,0,.1,1.44,1,1,0,0,0,1,.7A1,1,0,0,0,120.61,41.71Z"/><path class="cls-1" d="M125,37.73a.13.13,0,0,1,.14-.14h.45a.13.13,0,0,1,.14.14v4.05c0,.06,0,.09.08.09h2.5a.08.08,0,0,0,.09-.09V37.73a.13.13,0,0,1,.14-.14H129a.13.13,0,0,1,.14.14V47a.14.14,0,0,1-.14.14h-.45a.13.13,0,0,1-.14-.14V42.64a.08.08,0,0,0-.09-.09h-2.5s-.08,0-.08.09V47a.14.14,0,0,1-.14.14h-.45A.14.14,0,0,1,125,47Z"/><path class="cls-1" d="M132.08,37.73c0-.09.07-.14.15-.14h.46a.15.15,0,0,1,.16.14l2,9.23a.11.11,0,0,1-.12.14h-.45a.14.14,0,0,1-.15-.14l-.48-2.28h-2.32L130.8,47c0,.08-.05.14-.14.14h-.44c-.09,0-.16-.06-.14-.14ZM133.46,44l-1-4.85h0l-1,4.85Z"/><path class="cls-1" d="M137.45,47.21c-1.32,0-2-.78-2-2.39,0-.09,0-.14.09-.16l.42-.08c.12,0,.16,0,.16.11.09,1.39.54,1.85,1.38,1.85s1.29-.41,1.29-2c0-1.21-.29-1.67-1.05-2l-.57-.23c-1.26-.48-1.61-1.1-1.61-2.54,0-1.6.64-2.36,1.93-2.36s1.89.71,1.93,2.19c0,.09,0,.13-.1.15l-.41.08a.11.11,0,0,1-.15-.12c0-1.12-.42-1.63-1.26-1.63s-1.23.49-1.23,1.66.28,1.53,1.06,1.83l.58.23c1.19.47,1.59,1.07,1.59,2.61C139.46,46.44,138.86,47.21,137.45,47.21Z"/><path class="cls-1" d="M142,47.1a.14.14,0,0,1-.14-.14v-8.6c0-.06,0-.09-.08-.09h-1.68a.13.13,0,0,1-.14-.14v-.4a.13.13,0,0,1,.14-.14h4.25a.13.13,0,0,1,.14.14v.4a.13.13,0,0,1-.14.14h-1.68c-.05,0-.08,0-.08.09V47a.14.14,0,0,1-.14.14Z"/><path class="cls-1" d="M146.76,37.73c0-.09.07-.14.16-.14h.46a.14.14,0,0,1,.15.14l2,9.23a.12.12,0,0,1-.13.14h-.44a.15.15,0,0,1-.16-.14l-.47-2.28H146L145.49,47a.14.14,0,0,1-.14.14h-.45a.13.13,0,0,1-.14-.14ZM148.15,44l-1-4.85h0l-1,4.85Z"/><path class="cls-1" d="M152.66,37.73a.13.13,0,0,1,.14-.14h1.71A1.92,1.92,0,0,1,156.58,39a11.5,11.5,0,0,1,.22,3.34,11.5,11.5,0,0,1-.22,3.34,1.93,1.93,0,0,1-2.07,1.42H152.8a.14.14,0,0,1-.14-.14Zm.82,8.68h1a1.34,1.34,0,0,0,1.45-1,11.14,11.14,0,0,0,.2-3.11,11,11,0,0,0-.2-3.1,1.33,1.33,0,0,0-1.45-1h-1a.08.08,0,0,0-.09.09v8C153.39,46.38,153.42,46.41,153.48,46.41Z"/><path class="cls-1" d="M158.22,37.73a.13.13,0,0,1,.14-.14h.44a.13.13,0,0,1,.14.14V47a.13.13,0,0,1-.14.14h-.44a.13.13,0,0,1-.14-.14Z"/><path class="cls-1" d="M160.34,42.34c0-2.78.06-3.16.18-3.56a1.77,1.77,0,0,1,1.86-1.3,1.88,1.88,0,0,1,2,1.93c0,.09,0,.15-.09.18l-.42.08a.1.1,0,0,1-.15-.11c-.11-.9-.52-1.4-1.27-1.4a1.13,1.13,0,0,0-1.18.84,13.29,13.29,0,0,0-.14,3.34c0,2.72,0,3,.14,3.34a1.12,1.12,0,0,0,1.18.84c.75,0,1.16-.5,1.27-1.41,0-.08.07-.12.15-.1l.42.09c.09,0,.1.08.09.17a1.89,1.89,0,0,1-2,1.94,1.78,1.78,0,0,1-1.86-1.3C160.4,45.5,160.34,45.13,160.34,42.34Z"/><path class="cls-1" d="M165.17,46.05a.13.13,0,0,1,.14-.14h.63a.13.13,0,0,1,.14.14V47a.14.14,0,0,1-.14.14h-.63a.13.13,0,0,1-.14-.14Z"/><path class="cls-1" d="M169.64,37.73a.13.13,0,0,1,.14-.14h1.71A1.93,1.93,0,0,1,173.56,39a11.5,11.5,0,0,1,.22,3.34,11.5,11.5,0,0,1-.22,3.34,1.94,1.94,0,0,1-2.07,1.42h-1.71a.14.14,0,0,1-.14-.14Zm.81,8.68h1a1.35,1.35,0,0,0,1.46-1,11.38,11.38,0,0,0,.19-3.11,11.22,11.22,0,0,0-.19-3.1,1.34,1.34,0,0,0-1.46-1h-1s-.08,0-.08.09v8A.07.07,0,0,0,170.45,46.41Z"/><path class="cls-1" d="M175.19,37.73a.13.13,0,0,1,.14-.14h3.23a.13.13,0,0,1,.14.14v.4a.13.13,0,0,1-.14.14H176a.08.08,0,0,0-.09.09v3.49a.08.08,0,0,0,.09.09h2.23a.13.13,0,0,1,.14.14v.4a.13.13,0,0,1-.14.14H176a.08.08,0,0,0-.09.09v3.62c0,.05,0,.08.09.08h2.55a.13.13,0,0,1,.14.14V47a.13.13,0,0,1-.14.14h-3.23a.14.14,0,0,1-.14-.14Z"/><path class="cls-1" d="M181.81,46.59a.4.4,0,0,1,.05-.22l2.4-4.76a3.73,3.73,0,0,0,.46-1.85,2.44,2.44,0,0,0-.1-.93,1,1,0,0,0-1-.7,1,1,0,0,0-1,.7,3.34,3.34,0,0,0-.09,1.09c0,.1-.05.16-.15.14L182,40c-.1,0-.14-.07-.14-.17a3.9,3.9,0,0,1,.12-1.23,1.81,1.81,0,0,1,3.36,0,3.69,3.69,0,0,1,.11,1.14,4.36,4.36,0,0,1-.54,2.19l-2.28,4.48h2.68a.13.13,0,0,1,.14.14V47a.13.13,0,0,1-.14.14H182a.13.13,0,0,1-.14-.14Z"/><path class="cls-1" d="M186.62,42.34a16.39,16.39,0,0,1,.15-3.72,1.63,1.63,0,0,1,1.7-1.14,1.61,1.61,0,0,1,1.67,1.14c.1.31.16.7.16,3.72s-.06,3.41-.16,3.71a1.6,1.6,0,0,1-1.67,1.16,1.63,1.63,0,0,1-1.7-1.16A16.16,16.16,0,0,1,186.62,42.34Zm1.85,4.21a1,1,0,0,0,1-.71c.09-.24.13-.59.13-3.5s0-3.26-.13-3.49a1,1,0,0,0-1-.72,1,1,0,0,0-1,.72,15.8,15.8,0,0,0-.12,3.49,16.14,16.14,0,0,0,.12,3.5A1,1,0,0,0,188.47,46.55Z"/><path class="cls-1" d="M191.49,46.59a.4.4,0,0,1,0-.22l2.39-4.76a3.63,3.63,0,0,0,.47-1.85,2.44,2.44,0,0,0-.1-.93,1,1,0,0,0-1-.7,1,1,0,0,0-1,.7,3.34,3.34,0,0,0-.09,1.09c0,.1,0,.16-.15.14l-.39,0c-.1,0-.14-.07-.14-.17a3.9,3.9,0,0,1,.12-1.23,1.81,1.81,0,0,1,3.36,0,3.69,3.69,0,0,1,.11,1.14,4.36,4.36,0,0,1-.54,2.19l-2.28,4.48h2.68a.14.14,0,0,1,.14.14V47a.14.14,0,0,1-.14.14h-3.31a.13.13,0,0,1-.14-.14Z"/><path class="cls-1" d="M195.92,45.2v-.37a.51.51,0,0,1,0-.17l2-7c0-.08.07-.11.16-.11h.42c.09,0,.14,0,.11.15l-1.95,6.91v0h1.91a.08.08,0,0,0,.09-.09V41.78a.13.13,0,0,1,.14-.14h.42a.14.14,0,0,1,.14.14v2.81c0,.06,0,.09.08.09h.8a.13.13,0,0,1,.14.14v.38a.13.13,0,0,1-.14.13h-.8c-.06,0-.08,0-.08.09V47a.14.14,0,0,1-.14.14h-.42a.13.13,0,0,1-.14-.14V45.42a.08.08,0,0,0-.09-.09h-2.5A.13.13,0,0,1,195.92,45.2Z"/><path class="cls-1" d="M76.39,19.66c0-.09.08-.15.17-.15h1.85a.16.16,0,0,1,.17.15L80.87,30c0,.09,0,.16-.13.16H79c-.1,0-.15-.07-.17-.16l-.34-1.93h-2L76.11,30c0,.09-.06.16-.17.16H74.2c-.1,0-.14-.07-.13-.16Zm1.8,6.78-.67-3.69h0l-.7,3.69Z"/><path class="cls-1" d="M81.35,24.83c0-2.75.07-3.24.21-3.69a2.49,2.49,0,0,1,2.64-1.77A2.55,2.55,0,0,1,87,22.06a.17.17,0,0,1-.14.19l-1.65.28a.13.13,0,0,1-.17-.14c0-.85-.3-1.18-.81-1.18a.66.66,0,0,0-.71.49,16.19,16.19,0,0,0-.09,3.13A16.19,16.19,0,0,0,83.53,28a.66.66,0,0,0,.71.49c.51,0,.78-.33.81-1.18a.14.14,0,0,1,.17-.14l1.65.29c.11,0,.14.09.14.18a2.55,2.55,0,0,1-2.81,2.7,2.5,2.5,0,0,1-2.64-1.77C81.42,28.07,81.35,27.59,81.35,24.83Z"/><path class="cls-1" d="M91.88,30.16a.16.16,0,0,1-.17-.13L90.5,26h-.6a.08.08,0,0,0-.09.09V30a.15.15,0,0,1-.16.16H87.92a.15.15,0,0,1-.16-.16V19.66a.14.14,0,0,1,.16-.15h2.53c1.9,0,3.12.89,3.12,3.25a3.08,3.08,0,0,1-1.19,2.73L93.83,30c0,.08,0,.16-.07.16Zm-.38-7.4c0-1.11-.34-1.45-1.14-1.45H89.9a.08.08,0,0,0-.09.09v2.73a.08.08,0,0,0,.09.09h.46C91.16,24.22,91.5,23.89,91.5,22.76Z"/><path class="cls-1" d="M94.65,19.66a.14.14,0,0,1,.16-.15h4.65a.14.14,0,0,1,.15.15V21.2a.15.15,0,0,1-.15.16H96.79a.08.08,0,0,0-.09.09v2.32a.08.08,0,0,0,.09.09H99.1a.14.14,0,0,1,.15.16v1.53a.14.14,0,0,1-.15.16H96.79a.08.08,0,0,0-.09.09v2.41c0,.07,0,.1.09.1h2.67a.14.14,0,0,1,.15.15V30a.15.15,0,0,1-.15.16H94.81a.15.15,0,0,1-.16-.16Z"/><path class="cls-1" d="M100.54,19.66a.14.14,0,0,1,.15-.15h2.7a2.48,2.48,0,0,1,2.72,1.77,11.76,11.76,0,0,1,.28,3.55,11.89,11.89,0,0,1-.28,3.56,2.49,2.49,0,0,1-2.72,1.77h-2.7a.15.15,0,0,1-.15-.16Zm2.14,8.65h.5a.88.88,0,0,0,1-.66,9.58,9.58,0,0,0,.17-2.82,9.63,9.63,0,0,0-.17-2.82.87.87,0,0,0-1-.65h-.5a.08.08,0,0,0-.09.09v6.76C102.59,28.28,102.62,28.31,102.68,28.31Z"/><path class="cls-1" d="M107.46,19.66a.14.14,0,0,1,.15-.15h1.74a.14.14,0,0,1,.16.15V30a.15.15,0,0,1-.16.16h-1.74a.15.15,0,0,1-.15-.16Z"/><path class="cls-1" d="M112.31,30.16a.16.16,0,0,1-.16-.16V21.45a.08.08,0,0,0-.09-.09h-1.67a.15.15,0,0,1-.16-.16V19.66a.14.14,0,0,1,.16-.15H116a.14.14,0,0,1,.16.15V21.2a.15.15,0,0,1-.16.16H114.3c-.06,0-.1,0-.1.09V30a.15.15,0,0,1-.15.16Z"/><path class="cls-1" d="M118.59,19.66c0-.09.08-.15.17-.15h1.85a.16.16,0,0,1,.17.15L123.07,30c0,.09,0,.16-.13.16H121.2c-.1,0-.15-.07-.17-.16l-.34-1.93h-2L118.31,30c0,.09-.06.16-.17.16H116.4c-.1,0-.14-.07-.13-.16Zm1.8,6.78-.67-3.69h0l-.7,3.69Z"/><path class="cls-1" d="M123.71,19.66a.14.14,0,0,1,.16-.15h2.69a2.48,2.48,0,0,1,2.72,1.77,11.6,11.6,0,0,1,.29,3.55,11.74,11.74,0,0,1-.29,3.56,2.49,2.49,0,0,1-2.72,1.77h-2.69a.15.15,0,0,1-.16-.16Zm2.15,8.65h.5a.86.86,0,0,0,1-.66,9.17,9.17,0,0,0,.17-2.82,9.22,9.22,0,0,0-.17-2.82.86.86,0,0,0-1-.65h-.5c-.07,0-.1,0-.1.09v6.76C125.76,28.28,125.79,28.31,125.86,28.31Z"/><path class="cls-1" d="M130.69,28.5c-.17-.49-.21-.93-.21-3.67s0-3.18.21-3.66a3,3,0,0,1,5.45,0c.18.48.22.92.22,3.66s0,3.18-.22,3.67a3,3,0,0,1-5.45,0Zm3.48-.57a13.47,13.47,0,0,0,.11-3.1,13.55,13.55,0,0,0-.11-3.1.8.8,0,0,0-1.5,0,13.55,13.55,0,0,0-.11,3.1,13.47,13.47,0,0,0,.11,3.1.8.8,0,0,0,1.5,0Z"/></svg>