<?xml version="1.0" encoding="utf-8"?>
<!-- Generator: Adobe Illustrator 19.2.0, SVG Export Plug-In . SVG Version: 6.00 Build 0)  -->
<svg version="1.1" id="Layer_1" xmlns="http://www.w3.org/2000/svg" xmlns:xlink="http://www.w3.org/1999/xlink" x="0px" y="0px"
	 width="24px" height="24px" viewBox="0 0 24 24" style="enable-background:new 0 0 24 24;" xml:space="preserve">
<style type="text/css">
	.st0{fill-rule:evenodd;clip-rule:evenodd;fill:#FFFFFF;}
</style>
<path class="st0" d="M20.4,10.8h-4.8v4.8h-2.4v-4.8H8.4V8.4h4.8V3.6h2.4v4.8h4.8V10.8z M21.6,0H7.2C5.9,0,4.8,1.1,4.8,2.4v14.4
	c0,1.3,1.1,2.4,2.4,2.4h14.4c1.3,0,2.4-1.1,2.4-2.4V2.4C24,1.1,22.9,0,21.6,0z M2.4,4.8H0v16.8C0,22.9,1.1,24,2.4,24h16.8v-2.4H2.4
	V4.8z"/>
</svg>
