<?xml version="1.0" encoding="utf-8"?>
<!-- Generator: Adobe Illustrator 19.2.0, SVG Export Plug-In . SVG Version: 6.00 Build 0)  -->
<svg version="1.1" id="Layer_1" xmlns="http://www.w3.org/2000/svg" xmlns:xlink="http://www.w3.org/1999/xlink" x="0px" y="0px"
	 width="24px" height="24px" viewBox="0 0 24 24" style="enable-background:new 0 0 24 24;" xml:space="preserve">
<style type="text/css">
	.st0{fill-rule:evenodd;clip-rule:evenodd;fill:#FFFFFF;}
</style>
<g>
	<path class="st0" d="M21.3,13.5c-0.6,0-1.2,0.6-1.2,1.2V20H3.9v-5.3V3.8h5.2c0.7,0,1.3-0.5,1.3-1c0-0.6-0.6-1.2-1.2-1.2H2.7
		C2.1,1.5,1.6,2,1.6,2.7v12v6.6c0,0.6,0.6,1.2,1.2,1.2h6.4h12.1c0.6,0,1.2-0.6,1.2-1.2v-6.6C22.5,14.1,22,13.5,21.3,13.5z"/>
	<path class="st0" d="M22.2,1.8c-0.3-0.1-0.6-0.3-0.9-0.3h-6.9c-0.7,0-1.2,0.5-1.2,1.2s0.6,1.2,1.2,1.2h3.9L11,11.2
		c-0.4,0.4-0.4,1.2,0,1.6c0.4,0.5,1.2,0.5,1.6,0l7.3-7.4v4.1c0,0.8,0.6,1.2,1.2,1.2s1.3-0.6,1.3-1.2V2.7C22.5,2.4,22.3,2.1,22.2,1.8
		z"/>
</g>
</svg>
