<svg id="Capa_1" data-name="Capa 1" xmlns="http://www.w3.org/2000/svg" viewBox="0 0 211 64"><defs><style>.cls-1{fill:#fff;}</style></defs><path class="cls-1" d="M16.17,4.51a.14.14,0,0,1,.15-.15h1.25a.14.14,0,0,1,.15.15V14a.14.14,0,0,1-.15.14H16.32a.14.14,0,0,1-.15-.14Z"/><path class="cls-1" d="M19.25,4.51a.13.13,0,0,1,.14-.15h1.53a.19.19,0,0,1,.2.15l1.82,6.77H23V4.51a.14.14,0,0,1,.14-.15h1.07a.13.13,0,0,1,.14.15V14a.13.13,0,0,1-.14.14H22.79a.18.18,0,0,1-.2-.14l-1.9-6.78H20.6V14a.14.14,0,0,1-.14.14H19.39a.13.13,0,0,1-.14-.14Z"/><path class="cls-1" d="M28,14.3c-1.59,0-2.41-.85-2.45-2.57a.14.14,0,0,1,.11-.16l1.21-.2c.1,0,.16,0,.16.13.05,1,.35,1.44,1,1.44s.93-.33.93-1.4-.21-1.39-1-1.7l-.59-.23c-1.36-.53-1.76-1.24-1.76-2.77,0-1.68.76-2.61,2.38-2.61s2.32.87,2.41,2.4a.17.17,0,0,1-.13.16L29.18,7A.13.13,0,0,1,29,6.84c0-.8-.28-1.25-.92-1.25s-.89.37-.89,1.18.17,1.18.95,1.49l.59.23c1.28.5,1.79,1.19,1.79,2.87C30.54,13.29,29.89,14.3,28,14.3Z"/><path class="cls-1" d="M33,14.17a.14.14,0,0,1-.14-.14V5.85a.08.08,0,0,0-.09-.09H31.3a.14.14,0,0,1-.14-.14V4.51a.14.14,0,0,1,.14-.15H36a.14.14,0,0,1,.14.15V5.62a.14.14,0,0,1-.14.14h-1.5a.08.08,0,0,0-.09.09V14a.14.14,0,0,1-.14.14Z"/><path class="cls-1" d="M37.13,4.51a.14.14,0,0,1,.14-.15h1.26a.14.14,0,0,1,.14.15V14a.14.14,0,0,1-.14.14H37.27a.14.14,0,0,1-.14-.14Z"/><path class="cls-1" d="M41.51,14.17a.14.14,0,0,1-.14-.14V5.85a.08.08,0,0,0-.09-.09h-1.5a.14.14,0,0,1-.14-.14V4.51a.14.14,0,0,1,.14-.15H44.5a.14.14,0,0,1,.14.15V5.62a.14.14,0,0,1-.14.14H43a.08.08,0,0,0-.09.09V14a.14.14,0,0,1-.14.14Z"/><path class="cls-1" d="M45.59,11.67V4.51a.14.14,0,0,1,.15-.15H47a.14.14,0,0,1,.15.15v7.37a.89.89,0,0,0,.91,1c.57,0,.89-.4.89-1V4.51a.14.14,0,0,1,.14-.15h1.26a.13.13,0,0,1,.14.15v7.16c0,1.75-.92,2.63-2.43,2.63A2.3,2.3,0,0,1,45.59,11.67Z"/><path class="cls-1" d="M53.31,14.17a.13.13,0,0,1-.14-.14V5.85a.08.08,0,0,0-.09-.09h-1.5a.13.13,0,0,1-.14-.14V4.51a.13.13,0,0,1,.14-.15H56.3a.14.14,0,0,1,.14.15V5.62a.14.14,0,0,1-.14.14H54.8a.08.08,0,0,0-.09.09V14a.14.14,0,0,1-.14.14Z"/><path class="cls-1" d="M57.42,12.77c-.14-.43-.19-.78-.19-3.5s.05-3.08.19-3.51a2.52,2.52,0,0,1,4.63,0c.14.43.19.78.19,3.51s-.05,3.07-.19,3.5a2.52,2.52,0,0,1-4.63,0Zm3.15-.42a13.13,13.13,0,0,0,.1-3.08,13.19,13.19,0,0,0-.1-3.09.83.83,0,0,0-.83-.55.82.82,0,0,0-.83.55c-.09.27-.1.39-.1,3.09s0,2.81.1,3.08a.82.82,0,0,0,.83.55A.83.83,0,0,0,60.57,12.35Z"/><path class="cls-1" d="M66.53,14.17a.14.14,0,0,1-.14-.14V4.51a.14.14,0,0,1,.14-.15h2c1.75,0,2.78.78,2.78,3s-1,3-2.78,3H68a.08.08,0,0,0-.09.09V14a.13.13,0,0,1-.14.14Zm3.22-6.79c0-1.24-.36-1.62-1.24-1.62H68a.08.08,0,0,0-.09.09V8.91C67.93,9,68,9,68,9h.49C69.39,9,69.75,8.62,69.75,7.38Z"/><path class="cls-1" d="M76.24,14.17a.15.15,0,0,1-.16-.1l-1.19-3.91h-.74a.08.08,0,0,0-.09.09V14a.13.13,0,0,1-.14.14H72.66a.14.14,0,0,1-.14-.14V4.51a.14.14,0,0,1,.14-.15h2c1.75,0,2.8.77,2.8,2.92a2.6,2.6,0,0,1-1.17,2.5L77.65,14c0,.07,0,.14-.07.14Zm-.35-6.89c0-1.16-.37-1.52-1.24-1.52h-.5a.08.08,0,0,0-.09.09V8.7a.08.08,0,0,0,.09.09h.5C75.52,8.79,75.89,8.44,75.89,7.28Z"/><path class="cls-1" d="M78.82,12.77c-.14-.43-.19-.78-.19-3.5s.05-3.08.19-3.51a2.52,2.52,0,0,1,4.63,0c.15.43.19.78.19,3.51s0,3.07-.19,3.5a2.52,2.52,0,0,1-4.63,0ZM82,12.35a13.13,13.13,0,0,0,.1-3.08A13.19,13.19,0,0,0,82,6.18a.83.83,0,0,0-.83-.55.82.82,0,0,0-.83.55c-.09.27-.1.39-.1,3.09s0,2.81.1,3.08a.82.82,0,0,0,.83.55A.83.83,0,0,0,82,12.35Z"/><path class="cls-1" d="M85,4.51a.14.14,0,0,1,.15-.15h4a.14.14,0,0,1,.15.15V5.62a.14.14,0,0,1-.15.14H86.62c-.05,0-.08,0-.08.09V8.5c0,.06,0,.09.08.09h2.2a.14.14,0,0,1,.14.14V9.84a.14.14,0,0,1-.14.15h-2.2a.07.07,0,0,0-.08.08v4a.14.14,0,0,1-.15.14H85.14A.14.14,0,0,1,85,14Z"/><path class="cls-1" d="M90.42,4.51a.13.13,0,0,1,.14-.15h4a.14.14,0,0,1,.15.15V5.62a.14.14,0,0,1-.15.14H92.05a.08.08,0,0,0-.09.09V8.43a.08.08,0,0,0,.09.09h2.19a.13.13,0,0,1,.14.14V9.77a.13.13,0,0,1-.14.14H92.05A.08.08,0,0,0,92,10v2.68a.08.08,0,0,0,.09.09h2.53a.14.14,0,0,1,.15.14V14a.14.14,0,0,1-.15.14h-4a.13.13,0,0,1-.14-.14Z"/><path class="cls-1" d="M98,14.3c-1.58,0-2.4-.85-2.45-2.57a.14.14,0,0,1,.12-.16l1.21-.2c.1,0,.16,0,.16.13,0,1,.35,1.44,1,1.44s.92-.33.92-1.4-.2-1.39-1-1.7l-.59-.23c-1.35-.53-1.76-1.24-1.76-2.77,0-1.68.77-2.61,2.38-2.61s2.33.87,2.41,2.4a.16.16,0,0,1-.13.16L99.2,7c-.09,0-.16,0-.16-.12,0-.8-.29-1.25-.92-1.25s-.9.37-.9,1.18.18,1.18,1,1.49l.59.23c1.28.5,1.79,1.19,1.79,2.87C100.56,13.29,99.91,14.3,98,14.3Z"/><path class="cls-1" d="M101.74,4.51a.13.13,0,0,1,.14-.15h1.26a.14.14,0,0,1,.14.15V14a.14.14,0,0,1-.14.14h-1.26a.13.13,0,0,1-.14-.14Z"/><path class="cls-1" d="M104.82,12.77c-.14-.43-.19-.78-.19-3.5s.05-3.08.19-3.51a2.52,2.52,0,0,1,4.63,0c.15.43.19.78.19,3.51s0,3.07-.19,3.5a2.52,2.52,0,0,1-4.63,0Zm3.15-.42a13.13,13.13,0,0,0,.1-3.08,13.19,13.19,0,0,0-.1-3.09.82.82,0,0,0-.82-.55.83.83,0,0,0-.84.55c-.09.27-.1.39-.1,3.09s0,2.81.1,3.08a.83.83,0,0,0,.84.55A.82.82,0,0,0,108,12.35Z"/><path class="cls-1" d="M111,4.51a.14.14,0,0,1,.15-.15h1.53a.19.19,0,0,1,.2.15l1.82,6.77h.07V4.51a.14.14,0,0,1,.14-.15H116a.13.13,0,0,1,.14.15V14a.13.13,0,0,1-.14.14h-1.43a.18.18,0,0,1-.2-.14l-1.9-6.78h-.09V14a.14.14,0,0,1-.14.14h-1.07A.14.14,0,0,1,111,14Z"/><path class="cls-1" d="M119.17,4.51c0-.09.07-.15.16-.15h1.21a.16.16,0,0,1,.16.15L122.78,14a.11.11,0,0,1-.12.14h-1.22a.15.15,0,0,1-.16-.14l-.39-2h-2l-.39,2a.15.15,0,0,1-.16.14h-1.22a.11.11,0,0,1-.12-.14Zm1.47,6.24L120,7.1h0l-.72,3.65Z"/><path class="cls-1" d="M123.72,4.51a.13.13,0,0,1,.14-.15h1.25a.14.14,0,0,1,.15.15v8.17c0,.06,0,.09.08.09h2.54a.14.14,0,0,1,.15.14V14a.14.14,0,0,1-.15.14h-4a.13.13,0,0,1-.14-.14Z"/><path class="cls-1" d="M134,14.3c-1.59,0-2.41-.85-2.45-2.57a.14.14,0,0,1,.12-.16l1.21-.2c.1,0,.16,0,.16.13,0,1,.34,1.44,1,1.44s.92-.33.92-1.4-.2-1.39-1-1.7l-.59-.23c-1.36-.53-1.76-1.24-1.76-2.77,0-1.68.76-2.61,2.38-2.61s2.32.87,2.41,2.4a.16.16,0,0,1-.13.16L135.17,7c-.09,0-.16,0-.16-.12,0-.8-.29-1.25-.93-1.25s-.89.37-.89,1.18.17,1.18.95,1.49l.59.23c1.29.5,1.79,1.19,1.79,2.87C136.52,13.29,135.87,14.3,134,14.3Z"/><path class="cls-1" d="M139.23,4.51c0-.09.07-.15.16-.15h1.21a.16.16,0,0,1,.16.15L142.84,14a.11.11,0,0,1-.12.14H141.5a.14.14,0,0,1-.16-.14l-.39-2H139l-.39,2a.15.15,0,0,1-.16.14h-1.22a.11.11,0,0,1-.12-.14Zm1.47,6.24L140,7.1h0l-.72,3.65Z"/><path class="cls-1" d="M143.77,4.51a.14.14,0,0,1,.15-.15h1.53a.19.19,0,0,1,.2.15l1.82,6.77h.07V4.51a.14.14,0,0,1,.14-.15h1.07a.13.13,0,0,1,.14.15V14a.13.13,0,0,1-.14.14h-1.43a.18.18,0,0,1-.2-.14l-1.9-6.78h-.09V14a.14.14,0,0,1-.14.14h-1.07a.14.14,0,0,1-.15-.14Z"/><path class="cls-1" d="M151.74,14.17a.14.14,0,0,1-.15-.14V5.85c0-.06,0-.09-.08-.09H150a.14.14,0,0,1-.15-.14V4.51a.14.14,0,0,1,.15-.15h4.71a.14.14,0,0,1,.15.15V5.62a.14.14,0,0,1-.15.14h-1.5c-.06,0-.08,0-.08.09V14a.14.14,0,0,1-.15.14Z"/><path class="cls-1" d="M155.85,12.77c-.15-.43-.19-.78-.19-3.5s0-3.08.19-3.51a2.52,2.52,0,0,1,4.63,0c.14.43.18.78.18,3.51s0,3.07-.18,3.5a2.52,2.52,0,0,1-4.63,0Zm3.14-.42c.09-.27.1-.39.1-3.08s0-2.82-.1-3.09a.82.82,0,0,0-.82-.55.83.83,0,0,0-.84.55,13.19,13.19,0,0,0-.1,3.09,13.13,13.13,0,0,0,.1,3.08.83.83,0,0,0,.84.55A.82.82,0,0,0,159,12.35Z"/><path class="cls-1" d="M166.13,14.17A.14.14,0,0,1,166,14V5.85c0-.06,0-.09-.08-.09h-1.5a.14.14,0,0,1-.15-.14V4.51a.14.14,0,0,1,.15-.15h4.71a.14.14,0,0,1,.15.15V5.62a.14.14,0,0,1-.15.14h-1.5c-.05,0-.08,0-.08.09V14a.14.14,0,0,1-.15.14Z"/><path class="cls-1" d="M170.24,12.77c-.14-.43-.19-.78-.19-3.5s0-3.08.19-3.51a2.52,2.52,0,0,1,4.63,0c.14.43.19.78.19,3.51s-.05,3.07-.19,3.5a2.52,2.52,0,0,1-4.63,0Zm3.14-.42c.09-.27.1-.39.1-3.08s0-2.82-.1-3.09a.81.81,0,0,0-.82-.55.84.84,0,0,0-.84.55,13.19,13.19,0,0,0-.1,3.09,13.13,13.13,0,0,0,.1,3.08.84.84,0,0,0,.84.55A.81.81,0,0,0,173.38,12.35Z"/><path class="cls-1" d="M176.41,4.51a.14.14,0,0,1,.15-.15h1.25a.21.21,0,0,1,.23.15L179.67,10h.06l1.58-5.52a.22.22,0,0,1,.24-.15h1.24a.14.14,0,0,1,.14.15V14a.14.14,0,0,1-.14.14h-1.12a.14.14,0,0,1-.14-.14V7.82h-.09l-1.26,4.46a.18.18,0,0,1-.19.14h-.64a.17.17,0,0,1-.18-.14L177.9,7.82h-.09V14a.14.14,0,0,1-.14.14h-1.11a.14.14,0,0,1-.15-.14Z"/><path class="cls-1" d="M186,4.51c0-.09.07-.15.16-.15h1.21a.17.17,0,0,1,.16.15L189.59,14a.11.11,0,0,1-.11.14h-1.23a.15.15,0,0,1-.16-.14l-.39-2h-1.94l-.39,2a.15.15,0,0,1-.16.14H184a.11.11,0,0,1-.11-.14Zm1.47,6.24-.69-3.65h-.05L186,10.75Zm-1.13-7.56c-.08,0-.14-.07-.08-.14l1.11-1.54c.07-.1.11-.15.23-.15h1.17a.09.09,0,0,1,.07.15l-1.42,1.54a.36.36,0,0,1-.28.14Z"/><path class="cls-1" d="M192.66,14.3c-1.58,0-2.4-.85-2.45-2.57a.14.14,0,0,1,.12-.16l1.21-.2c.1,0,.16,0,.16.13,0,1,.34,1.44,1,1.44s.92-.33.92-1.4-.2-1.39-1-1.7l-.59-.23c-1.35-.53-1.76-1.24-1.76-2.77,0-1.68.77-2.61,2.38-2.61s2.33.87,2.41,2.4a.16.16,0,0,1-.13.16L193.82,7c-.09,0-.16,0-.16-.12,0-.8-.29-1.25-.92-1.25s-.9.37-.9,1.18.18,1.18.95,1.49l.6.23c1.28.5,1.78,1.19,1.78,2.87C195.17,13.29,194.52,14.3,192.66,14.3Z"/><path class="cls-1" d="M30.27,19.93c0-.1.08-.17.17-.17h1.91a.18.18,0,0,1,.18.17l2.35,10.65a.12.12,0,0,1-.13.16H33a.17.17,0,0,1-.18-.16l-.35-2H30.35l-.37,2a.17.17,0,0,1-.18.16H28a.12.12,0,0,1-.13-.16Zm1.85,7-.69-3.81h-.05l-.73,3.81Z"/><path class="cls-1" d="M35.39,25.25c0-2.84.06-3.34.21-3.81a2.57,2.57,0,0,1,2.72-1.82,2.62,2.62,0,0,1,2.89,2.78.17.17,0,0,1-.14.19l-1.7.29a.13.13,0,0,1-.17-.14c0-.88-.31-1.22-.84-1.22a.69.69,0,0,0-.73.5,15.37,15.37,0,0,0-.1,3.23,15.18,15.18,0,0,0,.1,3.23.68.68,0,0,0,.73.5c.53,0,.8-.34.84-1.21a.13.13,0,0,1,.17-.14l1.7.29c.11,0,.14.09.14.19a2.62,2.62,0,0,1-2.89,2.78,2.56,2.56,0,0,1-2.72-1.83C35.45,28.6,35.39,28.1,35.39,25.25Z"/><path class="cls-1" d="M46.24,30.74a.16.16,0,0,1-.18-.13l-1.24-4.16H44.2c-.06,0-.09,0-.09.1v4a.16.16,0,0,1-.17.16H42.15a.15.15,0,0,1-.16-.16V19.93a.16.16,0,0,1,.16-.17h2.62c1.95,0,3.21.92,3.21,3.36a3.15,3.15,0,0,1-1.23,2.81l1.5,4.65c0,.08,0,.16-.08.16Zm-.39-7.62c0-1.14-.36-1.5-1.18-1.5H44.2c-.06,0-.09,0-.09.1v2.81a.08.08,0,0,0,.09.09h.47C45.49,24.62,45.85,24.29,45.85,23.12Z"/><path class="cls-1" d="M49.09,19.93a.16.16,0,0,1,.17-.17h4.79a.16.16,0,0,1,.16.17v1.58a.15.15,0,0,1-.16.16H51.31c-.07,0-.1,0-.1.1v2.39c0,.06,0,.09.1.09h2.37a.15.15,0,0,1,.16.16V26a.15.15,0,0,1-.16.16H51.31c-.07,0-.1,0-.1.1v2.48c0,.07,0,.1.1.1h2.74a.15.15,0,0,1,.16.16v1.58a.15.15,0,0,1-.16.16H49.26a.16.16,0,0,1-.17-.16Z"/><path class="cls-1" d="M55.17,19.93a.16.16,0,0,1,.16-.17H58.1a2.57,2.57,0,0,1,2.81,1.83,12,12,0,0,1,.29,3.66,12,12,0,0,1-.29,3.67,2.57,2.57,0,0,1-2.81,1.82H55.33a.15.15,0,0,1-.16-.16Zm2.21,8.91h.51a.9.9,0,0,0,1-.68,9.55,9.55,0,0,0,.18-2.91,9.5,9.5,0,0,0-.18-2.9.89.89,0,0,0-1-.68h-.51c-.07,0-.1,0-.1.1v7C57.28,28.81,57.31,28.84,57.38,28.84Z"/><path class="cls-1" d="M62.3,19.93a.16.16,0,0,1,.16-.17h1.8a.16.16,0,0,1,.16.17V30.58a.15.15,0,0,1-.16.16h-1.8a.15.15,0,0,1-.16-.16Z"/><path class="cls-1" d="M67.31,30.74a.15.15,0,0,1-.16-.16V21.77a.09.09,0,0,0-.1-.1H65.32a.15.15,0,0,1-.16-.16V19.93a.16.16,0,0,1,.16-.17h5.77a.16.16,0,0,1,.16.17v1.58a.15.15,0,0,1-.16.16H69.36c-.07,0-.1,0-.1.1v8.81a.15.15,0,0,1-.16.16Z"/><path class="cls-1" d="M73.78,19.93c0-.1.08-.17.18-.17h1.91a.18.18,0,0,1,.17.17L78.4,30.58a.12.12,0,0,1-.13.16H76.48a.17.17,0,0,1-.18-.16l-.35-2H73.86l-.37,2a.16.16,0,0,1-.18.16H71.52c-.1,0-.14-.06-.13-.16Zm1.86,7-.7-3.81h0l-.73,3.81Z"/><path class="cls-1" d="M79.06,19.93a.16.16,0,0,1,.16-.17H82a2.57,2.57,0,0,1,2.81,1.83,12.32,12.32,0,0,1,.29,3.66,12.41,12.41,0,0,1-.29,3.67A2.57,2.57,0,0,1,82,30.74H79.22a.15.15,0,0,1-.16-.16Zm2.21,8.91h.52a.91.91,0,0,0,1-.68A9.78,9.78,0,0,0,83,25.25a9.74,9.74,0,0,0-.17-2.9.91.91,0,0,0-1-.68h-.52c-.06,0-.09,0-.09.1v7C81.18,28.81,81.21,28.84,81.27,28.84Z"/><path class="cls-1" d="M86.26,29c-.17-.5-.22-1-.22-3.78s0-3.27.22-3.77a3.05,3.05,0,0,1,5.62,0c.18.5.23.95.23,3.77s0,3.28-.23,3.78a3.05,3.05,0,0,1-5.62,0Zm3.59-.58a14.39,14.39,0,0,0,.11-3.2,14.32,14.32,0,0,0-.11-3.19.77.77,0,0,0-.78-.54.76.76,0,0,0-.77.54,14.32,14.32,0,0,0-.11,3.19,14.39,14.39,0,0,0,.11,3.2.75.75,0,0,0,.77.53A.77.77,0,0,0,89.85,28.45Z"/><path class="cls-1" d="M96.13,19.93a.16.16,0,0,1,.16-.17h2a.19.19,0,0,1,.22.17l1.83,6.89h.08V19.93a.16.16,0,0,1,.16-.17h1.54a.16.16,0,0,1,.16.17V30.58a.15.15,0,0,1-.16.16H100.2c-.13,0-.2,0-.23-.16l-1.9-6.89H98v6.89a.16.16,0,0,1-.17.16H96.29a.15.15,0,0,1-.16-.16Z"/><path class="cls-1" d="M103.56,19.93a.16.16,0,0,1,.16-.17h1.79a.16.16,0,0,1,.16.17V30.58a.15.15,0,0,1-.16.16h-1.79a.15.15,0,0,1-.16-.16Z"/><path class="cls-1" d="M108.77,30.74c-.1,0-.14-.06-.18-.16l-2.18-10.65a.12.12,0,0,1,.13-.17h1.83a.16.16,0,0,1,.17.17l1.12,6.94h0l1.06-6.94c0-.12.08-.17.18-.17h1.79c.12,0,.16.07.13.17l-2.19,10.65c0,.1-.07.16-.17.16Z"/><path class="cls-1" d="M113.62,19.93a.16.16,0,0,1,.16-.17h4.79a.16.16,0,0,1,.16.17v1.58a.15.15,0,0,1-.16.16h-2.74c-.07,0-.1,0-.1.1v2.39c0,.06,0,.09.1.09h2.37a.15.15,0,0,1,.16.16V26a.15.15,0,0,1-.16.16h-2.37c-.07,0-.1,0-.1.1v2.48c0,.07,0,.1.1.1h2.74a.15.15,0,0,1,.16.16v1.58a.15.15,0,0,1-.16.16h-4.79a.15.15,0,0,1-.16-.16Z"/><path class="cls-1" d="M119.69,19.93a.16.16,0,0,1,.16-.17h1.79a.16.16,0,0,1,.16.17v8.81c0,.07,0,.1.1.1h2.78a.15.15,0,0,1,.16.16v1.58a.15.15,0,0,1-.16.16h-4.83a.15.15,0,0,1-.16-.16Z"/><path class="cls-1" d="M130.39,19.93c0-.1.08-.17.18-.17h1.9a.18.18,0,0,1,.18.17L135,30.58a.12.12,0,0,1-.13.16h-1.79c-.12,0-.16-.06-.18-.16l-.35-2h-2.09l-.37,2c0,.1-.06.16-.18.16h-1.79c-.1,0-.14-.06-.13-.16Zm1.86,7-.7-3.81h0l-.73,3.81Z"/><path class="cls-1" d="M137.51,30.74c-.09,0-.14-.06-.17-.16l-2.19-10.65a.12.12,0,0,1,.13-.17h1.83c.1,0,.16,0,.18.17l1.11,6.94h0l1.06-6.94a.18.18,0,0,1,.18-.17h1.79c.12,0,.17.07.13.17l-2.19,10.65c0,.1-.07.16-.16.16Z"/><path class="cls-1" d="M144.15,19.93c0-.1.08-.17.18-.17h1.9a.18.18,0,0,1,.18.17l2.36,10.65c0,.1,0,.16-.13.16h-1.8a.16.16,0,0,1-.17-.16l-.36-2h-2.08l-.37,2a.17.17,0,0,1-.18.16h-1.79a.12.12,0,0,1-.13-.16Zm1.86,7-.7-3.81h-.05l-.72,3.81Z"/><path class="cls-1" d="M149.43,19.93a.16.16,0,0,1,.16-.17h2a.19.19,0,0,1,.22.17l1.83,6.89h.08V19.93a.16.16,0,0,1,.16-.17h1.54a.16.16,0,0,1,.16.17V30.58a.15.15,0,0,1-.16.16H153.5c-.13,0-.2,0-.23-.16l-1.9-6.89h-.08v6.89a.16.16,0,0,1-.17.16h-1.53a.15.15,0,0,1-.16-.16Z"/><path class="cls-1" d="M156.78,30.74a.16.16,0,0,1-.17-.16V29.06c0-.06,0-.11,0-.16l2.88-7.2v0h-2.6a.15.15,0,0,1-.16-.16V19.93a.16.16,0,0,1,.16-.17h4.68a.16.16,0,0,1,.16.17v1.53a.41.41,0,0,1,0,.16l-2.88,7.19v0h2.75a.15.15,0,0,1,.16.16v1.58a.15.15,0,0,1-.16.16Z"/><path class="cls-1" d="M164.59,19.93c0-.1.08-.17.18-.17h1.9a.18.18,0,0,1,.18.17l2.36,10.65a.12.12,0,0,1-.13.16h-1.79c-.12,0-.16-.06-.18-.16l-.36-2h-2.08l-.37,2c0,.1-.06.16-.18.16h-1.79a.12.12,0,0,1-.13-.16Zm1.86,7-.7-3.81h-.05L165,26.92Z"/><path class="cls-1" d="M169.87,19.93a.16.16,0,0,1,.16-.17h2.78a2.58,2.58,0,0,1,2.81,1.83,12.32,12.32,0,0,1,.29,3.66,12.41,12.41,0,0,1-.29,3.67,2.57,2.57,0,0,1-2.81,1.82H170a.15.15,0,0,1-.16-.16Zm2.21,8.91h.52a.9.9,0,0,0,1-.68,9.55,9.55,0,0,0,.18-2.91,9.5,9.5,0,0,0-.18-2.9.89.89,0,0,0-1-.68h-.52c-.06,0-.09,0-.09.1v7C172,28.81,172,28.84,172.08,28.84Z"/><path class="cls-1" d="M177.07,29c-.18-.5-.22-1-.22-3.78s0-3.27.22-3.77a3.05,3.05,0,0,1,5.62,0c.18.5.23.95.23,3.77s0,3.28-.23,3.78a3.05,3.05,0,0,1-5.62,0Zm3.59-.58a14.39,14.39,0,0,0,.11-3.2,14.32,14.32,0,0,0-.11-3.19.78.78,0,0,0-.78-.54.76.76,0,0,0-.77.54,13.7,13.7,0,0,0-.12,3.19,13.77,13.77,0,0,0,.12,3.2.75.75,0,0,0,.77.53A.78.78,0,0,0,180.66,28.45Z"/><path class="cls-1" d="M10,57.62c0-2.87,0-3.25.19-3.68a1.89,1.89,0,0,1,2-1.34,2,2,0,0,1,2.1,1.93c0,.1,0,.16-.1.19l-.42.09c-.1,0-.16,0-.17-.11-.13-.86-.55-1.39-1.41-1.39a1.21,1.21,0,0,0-1.26.86,14.17,14.17,0,0,0-.14,3.45c0,2.81,0,3.11.14,3.44a1.24,1.24,0,0,0,1.27.87,1.24,1.24,0,0,0,1.27-.87,10.81,10.81,0,0,0,.14-2.87.07.07,0,0,0-.08-.08H12.34a.14.14,0,0,1-.15-.15v-.4a.13.13,0,0,1,.15-.14h1.84a.13.13,0,0,1,.15.14V58c0,2.54-.05,2.91-.19,3.35a1.89,1.89,0,0,1-2,1.34,1.89,1.89,0,0,1-2-1.34C10,60.86,10,60.49,10,57.62Z"/><path class="cls-1" d="M15.53,52.86a.13.13,0,0,1,.14-.15H19a.14.14,0,0,1,.15.15v.42a.14.14,0,0,1-.15.14H16.36c-.06,0-.08,0-.08.09v3.6c0,.06,0,.09.08.09h2.31a.13.13,0,0,1,.14.14v.42a.13.13,0,0,1-.14.15H16.36c-.06,0-.08,0-.08.08v3.74c0,.06,0,.08.08.08H19a.14.14,0,0,1,.15.15v.42a.14.14,0,0,1-.15.14H15.67a.13.13,0,0,1-.14-.14Z"/><path class="cls-1" d="M21.76,62.64c-1.36,0-2-.81-2.11-2.47,0-.09,0-.14.1-.16l.43-.08c.12,0,.16,0,.16.11.1,1.43.56,1.9,1.43,1.9s1.33-.41,1.33-2c0-1.24-.31-1.72-1.08-2l-.6-.23c-1.29-.5-1.65-1.14-1.65-2.62,0-1.65.66-2.44,2-2.44s1.94.73,2,2.26c0,.09,0,.13-.11.16l-.41.07a.11.11,0,0,1-.16-.11c-.05-1.15-.43-1.69-1.3-1.69S20.5,53.8,20.5,55s.29,1.57,1.1,1.89l.59.23c1.22.49,1.64,1.11,1.64,2.69C23.83,61.84,23.21,62.64,21.76,62.64Z"/><path class="cls-1" d="M26.27,62.52a.13.13,0,0,1-.14-.14V53.51a.08.08,0,0,0-.09-.09H24.31a.14.14,0,0,1-.15-.14v-.42a.14.14,0,0,1,.15-.15h4.38a.14.14,0,0,1,.15.15v.42a.14.14,0,0,1-.15.14H27a.08.08,0,0,0-.09.09v8.87a.13.13,0,0,1-.14.14Z"/><path class="cls-1" d="M29.51,52.86a.14.14,0,0,1,.15-.15h.46a.13.13,0,0,1,.14.15v9.52a.13.13,0,0,1-.14.14h-.46a.14.14,0,0,1-.15-.14Z"/><path class="cls-1" d="M31.69,61.3c-.14-.44-.19-.81-.19-3.68s.05-3.25.19-3.68a1.89,1.89,0,0,1,2-1.34,1.87,1.87,0,0,1,2,1.34c.15.43.19.81.19,3.68s0,3.24-.19,3.68a1.87,1.87,0,0,1-2,1.34A1.89,1.89,0,0,1,31.69,61.3Zm3.23-.24c.1-.33.16-.63.16-3.44s-.06-3.12-.16-3.45a1.19,1.19,0,0,0-1.25-.86,1.21,1.21,0,0,0-1.26.86,14.17,14.17,0,0,0-.14,3.45c0,2.81,0,3.11.14,3.44a1.23,1.23,0,0,0,1.26.87A1.21,1.21,0,0,0,34.92,61.06Zm-1.48-9.57c-.09,0-.12-.07-.06-.15l1.08-1.48a.26.26,0,0,1,.25-.14h.47c.09,0,.12.07.06.14L34,51.34c-.11.12-.15.15-.25.15Z"/><path class="cls-1" d="M37.06,52.86a.13.13,0,0,1,.14-.15h.58c.13,0,.19,0,.23.15l2.71,8h0v-8a.14.14,0,0,1,.15-.15h.4a.14.14,0,0,1,.15.15v9.52a.14.14,0,0,1-.15.14h-.55a.2.2,0,0,1-.23-.14l-2.74-8h0v8a.14.14,0,0,1-.15.14h-.4a.13.13,0,0,1-.14-.14Z"/><path class="cls-1" d="M45,52.86a.13.13,0,0,1,.14-.15h.46a.13.13,0,0,1,.14.15v9.52a.13.13,0,0,1-.14.14h-.46a.13.13,0,0,1-.14-.14Z"/><path class="cls-1" d="M47.09,52.86a.14.14,0,0,1,.15-.15h.58a.21.21,0,0,1,.23.15l2.71,8h0v-8a.14.14,0,0,1,.14-.15h.41a.14.14,0,0,1,.14.15v9.52a.14.14,0,0,1-.14.14H50.8c-.13,0-.19,0-.23-.14l-2.74-8h0v8a.14.14,0,0,1-.15.14h-.4a.14.14,0,0,1-.15-.14Z"/><path class="cls-1" d="M54.64,62.64c-1.36,0-2-.81-2.11-2.47,0-.09,0-.14.1-.16l.43-.08c.12,0,.16,0,.16.11.1,1.43.57,1.9,1.43,1.9s1.33-.41,1.33-2c0-1.24-.3-1.72-1.08-2l-.6-.23c-1.29-.5-1.65-1.14-1.65-2.62,0-1.65.66-2.44,2-2.44s1.94.73,2,2.26c0,.09,0,.13-.1.16l-.42.07A.11.11,0,0,1,56,55c0-1.15-.43-1.69-1.3-1.69s-1.27.51-1.27,1.72.29,1.57,1.1,1.89l.59.23c1.23.49,1.64,1.11,1.64,2.69C56.71,61.84,56.09,62.64,54.64,62.64Z"/><path class="cls-1" d="M59.15,62.52a.13.13,0,0,1-.14-.14V53.51a.08.08,0,0,0-.09-.09H57.19a.13.13,0,0,1-.14-.14v-.42a.13.13,0,0,1,.14-.15h4.38a.14.14,0,0,1,.15.15v.42a.14.14,0,0,1-.15.14H59.84c-.05,0-.08,0-.08.09v8.87a.14.14,0,0,1-.15.14Z"/><path class="cls-1" d="M62.4,52.86a.13.13,0,0,1,.14-.15H63a.14.14,0,0,1,.15.15v9.52a.14.14,0,0,1-.15.14h-.46a.13.13,0,0,1-.14-.14Z"/><path class="cls-1" d="M65.93,62.52a.14.14,0,0,1-.15-.14V53.51c0-.06,0-.09-.08-.09H64a.14.14,0,0,1-.15-.14v-.42a.14.14,0,0,1,.15-.15h4.38a.14.14,0,0,1,.15.15v.42a.14.14,0,0,1-.15.14H66.62a.08.08,0,0,0-.09.09v8.87a.13.13,0,0,1-.14.14Z"/><path class="cls-1" d="M69.16,60.21V52.86a.14.14,0,0,1,.14-.15h.46a.14.14,0,0,1,.15.15v7.41c0,1.14.55,1.66,1.37,1.66s1.38-.52,1.38-1.66V52.86a.14.14,0,0,1,.15-.15h.44a.14.14,0,0,1,.15.15v7.35c0,1.63-.85,2.43-2.12,2.43S69.16,61.84,69.16,60.21Z"/><path class="cls-1" d="M74.63,57.62c0-2.87.05-3.26.18-3.68a1.84,1.84,0,0,1,1.92-1.34,2,2,0,0,1,2,2c0,.1,0,.16-.09.19l-.43.08c-.09,0-.16,0-.16-.11-.12-.92-.54-1.44-1.31-1.44a1.17,1.17,0,0,0-1.22.86,14.17,14.17,0,0,0-.14,3.45c0,2.8,0,3.13.14,3.44a1.17,1.17,0,0,0,1.22.87c.77,0,1.19-.52,1.31-1.46a.11.11,0,0,1,.16-.1l.43.09c.09,0,.1.09.09.17a2,2,0,0,1-2,2,1.84,1.84,0,0,1-1.92-1.34C74.68,60.88,74.63,60.49,74.63,57.62Z"/><path class="cls-1" d="M79.62,52.86a.13.13,0,0,1,.14-.15h.46a.14.14,0,0,1,.15.15v9.52a.14.14,0,0,1-.15.14h-.46a.13.13,0,0,1-.14-.14Z"/><path class="cls-1" d="M81.78,61.3c-.15-.44-.19-.81-.19-3.68s0-3.25.19-3.68a2.13,2.13,0,0,1,4,0c.14.43.19.81.19,3.68s0,3.24-.19,3.68a2.13,2.13,0,0,1-4,0ZM85,61.06c.1-.33.16-.63.16-3.44s-.06-3.12-.16-3.45a1.35,1.35,0,0,0-2.51,0,14.17,14.17,0,0,0-.14,3.45c0,2.81,0,3.11.14,3.44a1.34,1.34,0,0,0,2.51,0Z"/><path class="cls-1" d="M87.16,52.86a.14.14,0,0,1,.14-.15h.58c.13,0,.19,0,.23.15l2.71,8h0v-8a.14.14,0,0,1,.15-.15h.4a.14.14,0,0,1,.15.15v9.52a.14.14,0,0,1-.15.14h-.55a.2.2,0,0,1-.23-.14l-2.74-8h0v8a.14.14,0,0,1-.14.14H87.3a.14.14,0,0,1-.14-.14Z"/><path class="cls-1" d="M94.4,52.86c0-.09.07-.15.16-.15H95a.16.16,0,0,1,.16.15l2,9.52a.12.12,0,0,1-.13.14h-.46a.15.15,0,0,1-.16-.14L96,60H93.58l-.49,2.35c0,.08-.06.14-.15.14h-.46c-.09,0-.16-.06-.14-.14Zm1.43,6.49-1-5h0l-1,5Z"/><path class="cls-1" d="M98,52.86a.14.14,0,0,1,.15-.15h.46a.13.13,0,0,1,.14.15v8.87c0,.06,0,.08.09.08h2.62a.14.14,0,0,1,.15.15v.42a.14.14,0,0,1-.15.14H98.12a.14.14,0,0,1-.15-.14Z"/><path class="cls-1" d="M105.67,52.74a.17.17,0,0,1,.16-.14h.34a.11.11,0,0,1,.12.14l-1.8,9.75a.15.15,0,0,1-.16.15H104a.12.12,0,0,1-.13-.15Z"/><path class="cls-1" d="M109.21,52.86a.14.14,0,0,1,.14-.15h1.76a2,2,0,0,1,2.14,1.46,12,12,0,0,1,.23,3.45,12,12,0,0,1-.23,3.44,2,2,0,0,1-2.14,1.46h-1.76a.14.14,0,0,1-.14-.14Zm.83,9h1a1.36,1.36,0,0,0,1.5-1,11.11,11.11,0,0,0,.21-3.2,11,11,0,0,0-.21-3.2,1.37,1.37,0,0,0-1.5-1h-1c-.05,0-.08,0-.08.09v8.22C110,61.79,110,61.81,110,61.81Z"/><path class="cls-1" d="M114.74,61.3c-.14-.44-.18-.81-.18-3.68s0-3.25.18-3.68a2.13,2.13,0,0,1,4,0c.14.43.18.81.18,3.68s0,3.24-.18,3.68a2.13,2.13,0,0,1-4,0Zm3.23-.24c.11-.33.16-.63.16-3.44s0-3.12-.16-3.45a1.18,1.18,0,0,0-1.25-.86,1.2,1.2,0,0,0-1.25.86c-.11.33-.15.64-.15,3.45s0,3.11.15,3.44a1.21,1.21,0,0,0,1.25.87A1.2,1.2,0,0,0,118,61.06Z"/><path class="cls-1" d="M120,57.62c0-2.87,0-3.26.18-3.68a1.84,1.84,0,0,1,1.92-1.34,2,2,0,0,1,2,2c0,.1,0,.16-.09.19l-.43.08c-.09,0-.16,0-.16-.11-.12-.92-.54-1.44-1.31-1.44a1.17,1.17,0,0,0-1.22.86,14.17,14.17,0,0,0-.14,3.45c0,2.8,0,3.13.14,3.44a1.17,1.17,0,0,0,1.22.87c.77,0,1.19-.52,1.31-1.46a.11.11,0,0,1,.16-.1l.43.09c.09,0,.1.09.09.17a2,2,0,0,1-2,2,1.84,1.84,0,0,1-1.92-1.34C120,60.88,120,60.49,120,57.62Z"/><path class="cls-1" d="M124.94,52.86a.14.14,0,0,1,.15-.15h3.33a.14.14,0,0,1,.14.15v.42a.14.14,0,0,1-.14.14h-2.64a.08.08,0,0,0-.09.09v3.6a.08.08,0,0,0,.09.09h2.31a.14.14,0,0,1,.14.14v.42a.14.14,0,0,1-.14.15h-2.31c-.06,0-.09,0-.09.08v3.74c0,.06,0,.08.09.08h2.64a.14.14,0,0,1,.14.15v.42a.14.14,0,0,1-.14.14h-3.33a.14.14,0,0,1-.15-.14Z"/><path class="cls-1" d="M129.43,52.86a.13.13,0,0,1,.14-.15h.58c.13,0,.19,0,.23.15l2.71,8h0v-8a.14.14,0,0,1,.15-.15h.4a.14.14,0,0,1,.15.15v9.52a.14.14,0,0,1-.15.14h-.55a.2.2,0,0,1-.23-.14l-2.74-8h0v8a.14.14,0,0,1-.15.14h-.4a.13.13,0,0,1-.14-.14Z"/><path class="cls-1" d="M135.06,57.62c0-2.87.06-3.26.19-3.68a1.83,1.83,0,0,1,1.92-1.34,1.94,1.94,0,0,1,2,2c0,.1,0,.16-.08.19l-.43.08c-.09,0-.16,0-.16-.11-.12-.92-.54-1.44-1.32-1.44a1.15,1.15,0,0,0-1.21.86,14.17,14.17,0,0,0-.14,3.45c0,2.8,0,3.13.14,3.44a1.15,1.15,0,0,0,1.21.87c.78,0,1.2-.52,1.32-1.46a.11.11,0,0,1,.16-.1l.43.09c.08,0,.1.09.08.17a1.94,1.94,0,0,1-2,2,1.83,1.83,0,0,1-1.92-1.34C135.12,60.88,135.06,60.49,135.06,57.62Z"/><path class="cls-1" d="M140,52.86a.14.14,0,0,1,.15-.15h.46a.14.14,0,0,1,.14.15v9.52a.14.14,0,0,1-.14.14h-.46a.14.14,0,0,1-.15-.14Z"/><path class="cls-1" d="M143.62,52.86c0-.09.07-.15.16-.15h.47a.16.16,0,0,1,.16.15l2,9.52a.12.12,0,0,1-.13.14h-.46a.15.15,0,0,1-.16-.14L145.19,60H142.8l-.5,2.35c0,.08-.05.14-.14.14h-.46c-.09,0-.16-.06-.15-.14ZM145,59.35l-1-5h0l-1.05,5Z"/><path class="cls-1" d="M149.3,52.86a.14.14,0,0,1,.14-.15h1.76a2,2,0,0,1,2.14,1.46,12,12,0,0,1,.23,3.45,12,12,0,0,1-.23,3.44,2,2,0,0,1-2.14,1.46h-1.76a.14.14,0,0,1-.14-.14Zm.84,9h1a1.37,1.37,0,0,0,1.5-1,11.78,11.78,0,0,0,.2-3.2,11.67,11.67,0,0,0-.2-3.2,1.38,1.38,0,0,0-1.5-1h-1a.08.08,0,0,0-.09.09v8.22C150.05,61.79,150.08,61.81,150.14,61.81Z"/><path class="cls-1" d="M154.82,52.86a.14.14,0,0,1,.15-.15h3.33a.14.14,0,0,1,.14.15v.42a.14.14,0,0,1-.14.14h-2.64a.08.08,0,0,0-.09.09v3.6a.08.08,0,0,0,.09.09H158a.14.14,0,0,1,.14.14v.42a.14.14,0,0,1-.14.15h-2.31c-.06,0-.09,0-.09.08v3.74c0,.06,0,.08.09.08h2.64a.14.14,0,0,1,.14.15v.42a.14.14,0,0,1-.14.14H155a.14.14,0,0,1-.15-.14Z"/><path class="cls-1" d="M161.56,62.52a.14.14,0,0,1-.15-.14V52.86a.14.14,0,0,1,.15-.15H163c1.72,0,2.51.8,2.51,2.85s-.81,2.85-2.51,2.85h-.72a.08.08,0,0,0-.09.09v3.88a.14.14,0,0,1-.14.14Zm3.17-7c0-1.56-.48-2.14-1.76-2.14h-.72a.08.08,0,0,0-.09.09v4.11c0,.06,0,.08.09.08H163C164.25,57.7,164.73,57.13,164.73,55.56Z"/><path class="cls-1" d="M170,62.52a.14.14,0,0,1-.15-.1l-1.27-4.33a3.86,3.86,0,0,1-.61,0h-.68a.07.07,0,0,0-.08.08v4.16a.14.14,0,0,1-.15.14h-.46a.13.13,0,0,1-.14-.14V52.86a.13.13,0,0,1,.14-.15H168c1.71,0,2.49.73,2.49,2.72,0,1.37-.43,2.13-1.21,2.48l1.33,4.47c0,.08,0,.14-.07.14Zm-.26-7.09c0-1.52-.49-2-1.68-2h-.77c-.05,0-.08,0-.08.09v3.85c0,.06,0,.08.08.08H168C169.19,57.44,169.7,57,169.7,55.43Z"/><path class="cls-1" d="M171.42,52.86a.14.14,0,0,1,.14-.15h3.34a.14.14,0,0,1,.14.15v.42a.14.14,0,0,1-.14.14h-2.64a.08.08,0,0,0-.09.09v3.6a.08.08,0,0,0,.09.09h2.3a.14.14,0,0,1,.15.14v.42a.14.14,0,0,1-.15.15h-2.3c-.06,0-.09,0-.09.08v3.74c0,.06,0,.08.09.08h2.64A.14.14,0,0,1,175,62v.42a.14.14,0,0,1-.14.14h-3.34a.14.14,0,0,1-.14-.14Z"/><path class="cls-1" d="M175.76,57.62c0-2.87,0-3.25.19-3.68a1.88,1.88,0,0,1,2-1.34A2,2,0,0,1,180,54.53a.16.16,0,0,1-.1.19l-.42.09c-.1,0-.16,0-.17-.11-.13-.86-.55-1.39-1.42-1.39a1.2,1.2,0,0,0-1.25.86c-.1.33-.15.64-.15,3.45s0,3.11.15,3.44a1.36,1.36,0,0,0,2.54,0,10.81,10.81,0,0,0,.14-2.87.07.07,0,0,0-.08-.08H178.1A.14.14,0,0,1,178,58v-.4a.13.13,0,0,1,.15-.14h1.84a.13.13,0,0,1,.15.14V58c0,2.54-.05,2.91-.19,3.35a2.13,2.13,0,0,1-4,0C175.8,60.86,175.76,60.49,175.76,57.62Z"/><path class="cls-1" d="M184.82,62.52a.15.15,0,0,1-.16-.1l-1.27-4.33a3.86,3.86,0,0,1-.61,0h-.67c-.06,0-.09,0-.09.08v4.16a.14.14,0,0,1-.14.14h-.47a.14.14,0,0,1-.14-.14V52.86a.14.14,0,0,1,.14-.15h1.4c1.72,0,2.5.73,2.5,2.72,0,1.37-.43,2.13-1.21,2.48l1.32,4.47c0,.08,0,.14-.07.14Zm-.26-7.09c0-1.52-.49-2-1.69-2h-.76a.08.08,0,0,0-.09.09v3.85c0,.06,0,.08.09.08h.76C184,57.44,184.56,57,184.56,55.43Z"/><path class="cls-1" d="M187.72,52.86c0-.09.07-.15.15-.15h.48c.09,0,.14.06.16.15l2,9.52a.12.12,0,0,1-.13.14h-.46a.15.15,0,0,1-.16-.14L189.29,60h-2.4l-.49,2.35c0,.08-.05.14-.14.14h-.46c-.09,0-.16-.06-.15-.14Zm1.42,6.49-1-5h0l-1.05,5Z"/><path class="cls-1" d="M191.31,52.86a.13.13,0,0,1,.14-.15h1.76a2,2,0,0,1,2.13,1.46,11.45,11.45,0,0,1,.24,3.45,11.45,11.45,0,0,1-.24,3.44,2,2,0,0,1-2.13,1.46h-1.76a.13.13,0,0,1-.14-.14Zm.83,9h1a1.36,1.36,0,0,0,1.5-1,11.11,11.11,0,0,0,.21-3.2,11,11,0,0,0-.21-3.2,1.37,1.37,0,0,0-1.5-1h-1s-.08,0-.08.09v8.22C192.06,61.79,192.09,61.81,192.14,61.81Z"/><path class="cls-1" d="M196.86,61.3c-.15-.44-.19-.81-.19-3.68s0-3.25.19-3.68a2.13,2.13,0,0,1,3.95,0c.14.43.19.81.19,3.68s-.05,3.24-.19,3.68a2.13,2.13,0,0,1-3.95,0Zm3.23-.24c.1-.33.16-.63.16-3.44s-.06-3.12-.16-3.45a1.35,1.35,0,0,0-2.51,0,14.17,14.17,0,0,0-.14,3.45c0,2.81,0,3.11.14,3.44a1.34,1.34,0,0,0,2.51,0Z"/><path class="cls-1" d="M43,45.39a.15.15,0,0,1,.15-.17l.4,0c.1,0,.16,0,.16.13a2.94,2.94,0,0,0,.09,1,1,1,0,0,0,1,.72,1,1,0,0,0,1-.69A6.75,6.75,0,0,0,46,44.48a6.75,6.75,0,0,0-.11-1.83,1,1,0,0,0-1-.71,1.14,1.14,0,0,0-1,.55.21.21,0,0,1-.22.13H43.3a.14.14,0,0,1-.14-.14V37.9a.14.14,0,0,1,.14-.14h3.3a.14.14,0,0,1,.15.14v.39a.14.14,0,0,1-.15.15H43.91c-.06,0-.09,0-.09.08v3.26h0A1.45,1.45,0,0,1,45,41.26a1.54,1.54,0,0,1,1.62,1.11,7.25,7.25,0,0,1,.13,2.11,6.31,6.31,0,0,1-.15,2,1.6,1.6,0,0,1-1.7,1.17,1.67,1.67,0,0,1-1.73-1.18A3.57,3.57,0,0,1,43,45.39Z"/><path class="cls-1" d="M51.9,37.9c0-.08.07-.14.16-.14h.47a.15.15,0,0,1,.16.14l2,9.52a.12.12,0,0,1-.13.15h-.46a.15.15,0,0,1-.16-.15l-.49-2.35H51.08l-.5,2.35c0,.09,0,.15-.14.15H50a.14.14,0,0,1-.15-.15Zm1.42,6.49-1-5h0l-1.05,5Z"/><path class="cls-1" d="M55.69,37.9a.14.14,0,0,1,.14-.14h.58c.13,0,.19,0,.23.14l2.71,8h0v-8a.13.13,0,0,1,.14-.14h.4a.14.14,0,0,1,.15.14v9.52a.14.14,0,0,1-.15.15H59.4c-.13,0-.19,0-.23-.15l-2.74-8h0v8a.14.14,0,0,1-.14.15h-.41a.14.14,0,0,1-.14-.15ZM57.74,36a.82.82,0,0,0-.48-.23c-.23,0-.37.14-.56.41-.07.08-.17.06-.17,0v-.43a.3.3,0,0,1,.11-.23.8.8,0,0,1,.64-.35,1.11,1.11,0,0,1,.66.29c.17.14.29.25.46.25s.39-.15.58-.42c.06-.08.16-.06.16,0v.43a.28.28,0,0,1-.1.23.84.84,0,0,1-.65.35A.93.93,0,0,1,57.74,36Z"/><path class="cls-1" d="M61.72,46.34c-.15-.43-.19-.81-.19-3.68s0-3.24.19-3.67a2.13,2.13,0,0,1,4,0c.14.43.19.8.19,3.67s0,3.25-.19,3.68a2.13,2.13,0,0,1-4,0ZM65,46.11c.1-.33.16-.63.16-3.45s-.06-3.11-.16-3.44a1.34,1.34,0,0,0-2.51,0c-.1.33-.15.63-.15,3.44s.05,3.12.15,3.45a1.34,1.34,0,0,0,2.51,0Z"/><path class="cls-1" d="M69,47.68c-1.35,0-2-.81-2.1-2.46,0-.09,0-.15.1-.16l.43-.09c.12,0,.16,0,.16.12.1,1.42.56,1.9,1.43,1.9s1.33-.42,1.33-2c0-1.24-.31-1.72-1.09-2l-.59-.23c-1.29-.51-1.66-1.14-1.66-2.63s.67-2.43,2-2.43,1.95.73,2,2.26c0,.09,0,.13-.1.16l-.41.07c-.11,0-.16,0-.16-.12,0-1.15-.44-1.68-1.3-1.68s-1.27.5-1.27,1.71.29,1.57,1.1,1.89l.59.23c1.22.49,1.64,1.11,1.64,2.7C71.12,46.89,70.5,47.68,69,47.68Z"/><path class="cls-1" d="M75.88,37.79a.15.15,0,0,1,.16-.14h.33a.12.12,0,0,1,.13.14l-1.8,9.75a.15.15,0,0,1-.16.14h-.32a.12.12,0,0,1-.13-.14Z"/><path class="cls-1" d="M79.82,37.9a.13.13,0,0,1,.14-.14h.46a.14.14,0,0,1,.15.14v4.19a.07.07,0,0,0,.08.08h2.58c.06,0,.09,0,.09-.08V37.9a.14.14,0,0,1,.15-.14h.46a.14.14,0,0,1,.14.14v9.52a.14.14,0,0,1-.14.15h-.46a.14.14,0,0,1-.15-.15V43a.08.08,0,0,0-.09-.09H80.65c-.05,0-.08,0-.08.09v4.45a.14.14,0,0,1-.15.15H80a.13.13,0,0,1-.14-.15Z"/><path class="cls-1" d="M87.11,37.9c0-.08.08-.14.16-.14h.48a.16.16,0,0,1,.16.14l2,9.52a.13.13,0,0,1-.13.15h-.47c-.1,0-.14-.06-.15-.15l-.49-2.35h-2.4l-.49,2.35c0,.09-.06.15-.14.15H85.2a.14.14,0,0,1-.15-.15Zm1.43,6.49-1-5h0l-1,5Z"/><path class="cls-1" d="M92.65,47.68c-1.35,0-2-.81-2.1-2.46,0-.09,0-.15.1-.16l.43-.09c.11,0,.16,0,.16.12.1,1.42.56,1.9,1.43,1.9S94,46.57,94,45c0-1.24-.3-1.72-1.08-2l-.59-.23c-1.3-.51-1.66-1.14-1.66-2.63s.67-2.43,2-2.43,1.95.73,2,2.26c0,.09,0,.13-.1.16l-.42.07A.11.11,0,0,1,94,40c0-1.15-.43-1.68-1.29-1.68s-1.27.5-1.27,1.71.29,1.57,1.09,1.89l.59.23c1.23.49,1.65,1.11,1.65,2.7C94.73,46.89,94.11,47.68,92.65,47.68Z"/><path class="cls-1" d="M97.37,47.57a.14.14,0,0,1-.15-.15V38.55a.07.07,0,0,0-.08-.08H95.41a.14.14,0,0,1-.15-.15V37.9a.14.14,0,0,1,.15-.14h4.38a.13.13,0,0,1,.14.14v.42a.13.13,0,0,1-.14.15H98.06c-.06,0-.09,0-.09.08v8.87a.13.13,0,0,1-.14.15Z"/><path class="cls-1" d="M102.26,37.9c0-.08.07-.14.16-.14h.47a.15.15,0,0,1,.16.14l2,9.52a.12.12,0,0,1-.13.15h-.46a.15.15,0,0,1-.16-.15l-.49-2.35h-2.4l-.49,2.35c0,.09,0,.15-.14.15h-.46a.14.14,0,0,1-.15-.15Zm1.42,6.49-1-5h0l-1,5Z"/><path class="cls-1" d="M108.34,37.9a.14.14,0,0,1,.15-.14h3.33a.14.14,0,0,1,.14.14v.42a.14.14,0,0,1-.14.15h-2.64c-.06,0-.09,0-.09.08v3.61a.08.08,0,0,0,.09.09h2.31a.13.13,0,0,1,.14.14v.42a.14.14,0,0,1-.14.14h-2.31a.08.08,0,0,0-.09.09v3.73a.08.08,0,0,0,.09.09h2.64A.14.14,0,0,1,112,47v.42a.14.14,0,0,1-.14.15h-3.33a.14.14,0,0,1-.15-.15Z"/><path class="cls-1" d="M113,37.9a.14.14,0,0,1,.15-.14h.57c.13,0,.19,0,.23.14l2.72,8h0v-8a.14.14,0,0,1,.14-.14h.41a.14.14,0,0,1,.14.14v9.52a.14.14,0,0,1-.14.15h-.55c-.13,0-.19,0-.23-.15l-2.74-8h0v8a.14.14,0,0,1-.15.15h-.4a.14.14,0,0,1-.15-.15Z"/><path class="cls-1" d="M119,37.9a.14.14,0,0,1,.15-.14h3.33a.14.14,0,0,1,.14.14v.42a.14.14,0,0,1-.14.15h-2.64c-.06,0-.09,0-.09.08v3.61a.08.08,0,0,0,.09.09h2.31a.13.13,0,0,1,.14.14v.42a.14.14,0,0,1-.14.14h-2.31a.08.08,0,0,0-.09.09v3.73a.08.08,0,0,0,.09.09h2.64a.14.14,0,0,1,.14.14v.42a.14.14,0,0,1-.14.15h-3.33a.14.14,0,0,1-.15-.15Z"/><path class="cls-1" d="M127.29,47.57a.15.15,0,0,1-.16-.1l-1.27-4.33a3.78,3.78,0,0,1-.6,0h-.68a.08.08,0,0,0-.09.09v4.15a.13.13,0,0,1-.14.15h-.46a.14.14,0,0,1-.15-.15V37.9a.14.14,0,0,1,.15-.14h1.4c1.71,0,2.49.72,2.49,2.71,0,1.37-.43,2.14-1.21,2.48l1.33,4.47c0,.09,0,.15-.08.15Zm-.26-7.1c0-1.51-.49-2-1.69-2h-.76c-.06,0-.09,0-.09.08V42.4a.08.08,0,0,0,.09.09h.76C126.51,42.49,127,42,127,40.47Z"/><path class="cls-1" d="M129.24,46.34c-.15-.43-.19-.81-.19-3.68s0-3.24.19-3.67a2.13,2.13,0,0,1,3.95,0c.14.43.19.8.19,3.67s0,3.25-.19,3.68a2.13,2.13,0,0,1-3.95,0Zm3.23-.23c.1-.33.16-.63.16-3.45s-.06-3.11-.16-3.44a1.34,1.34,0,0,0-2.51,0c-.1.33-.15.63-.15,3.44s.05,3.12.15,3.45a1.34,1.34,0,0,0,2.51,0Z"/><path class="cls-1" d="M137.11,37.9a.14.14,0,0,1,.15-.14H139a2,2,0,0,1,2.13,1.46,11.94,11.94,0,0,1,.23,3.44,12.08,12.08,0,0,1-.23,3.45A2,2,0,0,1,139,47.57h-1.76a.14.14,0,0,1-.15-.15Zm.84,9h1a1.38,1.38,0,0,0,1.5-1,11.67,11.67,0,0,0,.2-3.2,11.78,11.78,0,0,0-.2-3.2,1.37,1.37,0,0,0-1.5-1h-1c-.06,0-.09,0-.09.08v8.22A.08.08,0,0,0,138,46.86Z"/><path class="cls-1" d="M142.84,37.9a.14.14,0,0,1,.14-.14h3.33a.14.14,0,0,1,.15.14v.42a.14.14,0,0,1-.15.15h-2.64a.07.07,0,0,0-.08.08v3.61c0,.06,0,.09.08.09H146a.13.13,0,0,1,.15.14v.42A.14.14,0,0,1,146,43h-2.31s-.08,0-.08.09v3.73c0,.06,0,.09.08.09h2.64a.14.14,0,0,1,.15.14v.42a.14.14,0,0,1-.15.15H143a.14.14,0,0,1-.14-.15Z"/><path class="cls-1" d="M149.66,47.05a.35.35,0,0,1,.06-.23l2.46-4.91a3.76,3.76,0,0,0,.48-1.91,2.6,2.6,0,0,0-.1-1,1,1,0,0,0-1.06-.72,1,1,0,0,0-1.05.72,3.75,3.75,0,0,0-.08,1.13c0,.1-.06.16-.16.14l-.41,0c-.1,0-.14-.07-.14-.17a3.7,3.7,0,0,1,.13-1.27,1.86,1.86,0,0,1,3.46,0,3.46,3.46,0,0,1,.12,1.17,4.51,4.51,0,0,1-.57,2.26l-2.35,4.61v0h2.77a.14.14,0,0,1,.15.14v.39a.14.14,0,0,1-.15.15H149.8a.14.14,0,0,1-.14-.15Z"/><path class="cls-1" d="M154.62,42.66c0-3.11.06-3.52.16-3.83a1.87,1.87,0,0,1,3.47,0c.11.31.16.72.16,3.83s0,3.52-.16,3.82a1.85,1.85,0,0,1-3.47,0C154.68,46.18,154.62,45.78,154.62,42.66Zm1.9,4.34a1,1,0,0,0,1-.73c.09-.25.13-.61.13-3.61s0-3.36-.13-3.6a1,1,0,0,0-1-.74,1,1,0,0,0-1.05.74c-.09.24-.13.59-.13,3.6s0,3.36.13,3.61A1,1,0,0,0,156.52,47Z"/><path class="cls-1" d="M159.64,47.05a.35.35,0,0,1,.06-.23l2.46-4.91a3.76,3.76,0,0,0,.48-1.91,2.6,2.6,0,0,0-.1-1,1,1,0,0,0-1.06-.72,1,1,0,0,0-1,.72,3.75,3.75,0,0,0-.08,1.13c0,.1-.06.16-.16.14l-.41,0c-.1,0-.14-.07-.14-.17a3.7,3.7,0,0,1,.13-1.27,1.86,1.86,0,0,1,3.46,0,3.46,3.46,0,0,1,.12,1.17,4.51,4.51,0,0,1-.57,2.26l-2.35,4.61v0h2.77a.14.14,0,0,1,.15.14v.39a.14.14,0,0,1-.15.15h-3.42a.14.14,0,0,1-.14-.15Z"/><path class="cls-1" d="M164.64,44.8a5.72,5.72,0,0,1,.47-2.8l1.6-4.11a.15.15,0,0,1,.17-.13h.47c.11,0,.14,0,.09.14l-1.61,4.19v0a1.25,1.25,0,0,1,.75-.2,1.59,1.59,0,0,1,1.64,1.17,5.66,5.66,0,0,1,.12,1.72,5.31,5.31,0,0,1-.12,1.68,1.85,1.85,0,0,1-3.47,0A5.31,5.31,0,0,1,164.64,44.8ZM166.5,47a1,1,0,0,0,1.06-.72,5.74,5.74,0,0,0,.08-1.48,5.92,5.92,0,0,0-.08-1.49,1,1,0,0,0-1.06-.72,1,1,0,0,0-1.05.72,4.5,4.5,0,0,0-.1,1.49,4.37,4.37,0,0,0,.1,1.48A1,1,0,0,0,166.5,47Z"/></svg>