<?xml version="1.0" encoding="utf-8"?>
<!-- Generator: Adobe Illustrator 19.2.0, SVG Export Plug-In . SVG Version: 6.00 Build 0)  -->
<svg version="1.1" id="Capa_1" xmlns="http://www.w3.org/2000/svg" xmlns:xlink="http://www.w3.org/1999/xlink" x="0px" y="0px"
	 width="16.5px" height="16.5px" viewBox="0 0 16.5 16.5" style="enable-background:new 0 0 16.5 16.5;" xml:space="preserve">
<style type="text/css">
	.st0{fill:#FFFFFF;}
</style>
<path class="st0" d="M9.8,11.2c2.5,0,4.5-2,4.5-4.5s-2-4.5-4.5-4.5s-4.5,2-4.5,4.5S7.3,11.2,9.8,11.2z M0.4,14.2L4,10.6
	c0,0,0.1,0,0.1-0.1C3.3,9.4,2.9,8.2,2.9,6.8C2.9,3.1,6,0,9.7,0s6.8,3.1,6.8,6.8s-3.1,6.8-6.8,6.8c-1.4,0-2.6-0.4-3.7-1.2
	c0,0,0,0.1-0.1,0.1l-3.6,3.6c-0.6,0.6-1.4,0.6-2,0C-0.1,15.6-0.1,14.6,0.4,14.2z"/>
</svg>
