<?xml version="1.0" encoding="utf-8"?>
<!-- Generator: Adobe Illustrator 26.1.0, SVG Export Plug-In . SVG Version: 6.00 Build 0)  -->
<svg version="1.0" id="Capa_1" xmlns="http://www.w3.org/2000/svg" xmlns:xlink="http://www.w3.org/1999/xlink" x="0px" y="0px"
	 viewBox="0 0 196.3 56.8" enable-background="new 0 0 196.3 56.8" xml:space="preserve">
<g>
	<path fill="#FFFFFF" d="M0.2,7.3c0-2.5,0.1-2.9,0.2-3.3c0.3-0.9,1-1.4,2.1-1.4c1.3,0,2.1,0.7,2.2,2.2c0,0.1,0,0.1-0.1,0.2L3.4,5.2
		c-0.1,0-0.1,0-0.1-0.1C3.3,4.3,3,4,2.5,4C2.1,4,1.8,4.1,1.7,4.5C1.7,4.7,1.6,4.9,1.6,7.3c0,2.5,0,2.7,0.1,2.9
		c0.1,0.3,0.3,0.5,0.7,0.5c0.5,0,0.8-0.3,0.8-1.1c0-0.1,0.1-0.1,0.1-0.1l1.1,0.2c0.1,0,0.1,0.1,0.1,0.2C4.5,11.3,3.7,12,2.4,12
		c-1.1,0-1.8-0.5-2.1-1.4C0.2,10.2,0.2,9.9,0.2,7.3z"/>
	<path fill="#FFFFFF" d="M5.5,2.9c0-0.1,0.1-0.1,0.1-0.1h3.7c0.1,0,0.1,0.1,0.1,0.1v1c0,0.1-0.1,0.1-0.1,0.1H7C7,4.1,7,4.1,7,4.2
		v2.4C7,6.6,7,6.6,7,6.6h2c0.1,0,0.1,0.1,0.1,0.1v1c0,0.1-0.1,0.1-0.1,0.1H7C7,7.9,7,8,7,8v2.5c0,0.1,0,0.1,0.1,0.1h2.4
		c0.1,0,0.1,0.1,0.1,0.1v1c0,0.1-0.1,0.1-0.1,0.1H5.7c-0.1,0-0.1-0.1-0.1-0.1V2.9z"/>
	<path fill="#FFFFFF" d="M10.6,2.9c0-0.1,0.1-0.1,0.1-0.1h1.4c0.1,0,0.2,0,0.2,0.1l1.7,6.3h0.1V2.9c0-0.1,0.1-0.1,0.1-0.1h1
		c0.1,0,0.1,0.1,0.1,0.1v8.8c0,0.1-0.1,0.1-0.1,0.1h-1.3c-0.1,0-0.2,0-0.2-0.1L12,5.5h-0.1v6.3c0,0.1-0.1,0.1-0.1,0.1h-1
		c-0.1,0-0.1-0.1-0.1-0.1V2.9z"/>
	<path fill="#FFFFFF" d="M18,11.9c-0.1,0-0.1-0.1-0.1-0.1V4.2c0-0.1,0-0.1-0.1-0.1h-1.4c-0.1,0-0.1-0.1-0.1-0.1v-1
		c0-0.1,0.1-0.1,0.1-0.1h4.4c0.1,0,0.1,0.1,0.1,0.1v1c0,0.1-0.1,0.1-0.1,0.1h-1.4c-0.1,0-0.1,0-0.1,0.1v7.6c0,0.1-0.1,0.1-0.1,0.1
		H18z"/>
	<path fill="#FFFFFF" d="M25.3,11.9c-0.1,0-0.1,0-0.1-0.1L24,8.2h-0.2h-0.5c-0.1,0-0.1,0-0.1,0.1v3.5c0,0.1-0.1,0.1-0.1,0.1H22
		c-0.1,0-0.1-0.1-0.1-0.1V2.9c0-0.1,0.1-0.1,0.1-0.1h1.8c1.6,0,2.6,0.7,2.6,2.7c0,1.2-0.4,1.9-1.1,2.3l1.3,3.9c0,0.1,0,0.1-0.1,0.1
		H25.3z M25,5.5c0-1.1-0.3-1.4-1.2-1.4h-0.5c-0.1,0-0.1,0-0.1,0.1v2.7c0,0.1,0,0.1,0.1,0.1h0.5C24.6,6.9,25,6.6,25,5.5z"/>
	<path fill="#FFFFFF" d="M27.7,10.6c-0.1-0.4-0.2-0.7-0.2-3.3c0-2.5,0-2.9,0.2-3.3c0.3-0.9,1-1.4,2.2-1.4c1.1,0,1.8,0.5,2.1,1.4
		c0.1,0.4,0.2,0.7,0.2,3.3c0,2.5,0,2.9-0.2,3.3c-0.3,0.9-1,1.4-2.1,1.4C28.7,12,28,11.5,27.7,10.6z M30.6,10.2
		c0.1-0.3,0.1-0.4,0.1-2.9c0-2.5,0-2.6-0.1-2.9C30.5,4.2,30.2,4,29.8,4c-0.4,0-0.7,0.2-0.8,0.5C29,4.7,29,4.8,29,7.3
		c0,2.5,0,2.6,0.1,2.9c0.1,0.3,0.4,0.5,0.8,0.5C30.2,10.7,30.5,10.5,30.6,10.2z"/>
	<path fill="#FFFFFF" d="M36,2.9c0-0.1,0.1-0.1,0.1-0.1h2.1c1.2,0,1.9,0.5,2.2,1.5c0.2,0.5,0.2,1.1,0.2,3.1c0,2-0.1,2.6-0.2,3.1
		c-0.3,1-1,1.5-2.2,1.5h-2.1c-0.1,0-0.1-0.1-0.1-0.1V2.9z M37.5,10.6h0.6c0.5,0,0.8-0.2,1-0.7c0.1-0.3,0.2-0.8,0.2-2.6
		c0-1.8-0.1-2.3-0.2-2.6c-0.2-0.5-0.5-0.7-1-0.7h-0.6c-0.1,0-0.1,0-0.1,0.1L37.5,10.6C37.5,10.6,37.5,10.6,37.5,10.6z"/>
	<path fill="#FFFFFF" d="M42,2.9c0-0.1,0.1-0.1,0.1-0.1h3.7c0.1,0,0.1,0.1,0.1,0.1v1c0,0.1-0.1,0.1-0.1,0.1h-2.4
		c-0.1,0-0.1,0-0.1,0.1v2.4c0,0.1,0,0.1,0.1,0.1h2c0.1,0,0.1,0.1,0.1,0.1v1c0,0.1-0.1,0.1-0.1,0.1h-2c-0.1,0-0.1,0-0.1,0.1v2.5
		c0,0.1,0,0.1,0.1,0.1h2.4c0.1,0,0.1,0.1,0.1,0.1v1c0,0.1-0.1,0.1-0.1,0.1h-3.7c-0.1,0-0.1-0.1-0.1-0.1V2.9z"/>
	<path fill="#FFFFFF" d="M49.7,2.9c0-0.1,0.1-0.1,0.1-0.1h3.7c0.1,0,0.1,0.1,0.1,0.1v1c0,0.1-0.1,0.1-0.1,0.1h-2.4
		c-0.1,0-0.1,0-0.1,0.1v2.5c0,0.1,0,0.1,0.1,0.1h2c0.1,0,0.1,0.1,0.1,0.1v1C53.3,8,53.3,8,53.2,8h-2c-0.1,0-0.1,0-0.1,0.1v3.7
		c0,0.1-0.1,0.1-0.1,0.1h-1.2c-0.1,0-0.1-0.1-0.1-0.1V2.9z"/>
	<path fill="#FFFFFF" d="M54.7,10.6c-0.1-0.4-0.2-0.7-0.2-3.3c0-2.5,0-2.9,0.2-3.3c0.3-0.9,1-1.4,2.2-1.4c1.1,0,1.8,0.5,2.1,1.4
		c0.1,0.4,0.2,0.7,0.2,3.3c0,2.5,0,2.9-0.2,3.3c-0.3,0.9-1,1.4-2.1,1.4C55.7,12,55,11.5,54.7,10.6z M57.6,10.2
		c0.1-0.3,0.1-0.4,0.1-2.9c0-2.5,0-2.6-0.1-2.9C57.5,4.2,57.2,4,56.9,4c-0.4,0-0.7,0.2-0.8,0.5C56,4.7,56,4.8,56,7.3
		c0,2.5,0,2.6,0.1,2.9c0.1,0.3,0.4,0.5,0.8,0.5C57.2,10.7,57.5,10.5,57.6,10.2z"/>
	<path fill="#FFFFFF" d="M63.9,11.9c-0.1,0-0.1,0-0.1-0.1l-1.1-3.6h-0.2H62c-0.1,0-0.1,0-0.1,0.1v3.5c0,0.1-0.1,0.1-0.1,0.1h-1.2
		c-0.1,0-0.1-0.1-0.1-0.1V2.9c0-0.1,0.1-0.1,0.1-0.1h1.8C64,2.8,65,3.5,65,5.5c0,1.2-0.4,1.9-1.1,2.3l1.3,3.9c0,0.1,0,0.1-0.1,0.1
		H63.9z M63.6,5.5c0-1.1-0.3-1.4-1.2-1.4H62c-0.1,0-0.1,0-0.1,0.1v2.7c0,0.1,0,0.1,0.1,0.1h0.5C63.2,6.9,63.6,6.6,63.6,5.5z"/>
	<path fill="#FFFFFF" d="M66.3,2.9c0-0.1,0.1-0.1,0.1-0.1h1.2c0.1,0,0.2,0,0.2,0.1l1.5,5.1h0.1l1.5-5.1c0-0.1,0.1-0.1,0.2-0.1h1.2
		c0.1,0,0.1,0.1,0.1,0.1v8.8c0,0.1-0.1,0.1-0.1,0.1h-1c-0.1,0-0.1-0.1-0.1-0.1V6H71l-1.2,4.1c0,0.1-0.1,0.1-0.2,0.1H69
		c-0.1,0-0.1-0.1-0.2-0.1L67.7,6h-0.1v5.8c0,0.1-0.1,0.1-0.1,0.1h-1c-0.1,0-0.1-0.1-0.1-0.1V2.9z"/>
	<path fill="#FFFFFF" d="M75.2,2.9c0-0.1,0.1-0.1,0.1-0.1h1.1c0.1,0,0.1,0.1,0.1,0.1l1.9,8.8c0,0.1,0,0.1-0.1,0.1h-1.1
		c-0.1,0-0.1-0.1-0.1-0.1l-0.4-1.8H75l-0.4,1.8c0,0.1-0.1,0.1-0.1,0.1h-1.1c-0.1,0-0.1-0.1-0.1-0.1L75.2,2.9z M76.6,8.7l-0.6-3.4h0
		l-0.7,3.4H76.6z"/>
	<path fill="#FFFFFF" d="M79,7.3c0-2.5,0.1-2.9,0.2-3.3c0.3-0.9,1-1.4,2.1-1.4c1.3,0,2.1,0.7,2.2,2.2c0,0.1,0,0.1-0.1,0.2l-1.1,0.2
		c-0.1,0-0.1,0-0.1-0.1c0-0.8-0.3-1.1-0.8-1.1c-0.4,0-0.6,0.2-0.7,0.5c-0.1,0.2-0.1,0.4-0.1,2.9c0,2.5,0,2.7,0.1,2.9
		c0.1,0.3,0.3,0.5,0.7,0.5c0.5,0,0.8-0.3,0.8-1.1c0-0.1,0.1-0.1,0.1-0.1l1.1,0.2c0.1,0,0.1,0.1,0.1,0.2c-0.1,1.5-0.9,2.2-2.2,2.2
		c-1.1,0-1.8-0.5-2.1-1.4C79.1,10.2,79,9.9,79,7.3z"/>
	<path fill="#FFFFFF" d="M84.4,2.9c0-0.1,0.1-0.1,0.1-0.1h1.2c0.1,0,0.1,0.1,0.1,0.1v8.8c0,0.1-0.1,0.1-0.1,0.1h-1.2
		c-0.1,0-0.1-0.1-0.1-0.1V2.9z"/>
	<path fill="#FFFFFF" d="M87.3,10.6c-0.1-0.4-0.2-0.7-0.2-3.3c0-2.5,0-2.9,0.2-3.3c0.3-0.9,1-1.4,2.2-1.4c1.1,0,1.8,0.5,2.1,1.4
		c0.1,0.4,0.2,0.7,0.2,3.3c0,2.5,0,2.9-0.2,3.3c-0.3,0.9-1,1.4-2.1,1.4C88.3,12,87.6,11.5,87.3,10.6z M90.2,10.2
		c0.1-0.3,0.1-0.4,0.1-2.9c0-2.5,0-2.6-0.1-2.9C90.1,4.2,89.8,4,89.4,4c-0.4,0-0.7,0.2-0.8,0.5c-0.1,0.3-0.1,0.4-0.1,2.9
		c0,2.5,0,2.6,0.1,2.9c0.1,0.3,0.4,0.5,0.8,0.5C89.8,10.7,90.1,10.5,90.2,10.2z M88.9,1.7c-0.1,0-0.1-0.1-0.1-0.1l1-1.4
		C89.9,0,89.9,0,90,0h1.1c0.1,0,0.1,0.1,0.1,0.1l-1.3,1.4c-0.1,0.1-0.2,0.1-0.3,0.1H88.9z"/>
	<path fill="#FFFFFF" d="M93,2.9c0-0.1,0.1-0.1,0.1-0.1h1.4c0.1,0,0.2,0,0.2,0.1l1.7,6.3h0.1V2.9c0-0.1,0.1-0.1,0.1-0.1h1
		c0.1,0,0.1,0.1,0.1,0.1v8.8c0,0.1-0.1,0.1-0.1,0.1h-1.3c-0.1,0-0.2,0-0.2-0.1l-1.8-6.3h-0.1v6.3c0,0.1-0.1,0.1-0.1,0.1h-1
		c-0.1,0-0.1-0.1-0.1-0.1V2.9z"/>
	<path fill="#FFFFFF" d="M102.8,11.9c-0.1,0-0.1-0.1-0.1-0.1V4.2c0-0.1,0-0.1-0.1-0.1h-1.4c-0.1,0-0.1-0.1-0.1-0.1v-1
		c0-0.1,0.1-0.1,0.1-0.1h4.4c0.1,0,0.1,0.1,0.1,0.1v1c0,0.1-0.1,0.1-0.1,0.1h-1.4c-0.1,0-0.1,0-0.1,0.1v7.6c0,0.1-0.1,0.1-0.1,0.1
		H102.8z"/>
	<path fill="#FFFFFF" d="M106.7,2.9c0-0.1,0.1-0.1,0.1-0.1h3.7c0.1,0,0.1,0.1,0.1,0.1v1c0,0.1-0.1,0.1-0.1,0.1h-2.4
		c-0.1,0-0.1,0-0.1,0.1v2.4c0,0.1,0,0.1,0.1,0.1h2c0.1,0,0.1,0.1,0.1,0.1v1c0,0.1-0.1,0.1-0.1,0.1h-2c-0.1,0-0.1,0-0.1,0.1v2.5
		c0,0.1,0,0.1,0.1,0.1h2.4c0.1,0,0.1,0.1,0.1,0.1v1c0,0.1-0.1,0.1-0.1,0.1h-3.7c-0.1,0-0.1-0.1-0.1-0.1V2.9z M108.2,1.7
		c-0.1,0-0.1-0.1-0.1-0.1l1-1.4c0.1-0.1,0.1-0.1,0.2-0.1h1.1c0.1,0,0.1,0.1,0.1,0.1l-1.3,1.4c-0.1,0.1-0.2,0.1-0.3,0.1H108.2z"/>
	<path fill="#FFFFFF" d="M111.6,7.3c0-2.5,0.1-2.9,0.2-3.3c0.3-0.9,1-1.4,2.1-1.4c1.3,0,2.1,0.7,2.2,2.2c0,0.1,0,0.1-0.1,0.2
		l-1.1,0.2c-0.1,0-0.1,0-0.1-0.1c0-0.8-0.3-1.1-0.8-1.1c-0.4,0-0.6,0.2-0.7,0.5c-0.1,0.2-0.1,0.4-0.1,2.9c0,2.5,0,2.7,0.1,2.9
		c0.1,0.3,0.3,0.5,0.7,0.5c0.5,0,0.8-0.3,0.8-1.1c0-0.1,0.1-0.1,0.1-0.1l1.1,0.2c0.1,0,0.1,0.1,0.1,0.2c-0.1,1.5-0.9,2.2-2.2,2.2
		c-1.1,0-1.8-0.5-2.1-1.4C111.7,10.2,111.6,9.9,111.6,7.3z"/>
	<path fill="#FFFFFF" d="M116.9,2.9c0-0.1,0.1-0.1,0.1-0.1h1.4c0.1,0,0.2,0,0.2,0.1l1.7,6.3h0.1V2.9c0-0.1,0.1-0.1,0.1-0.1h1
		c0.1,0,0.1,0.1,0.1,0.1v8.8c0,0.1-0.1,0.1-0.1,0.1h-1.3c-0.1,0-0.2,0-0.2-0.1l-1.8-6.3h-0.1v6.3c0,0.1-0.1,0.1-0.1,0.1h-1
		c-0.1,0-0.1-0.1-0.1-0.1V2.9z"/>
	<path fill="#FFFFFF" d="M123.1,2.9c0-0.1,0.1-0.1,0.1-0.1h1.2c0.1,0,0.1,0.1,0.1,0.1v8.8c0,0.1-0.1,0.1-0.1,0.1h-1.2
		c-0.1,0-0.1-0.1-0.1-0.1V2.9z"/>
	<path fill="#FFFFFF" d="M125.8,7.3c0-2.5,0.1-2.9,0.2-3.3c0.3-0.9,1-1.4,2.1-1.4c1.3,0,2.1,0.7,2.2,2.2c0,0.1,0,0.1-0.1,0.2
		l-1.1,0.2c-0.1,0-0.1,0-0.1-0.1c0-0.8-0.3-1.1-0.8-1.1c-0.4,0-0.6,0.2-0.7,0.5c-0.1,0.2-0.1,0.4-0.1,2.9c0,2.5,0,2.7,0.1,2.9
		c0.1,0.3,0.3,0.5,0.7,0.5c0.5,0,0.8-0.3,0.8-1.1c0-0.1,0.1-0.1,0.1-0.1l1.1,0.2c0.1,0,0.1,0.1,0.1,0.2c-0.1,1.5-0.9,2.2-2.2,2.2
		c-1.1,0-1.8-0.5-2.1-1.4C125.9,10.2,125.8,9.9,125.8,7.3z"/>
	<path fill="#FFFFFF" d="M132.5,2.9c0-0.1,0.1-0.1,0.1-0.1h1.1c0.1,0,0.1,0.1,0.1,0.1l1.9,8.8c0,0.1,0,0.1-0.1,0.1h-1.1
		c-0.1,0-0.1-0.1-0.1-0.1l-0.4-1.8h-1.8l-0.4,1.8c0,0.1-0.1,0.1-0.1,0.1h-1.1c-0.1,0-0.1-0.1-0.1-0.1L132.5,2.9z M133.9,8.7
		l-0.6-3.4h0l-0.7,3.4H133.9z"/>
	<path fill="#FFFFFF" d="M141.3,12c-1.5,0-2.2-0.8-2.3-2.4c0-0.1,0-0.1,0.1-0.1l1.1-0.2c0.1,0,0.1,0,0.1,0.1c0,1,0.3,1.3,0.9,1.3
		c0.6,0,0.9-0.3,0.9-1.3c0-1-0.2-1.3-0.9-1.6l-0.5-0.2c-1.3-0.5-1.6-1.2-1.6-2.6c0-1.6,0.7-2.4,2.2-2.4c1.5,0,2.2,0.8,2.2,2.2
		c0,0.1,0,0.1-0.1,0.1l-1.1,0.2c-0.1,0-0.1,0-0.1-0.1c0-0.8-0.3-1.2-0.9-1.2c-0.6,0-0.8,0.3-0.8,1.1c0,0.8,0.2,1.1,0.9,1.4l0.5,0.2
		c1.2,0.5,1.7,1.1,1.7,2.7C143.6,11.1,143,12,141.3,12z"/>
	<path fill="#FFFFFF" d="M146,2.9c0-0.1,0.1-0.1,0.1-0.1h1.1c0.1,0,0.1,0.1,0.1,0.1l1.9,8.8c0,0.1,0,0.1-0.1,0.1h-1.1
		c-0.1,0-0.1-0.1-0.1-0.1l-0.4-1.8h-1.8l-0.4,1.8c0,0.1-0.1,0.1-0.1,0.1h-1.1c-0.1,0-0.1-0.1-0.1-0.1L146,2.9z M147.3,8.7l-0.6-3.4
		h0L146,8.7H147.3z"/>
	<path fill="#FFFFFF" d="M150,2.9c0-0.1,0.1-0.1,0.1-0.1h1.4c0.1,0,0.2,0,0.2,0.1l1.7,6.3h0.1V2.9c0-0.1,0.1-0.1,0.1-0.1h1
		c0.1,0,0.1,0.1,0.1,0.1v8.8c0,0.1-0.1,0.1-0.1,0.1h-1.3c-0.1,0-0.2,0-0.2-0.1l-1.8-6.3h-0.1v6.3c0,0.1-0.1,0.1-0.1,0.1h-1
		c-0.1,0-0.1-0.1-0.1-0.1V2.9z"/>
	<path fill="#FFFFFF" d="M157.2,11.9c-0.1,0-0.1-0.1-0.1-0.1V4.2c0-0.1,0-0.1-0.1-0.1h-1.4c-0.1,0-0.1-0.1-0.1-0.1v-1
		c0-0.1,0.1-0.1,0.1-0.1h4.4c0.1,0,0.1,0.1,0.1,0.1v1c0,0.1-0.1,0.1-0.1,0.1h-1.4c-0.1,0-0.1,0-0.1,0.1v7.6c0,0.1-0.1,0.1-0.1,0.1
		H157.2z"/>
	<path fill="#FFFFFF" d="M160.8,10.6c-0.1-0.4-0.2-0.7-0.2-3.3c0-2.5,0-2.9,0.2-3.3c0.3-0.9,1-1.4,2.2-1.4c1.1,0,1.8,0.5,2.1,1.4
		c0.1,0.4,0.2,0.7,0.2,3.3c0,2.5,0,2.9-0.2,3.3c-0.3,0.9-1,1.4-2.1,1.4C161.9,12,161.1,11.5,160.8,10.6z M163.8,10.2
		c0.1-0.3,0.1-0.4,0.1-2.9c0-2.5,0-2.6-0.1-2.9C163.7,4.2,163.4,4,163,4c-0.4,0-0.7,0.2-0.8,0.5c-0.1,0.3-0.1,0.4-0.1,2.9
		c0,2.5,0,2.6,0.1,2.9c0.1,0.3,0.4,0.5,0.8,0.5C163.4,10.7,163.7,10.5,163.8,10.2z"/>
	<path fill="#FFFFFF" d="M170,11.9c-0.1,0-0.1-0.1-0.1-0.1V4.2c0-0.1,0-0.1-0.1-0.1h-1.4c-0.1,0-0.1-0.1-0.1-0.1v-1
		c0-0.1,0.1-0.1,0.1-0.1h4.4c0.1,0,0.1,0.1,0.1,0.1v1c0,0.1-0.1,0.1-0.1,0.1h-1.4c-0.1,0-0.1,0-0.1,0.1v7.6c0,0.1-0.1,0.1-0.1,0.1
		H170z"/>
	<path fill="#FFFFFF" d="M173.7,10.6c-0.1-0.4-0.2-0.7-0.2-3.3c0-2.5,0-2.9,0.2-3.3c0.3-0.9,1-1.4,2.2-1.4c1.1,0,1.8,0.5,2.1,1.4
		c0.1,0.4,0.2,0.7,0.2,3.3c0,2.5,0,2.9-0.2,3.3c-0.3,0.9-1,1.4-2.1,1.4C174.7,12,174,11.5,173.7,10.6z M176.6,10.2
		c0.1-0.3,0.1-0.4,0.1-2.9c0-2.5,0-2.6-0.1-2.9c-0.1-0.3-0.4-0.5-0.8-0.5c-0.4,0-0.7,0.2-0.8,0.5c-0.1,0.3-0.1,0.4-0.1,2.9
		c0,2.5,0,2.6,0.1,2.9c0.1,0.3,0.4,0.5,0.8,0.5C176.2,10.7,176.5,10.5,176.6,10.2z"/>
	<path fill="#FFFFFF" d="M179.2,2.9c0-0.1,0.1-0.1,0.1-0.1h1.2c0.1,0,0.2,0,0.2,0.1l1.5,5.1h0.1l1.5-5.1c0-0.1,0.1-0.1,0.2-0.1h1.2
		c0.1,0,0.1,0.1,0.1,0.1v8.8c0,0.1-0.1,0.1-0.1,0.1h-1c-0.1,0-0.1-0.1-0.1-0.1V6h-0.1l-1.2,4.1c0,0.1-0.1,0.1-0.2,0.1h-0.6
		c-0.1,0-0.1-0.1-0.2-0.1L180.6,6h-0.1v5.8c0,0.1-0.1,0.1-0.1,0.1h-1c-0.1,0-0.1-0.1-0.1-0.1V2.9z"/>
	<path fill="#FFFFFF" d="M187.9,2.9c0-0.1,0.1-0.1,0.1-0.1h1.1c0.1,0,0.1,0.1,0.1,0.1l1.9,8.8c0,0.1,0,0.1-0.1,0.1H190
		c-0.1,0-0.1-0.1-0.1-0.1l-0.4-1.8h-1.8l-0.4,1.8c0,0.1-0.1,0.1-0.1,0.1H186c-0.1,0-0.1-0.1-0.1-0.1L187.9,2.9z M189.3,8.7l-0.6-3.4
		h0l-0.7,3.4H189.3z M188.2,1.7c-0.1,0-0.1-0.1-0.1-0.1l1-1.4c0.1-0.1,0.1-0.1,0.2-0.1h1.1c0.1,0,0.1,0.1,0.1,0.1l-1.3,1.4
		c-0.1,0.1-0.2,0.1-0.3,0.1H188.2z"/>
	<path fill="#FFFFFF" d="M193.9,12c-1.5,0-2.2-0.8-2.3-2.4c0-0.1,0-0.1,0.1-0.1l1.1-0.2c0.1,0,0.1,0,0.1,0.1c0,1,0.3,1.3,0.9,1.3
		c0.6,0,0.9-0.3,0.9-1.3c0-1-0.2-1.3-0.9-1.6l-0.5-0.2c-1.3-0.5-1.6-1.2-1.6-2.6c0-1.6,0.7-2.4,2.2-2.4c1.5,0,2.2,0.8,2.2,2.2
		c0,0.1,0,0.1-0.1,0.1L195,5.2c-0.1,0-0.1,0-0.1-0.1c0-0.8-0.3-1.2-0.9-1.2c-0.6,0-0.8,0.3-0.8,1.1c0,0.8,0.2,1.1,0.9,1.4l0.5,0.2
		c1.2,0.5,1.7,1.1,1.7,2.7C196.3,11.1,195.7,12,193.9,12z"/>
</g>
<g>
	<path fill="#FFFFFF" d="M9.3,52.3c0-2.7,0-3,0.2-3.4c0.3-0.8,0.9-1.2,1.8-1.2c1.2,0,1.8,0.7,2,1.8c0,0.1,0,0.1-0.1,0.2l-0.4,0.1
		c-0.1,0-0.1,0-0.2-0.1c-0.1-0.8-0.5-1.3-1.3-1.3c-0.6,0-1,0.3-1.2,0.8C10,49.4,10,49.6,10,52.3c0,2.6,0,2.9,0.1,3.2
		c0.2,0.5,0.6,0.8,1.2,0.8c0.6,0,1-0.3,1.2-0.8c0.1-0.3,0.1-0.6,0.1-2.7c0-0.1,0-0.1-0.1-0.1h-1.1c-0.1,0-0.1-0.1-0.1-0.1v-0.4
		c0-0.1,0.1-0.1,0.1-0.1h1.7c0.1,0,0.1,0.1,0.1,0.1v0.4c0,2.4,0,2.7-0.2,3.1c-0.3,0.8-0.9,1.2-1.8,1.2c-0.9,0-1.6-0.4-1.8-1.2
		C9.3,55.3,9.3,54.9,9.3,52.3z"/>
	<path fill="#FFFFFF" d="M14.4,47.8c0-0.1,0.1-0.1,0.1-0.1h3.1c0.1,0,0.1,0.1,0.1,0.1v0.4c0,0.1-0.1,0.1-0.1,0.1h-2.5
		c-0.1,0-0.1,0-0.1,0.1v3.3c0,0.1,0,0.1,0.1,0.1h2.1c0.1,0,0.1,0.1,0.1,0.1v0.4c0,0.1-0.1,0.1-0.1,0.1h-2.1c-0.1,0-0.1,0-0.1,0.1
		v3.5c0,0.1,0,0.1,0.1,0.1h2.5c0.1,0,0.1,0.1,0.1,0.1v0.4c0,0.1-0.1,0.1-0.1,0.1h-3.1c-0.1,0-0.1-0.1-0.1-0.1V47.8z"/>
	<path fill="#FFFFFF" d="M20.2,56.9c-1.3,0-1.9-0.8-2-2.3c0-0.1,0-0.1,0.1-0.1l0.4-0.1c0.1,0,0.1,0,0.1,0.1c0.1,1.3,0.5,1.8,1.3,1.8
		c0.8,0,1.2-0.4,1.2-1.9c0-1.2-0.3-1.6-1-1.9l-0.5-0.2c-1.2-0.5-1.5-1.1-1.5-2.4c0-1.5,0.6-2.3,1.8-2.3c1.2,0,1.8,0.7,1.8,2.1
		c0,0.1,0,0.1-0.1,0.1l-0.4,0.1c-0.1,0-0.1,0-0.1-0.1c0-1.1-0.4-1.6-1.2-1.6c-0.8,0-1.2,0.5-1.2,1.6c0,1.1,0.3,1.5,1,1.8l0.5,0.2
		c1.1,0.5,1.5,1,1.5,2.5C22.1,56.2,21.6,56.9,20.2,56.9z"/>
	<path fill="#FFFFFF" d="M24.4,56.8c-0.1,0-0.1-0.1-0.1-0.1v-8.2c0-0.1,0-0.1-0.1-0.1h-1.6c-0.1,0-0.1-0.1-0.1-0.1v-0.4
		c0-0.1,0.1-0.1,0.1-0.1h4.1c0.1,0,0.1,0.1,0.1,0.1v0.4c0,0.1-0.1,0.1-0.1,0.1H25c-0.1,0-0.1,0-0.1,0.1v8.2c0,0.1-0.1,0.1-0.1,0.1
		H24.4z"/>
	<path fill="#FFFFFF" d="M27.4,47.8c0-0.1,0.1-0.1,0.1-0.1H28c0.1,0,0.1,0.1,0.1,0.1v8.8c0,0.1-0.1,0.1-0.1,0.1h-0.4
		c-0.1,0-0.1-0.1-0.1-0.1V47.8z"/>
	<path fill="#FFFFFF" d="M29.4,55.7c-0.1-0.4-0.2-0.8-0.2-3.4s0-3,0.2-3.4c0.3-0.8,0.9-1.2,1.8-1.2c0.9,0,1.6,0.4,1.8,1.2
		c0.1,0.4,0.2,0.8,0.2,3.4s0,3-0.2,3.4c-0.3,0.8-0.9,1.2-1.8,1.2C30.3,56.9,29.7,56.5,29.4,55.7z M32.4,55.5
		c0.1-0.3,0.1-0.6,0.1-3.2c0-2.6-0.1-2.9-0.1-3.2c-0.2-0.5-0.6-0.8-1.2-0.8s-1,0.3-1.2,0.8C30,49.4,30,49.6,30,52.3
		c0,2.6,0,2.9,0.1,3.2c0.2,0.5,0.6,0.8,1.2,0.8S32.3,56,32.4,55.5z M31,46.6c-0.1,0-0.1-0.1-0.1-0.1l1-1.4c0.1-0.1,0.1-0.1,0.2-0.1
		h0.4c0.1,0,0.1,0.1,0.1,0.1l-1.2,1.4c-0.1,0.1-0.1,0.1-0.2,0.1H31z"/>
	<path fill="#FFFFFF" d="M34.4,47.8c0-0.1,0.1-0.1,0.1-0.1h0.5c0.1,0,0.2,0,0.2,0.1l2.5,7.5h0v-7.5c0-0.1,0.1-0.1,0.1-0.1h0.4
		c0.1,0,0.1,0.1,0.1,0.1v8.8c0,0.1-0.1,0.1-0.1,0.1h-0.5c-0.1,0-0.2,0-0.2-0.1l-2.5-7.5h0v7.5c0,0.1-0.1,0.1-0.1,0.1h-0.4
		c-0.1,0-0.1-0.1-0.1-0.1V47.8z"/>
	<path fill="#FFFFFF" d="M41.8,47.8c0-0.1,0.1-0.1,0.1-0.1h0.4c0.1,0,0.1,0.1,0.1,0.1v8.8c0,0.1-0.1,0.1-0.1,0.1h-0.4
		c-0.1,0-0.1-0.1-0.1-0.1V47.8z"/>
	<path fill="#FFFFFF" d="M43.7,47.8c0-0.1,0.1-0.1,0.1-0.1h0.5c0.1,0,0.2,0,0.2,0.1l2.5,7.5h0v-7.5c0-0.1,0.1-0.1,0.1-0.1h0.4
		c0.1,0,0.1,0.1,0.1,0.1v8.8c0,0.1-0.1,0.1-0.1,0.1h-0.5c-0.1,0-0.2,0-0.2-0.1l-2.5-7.5h0v7.5c0,0.1-0.1,0.1-0.1,0.1h-0.4
		c-0.1,0-0.1-0.1-0.1-0.1V47.8z"/>
	<path fill="#FFFFFF" d="M50.8,56.9c-1.3,0-1.9-0.8-2-2.3c0-0.1,0-0.1,0.1-0.1l0.4-0.1c0.1,0,0.1,0,0.1,0.1c0.1,1.3,0.5,1.8,1.3,1.8
		c0.8,0,1.2-0.4,1.2-1.9c0-1.2-0.3-1.6-1-1.9l-0.5-0.2c-1.2-0.5-1.5-1.1-1.5-2.4c0-1.5,0.6-2.3,1.8-2.3c1.2,0,1.8,0.7,1.8,2.1
		c0,0.1,0,0.1-0.1,0.1l-0.4,0.1c-0.1,0-0.1,0-0.1-0.1c0-1.1-0.4-1.6-1.2-1.6c-0.8,0-1.2,0.5-1.2,1.6c0,1.1,0.3,1.5,1,1.8l0.5,0.2
		c1.1,0.5,1.5,1,1.5,2.5C52.7,56.2,52.1,56.9,50.8,56.9z"/>
	<path fill="#FFFFFF" d="M54.9,56.8c-0.1,0-0.1-0.1-0.1-0.1v-8.2c0-0.1,0-0.1-0.1-0.1h-1.6c-0.1,0-0.1-0.1-0.1-0.1v-0.4
		c0-0.1,0.1-0.1,0.1-0.1h4.1c0.1,0,0.1,0.1,0.1,0.1v0.4c0,0.1-0.1,0.1-0.1,0.1h-1.6c-0.1,0-0.1,0-0.1,0.1v8.2c0,0.1-0.1,0.1-0.1,0.1
		H54.9z"/>
	<path fill="#FFFFFF" d="M58,47.8c0-0.1,0.1-0.1,0.1-0.1h0.4c0.1,0,0.1,0.1,0.1,0.1v8.8c0,0.1-0.1,0.1-0.1,0.1h-0.4
		c-0.1,0-0.1-0.1-0.1-0.1V47.8z"/>
	<path fill="#FFFFFF" d="M61.2,56.8c-0.1,0-0.1-0.1-0.1-0.1v-8.2c0-0.1,0-0.1-0.1-0.1h-1.6c-0.1,0-0.1-0.1-0.1-0.1v-0.4
		c0-0.1,0.1-0.1,0.1-0.1h4.1c0.1,0,0.1,0.1,0.1,0.1v0.4c0,0.1-0.1,0.1-0.1,0.1h-1.6c-0.1,0-0.1,0-0.1,0.1v8.2c0,0.1-0.1,0.1-0.1,0.1
		H61.2z"/>
	<path fill="#FFFFFF" d="M64.2,54.7v-6.8c0-0.1,0.1-0.1,0.1-0.1h0.4c0.1,0,0.1,0.1,0.1,0.1v6.9c0,1.1,0.5,1.5,1.3,1.5
		s1.3-0.5,1.3-1.5v-6.9c0-0.1,0.1-0.1,0.1-0.1H68c0.1,0,0.1,0.1,0.1,0.1v6.8c0,1.5-0.8,2.3-2,2.3S64.2,56.2,64.2,54.7z"/>
	<path fill="#FFFFFF" d="M69.3,52.3c0-2.7,0.1-3,0.2-3.4c0.3-0.8,0.9-1.2,1.8-1.2c1.1,0,1.7,0.7,1.9,1.8c0,0.1,0,0.1-0.1,0.2
		l-0.4,0.1c-0.1,0-0.1,0-0.1-0.1c-0.1-0.9-0.5-1.3-1.2-1.3c-0.6,0-0.9,0.3-1.1,0.8c-0.1,0.3-0.1,0.6-0.1,3.2c0,2.6,0,2.9,0.1,3.2
		c0.2,0.5,0.5,0.8,1.1,0.8c0.7,0,1.1-0.5,1.2-1.4c0-0.1,0.1-0.1,0.1-0.1l0.4,0.1c0.1,0,0.1,0.1,0.1,0.2c-0.1,1.2-0.8,1.9-1.9,1.9
		c-0.9,0-1.5-0.4-1.8-1.2C69.4,55.3,69.3,54.9,69.3,52.3z"/>
	<path fill="#FFFFFF" d="M74,47.8c0-0.1,0.1-0.1,0.1-0.1h0.4c0.1,0,0.1,0.1,0.1,0.1v8.8c0,0.1-0.1,0.1-0.1,0.1h-0.4
		c-0.1,0-0.1-0.1-0.1-0.1V47.8z"/>
	<path fill="#FFFFFF" d="M76,55.7c-0.1-0.4-0.2-0.8-0.2-3.4s0-3,0.2-3.4c0.3-0.8,0.9-1.2,1.8-1.2c0.9,0,1.6,0.4,1.8,1.2
		c0.1,0.4,0.2,0.8,0.2,3.4s0,3-0.2,3.4c-0.3,0.8-0.9,1.2-1.8,1.2C76.9,56.9,76.2,56.5,76,55.7z M79,55.5c0.1-0.3,0.1-0.6,0.1-3.2
		c0-2.6-0.1-2.9-0.1-3.2c-0.2-0.5-0.6-0.8-1.2-0.8s-1,0.3-1.2,0.8c-0.1,0.3-0.1,0.6-0.1,3.2c0,2.6,0,2.9,0.1,3.2
		c0.2,0.5,0.6,0.8,1.2,0.8S78.8,56,79,55.5z"/>
	<path fill="#FFFFFF" d="M81,47.8c0-0.1,0.1-0.1,0.1-0.1h0.5c0.1,0,0.2,0,0.2,0.1l2.5,7.5h0v-7.5c0-0.1,0.1-0.1,0.1-0.1h0.4
		c0.1,0,0.1,0.1,0.1,0.1v8.8c0,0.1-0.1,0.1-0.1,0.1h-0.5c-0.1,0-0.2,0-0.2-0.1l-2.5-7.5h0v7.5c0,0.1-0.1,0.1-0.1,0.1h-0.4
		c-0.1,0-0.1-0.1-0.1-0.1V47.8z"/>
	<path fill="#FFFFFF" d="M87.7,47.8c0-0.1,0.1-0.1,0.1-0.1h0.4c0.1,0,0.1,0.1,0.1,0.1l1.9,8.8c0,0.1,0,0.1-0.1,0.1h-0.4
		c-0.1,0-0.1-0.1-0.1-0.1l-0.5-2.2h-2.2l-0.5,2.2c0,0.1-0.1,0.1-0.1,0.1h-0.4c-0.1,0-0.1-0.1-0.1-0.1L87.7,47.8z M89,53.9l-1-4.6h0
		l-1,4.6H89z"/>
	<path fill="#FFFFFF" d="M91,47.8c0-0.1,0.1-0.1,0.1-0.1h0.4c0.1,0,0.1,0.1,0.1,0.1v8.2c0,0.1,0,0.1,0.1,0.1h2.4
		c0.1,0,0.1,0.1,0.1,0.1v0.4c0,0.1-0.1,0.1-0.1,0.1h-3.1c-0.1,0-0.1-0.1-0.1-0.1V47.8z"/>
	<path fill="#FFFFFF" d="M98.2,47.7c0-0.1,0.1-0.1,0.1-0.1h0.3c0.1,0,0.1,0.1,0.1,0.1l-1.7,9.1c0,0.1-0.1,0.1-0.1,0.1h-0.3
		c-0.1,0-0.1-0.1-0.1-0.1L98.2,47.7z"/>
	<path fill="#FFFFFF" d="M101.5,47.8c0-0.1,0.1-0.1,0.1-0.1h1.6c1.1,0,1.7,0.5,2,1.4c0.2,0.5,0.2,1.1,0.2,3.2c0,2.1-0.1,2.7-0.2,3.2
		c-0.3,0.9-0.9,1.4-2,1.4h-1.6c-0.1,0-0.1-0.1-0.1-0.1V47.8z M102.2,56.2h0.9c0.8,0,1.2-0.3,1.4-0.9c0.1-0.4,0.2-1,0.2-3
		c0-2-0.1-2.6-0.2-3c-0.2-0.6-0.6-0.9-1.4-0.9h-0.9c-0.1,0-0.1,0-0.1,0.1L102.2,56.2C102.2,56.1,102.2,56.2,102.2,56.2z"/>
	<path fill="#FFFFFF" d="M106.6,55.7c-0.1-0.4-0.2-0.8-0.2-3.4s0-3,0.2-3.4c0.3-0.8,0.9-1.2,1.8-1.2c0.9,0,1.6,0.4,1.8,1.2
		c0.1,0.4,0.2,0.8,0.2,3.4s0,3-0.2,3.4c-0.3,0.8-0.9,1.2-1.8,1.2C107.5,56.9,106.9,56.5,106.6,55.7z M109.6,55.5
		c0.1-0.3,0.1-0.6,0.1-3.2c0-2.6-0.1-2.9-0.1-3.2c-0.2-0.5-0.6-0.8-1.2-0.8s-1,0.3-1.2,0.8c-0.1,0.3-0.1,0.6-0.1,3.2
		c0,2.6,0,2.9,0.1,3.2c0.2,0.5,0.6,0.8,1.2,0.8S109.4,56,109.6,55.5z"/>
	<path fill="#FFFFFF" d="M111.5,52.3c0-2.7,0.1-3,0.2-3.4c0.3-0.8,0.9-1.2,1.8-1.2c1.1,0,1.7,0.7,1.9,1.8c0,0.1,0,0.1-0.1,0.2
		l-0.4,0.1c-0.1,0-0.1,0-0.1-0.1c-0.1-0.9-0.5-1.3-1.2-1.3c-0.6,0-0.9,0.3-1.1,0.8c-0.1,0.3-0.1,0.6-0.1,3.2c0,2.6,0,2.9,0.1,3.2
		c0.2,0.5,0.5,0.8,1.1,0.8c0.7,0,1.1-0.5,1.2-1.4c0-0.1,0.1-0.1,0.1-0.1l0.4,0.1c0.1,0,0.1,0.1,0.1,0.2c-0.1,1.2-0.8,1.9-1.9,1.9
		c-0.9,0-1.5-0.4-1.8-1.2C111.5,55.3,111.5,54.9,111.5,52.3z"/>
	<path fill="#FFFFFF" d="M116.1,47.8c0-0.1,0.1-0.1,0.1-0.1h3.1c0.1,0,0.1,0.1,0.1,0.1v0.4c0,0.1-0.1,0.1-0.1,0.1h-2.5
		c-0.1,0-0.1,0-0.1,0.1v3.3c0,0.1,0,0.1,0.1,0.1h2.1c0.1,0,0.1,0.1,0.1,0.1v0.4c0,0.1-0.1,0.1-0.1,0.1h-2.1c-0.1,0-0.1,0-0.1,0.1
		v3.5c0,0.1,0,0.1,0.1,0.1h2.5c0.1,0,0.1,0.1,0.1,0.1v0.4c0,0.1-0.1,0.1-0.1,0.1h-3.1c-0.1,0-0.1-0.1-0.1-0.1V47.8z"/>
	<path fill="#FFFFFF" d="M120.3,47.8c0-0.1,0.1-0.1,0.1-0.1h0.5c0.1,0,0.2,0,0.2,0.1l2.5,7.5h0v-7.5c0-0.1,0.1-0.1,0.1-0.1h0.4
		c0.1,0,0.1,0.1,0.1,0.1v8.8c0,0.1-0.1,0.1-0.1,0.1h-0.5c-0.1,0-0.2,0-0.2-0.1l-2.5-7.5h0v7.5c0,0.1-0.1,0.1-0.1,0.1h-0.4
		c-0.1,0-0.1-0.1-0.1-0.1V47.8z"/>
	<path fill="#FFFFFF" d="M125.5,52.3c0-2.7,0.1-3,0.2-3.4c0.3-0.8,0.9-1.2,1.8-1.2c1.1,0,1.7,0.7,1.9,1.8c0,0.1,0,0.1-0.1,0.2
		l-0.4,0.1c-0.1,0-0.1,0-0.1-0.1c-0.1-0.9-0.5-1.3-1.2-1.3c-0.6,0-0.9,0.3-1.1,0.8c-0.1,0.3-0.1,0.6-0.1,3.2c0,2.6,0,2.9,0.1,3.2
		c0.2,0.5,0.5,0.8,1.1,0.8c0.7,0,1.1-0.5,1.2-1.4c0-0.1,0.1-0.1,0.1-0.1l0.4,0.1c0.1,0,0.1,0.1,0.1,0.2c-0.1,1.2-0.8,1.9-1.9,1.9
		c-0.9,0-1.5-0.4-1.8-1.2C125.6,55.3,125.5,54.9,125.5,52.3z"/>
	<path fill="#FFFFFF" d="M130.1,47.8c0-0.1,0.1-0.1,0.1-0.1h0.4c0.1,0,0.1,0.1,0.1,0.1v8.8c0,0.1-0.1,0.1-0.1,0.1h-0.4
		c-0.1,0-0.1-0.1-0.1-0.1V47.8z"/>
	<path fill="#FFFFFF" d="M133.5,47.8c0-0.1,0.1-0.1,0.1-0.1h0.4c0.1,0,0.1,0.1,0.1,0.1l1.9,8.8c0,0.1,0,0.1-0.1,0.1h-0.4
		c-0.1,0-0.1-0.1-0.1-0.1l-0.5-2.2h-2.2l-0.5,2.2c0,0.1-0.1,0.1-0.1,0.1h-0.4c-0.1,0-0.1-0.1-0.1-0.1L133.5,47.8z M134.8,53.9
		l-1-4.6h0l-1,4.6H134.8z"/>
	<path fill="#FFFFFF" d="M138.7,47.8c0-0.1,0.1-0.1,0.1-0.1h1.6c1.1,0,1.7,0.5,2,1.4c0.2,0.5,0.2,1.1,0.2,3.2c0,2.1-0.1,2.7-0.2,3.2
		c-0.3,0.9-0.9,1.4-2,1.4h-1.6c-0.1,0-0.1-0.1-0.1-0.1V47.8z M139.5,56.2h0.9c0.8,0,1.2-0.3,1.4-0.9c0.1-0.4,0.2-1,0.2-3
		c0-2-0.1-2.6-0.2-3c-0.2-0.6-0.6-0.9-1.4-0.9h-0.9c-0.1,0-0.1,0-0.1,0.1L139.5,56.2C139.4,56.1,139.5,56.2,139.5,56.2z"/>
	<path fill="#FFFFFF" d="M143.9,47.8c0-0.1,0.1-0.1,0.1-0.1h3.1c0.1,0,0.1,0.1,0.1,0.1v0.4c0,0.1-0.1,0.1-0.1,0.1h-2.5
		c-0.1,0-0.1,0-0.1,0.1v3.3c0,0.1,0,0.1,0.1,0.1h2.1c0.1,0,0.1,0.1,0.1,0.1v0.4c0,0.1-0.1,0.1-0.1,0.1h-2.1c-0.1,0-0.1,0-0.1,0.1
		v3.5c0,0.1,0,0.1,0.1,0.1h2.5c0.1,0,0.1,0.1,0.1,0.1v0.4c0,0.1-0.1,0.1-0.1,0.1H144c-0.1,0-0.1-0.1-0.1-0.1V47.8z"/>
	<path fill="#FFFFFF" d="M150.1,56.8c-0.1,0-0.1-0.1-0.1-0.1v-8.8c0-0.1,0.1-0.1,0.1-0.1h1.3c1.6,0,2.3,0.7,2.3,2.6
		c0,1.9-0.8,2.7-2.3,2.7h-0.7c-0.1,0-0.1,0-0.1,0.1v3.6c0,0.1-0.1,0.1-0.1,0.1H150.1z M153.1,50.3c0-1.4-0.4-2-1.6-2h-0.7
		c-0.1,0-0.1,0-0.1,0.1v3.8c0,0.1,0,0.1,0.1,0.1h0.7C152.6,52.3,153.1,51.8,153.1,50.3z"/>
	<path fill="#FFFFFF" d="M158,56.8c-0.1,0-0.1,0-0.1-0.1l-1.2-4c-0.2,0-0.4,0-0.6,0h-0.6c-0.1,0-0.1,0-0.1,0.1v3.9
		c0,0.1-0.1,0.1-0.1,0.1h-0.4c-0.1,0-0.1-0.1-0.1-0.1v-8.8c0-0.1,0.1-0.1,0.1-0.1h1.3c1.6,0,2.3,0.7,2.3,2.5c0,1.3-0.4,2-1.1,2.3
		l1.2,4.2c0,0.1,0,0.1-0.1,0.1H158z M157.7,50.2c0-1.4-0.5-1.9-1.6-1.9h-0.7c-0.1,0-0.1,0-0.1,0.1V52c0,0.1,0,0.1,0.1,0.1h0.7
		C157.2,52.1,157.7,51.7,157.7,50.2z"/>
	<path fill="#FFFFFF" d="M159.3,47.8c0-0.1,0.1-0.1,0.1-0.1h3.1c0.1,0,0.1,0.1,0.1,0.1v0.4c0,0.1-0.1,0.1-0.1,0.1h-2.5
		c-0.1,0-0.1,0-0.1,0.1v3.3c0,0.1,0,0.1,0.1,0.1h2.1c0.1,0,0.1,0.1,0.1,0.1v0.4c0,0.1-0.1,0.1-0.1,0.1h-2.1c-0.1,0-0.1,0-0.1,0.1
		v3.5c0,0.1,0,0.1,0.1,0.1h2.5c0.1,0,0.1,0.1,0.1,0.1v0.4c0,0.1-0.1,0.1-0.1,0.1h-3.1c-0.1,0-0.1-0.1-0.1-0.1V47.8z"/>
	<path fill="#FFFFFF" d="M163.3,52.3c0-2.7,0-3,0.2-3.4c0.3-0.8,0.9-1.2,1.8-1.2c1.2,0,1.8,0.7,2,1.8c0,0.1,0,0.1-0.1,0.2l-0.4,0.1
		c-0.1,0-0.1,0-0.2-0.1c-0.1-0.8-0.5-1.3-1.3-1.3c-0.6,0-1,0.3-1.2,0.8c-0.1,0.3-0.1,0.6-0.1,3.2c0,2.6,0,2.9,0.1,3.2
		c0.2,0.5,0.6,0.8,1.2,0.8c0.6,0,1-0.3,1.2-0.8c0.1-0.3,0.1-0.6,0.1-2.7c0-0.1,0-0.1-0.1-0.1h-1.1c-0.1,0-0.1-0.1-0.1-0.1v-0.4
		c0-0.1,0.1-0.1,0.1-0.1h1.7c0.1,0,0.1,0.1,0.1,0.1v0.4c0,2.4,0,2.7-0.2,3.1c-0.3,0.8-0.9,1.2-1.8,1.2c-0.9,0-1.6-0.4-1.8-1.2
		C163.4,55.3,163.3,54.9,163.3,52.3z"/>
	<path fill="#FFFFFF" d="M171.8,56.8c-0.1,0-0.1,0-0.1-0.1l-1.2-4c-0.2,0-0.4,0-0.6,0h-0.6c-0.1,0-0.1,0-0.1,0.1v3.9
		c0,0.1-0.1,0.1-0.1,0.1h-0.4c-0.1,0-0.1-0.1-0.1-0.1v-8.8c0-0.1,0.1-0.1,0.1-0.1h1.3c1.6,0,2.3,0.7,2.3,2.5c0,1.3-0.4,2-1.1,2.3
		l1.2,4.2c0,0.1,0,0.1-0.1,0.1H171.8z M171.5,50.2c0-1.4-0.5-1.9-1.6-1.9h-0.7c-0.1,0-0.1,0-0.1,0.1V52c0,0.1,0,0.1,0.1,0.1h0.7
		C171,52.1,171.5,51.7,171.5,50.2z"/>
	<path fill="#FFFFFF" d="M174.5,47.8c0-0.1,0.1-0.1,0.1-0.1h0.4c0.1,0,0.1,0.1,0.1,0.1l1.9,8.8c0,0.1,0,0.1-0.1,0.1h-0.4
		c-0.1,0-0.1-0.1-0.1-0.1l-0.5-2.2h-2.2l-0.5,2.2c0,0.1-0.1,0.1-0.1,0.1h-0.4c-0.1,0-0.1-0.1-0.1-0.1L174.5,47.8z M175.8,53.9
		l-1-4.6h0l-1,4.6H175.8z"/>
	<path fill="#FFFFFF" d="M177.8,47.8c0-0.1,0.1-0.1,0.1-0.1h1.6c1.1,0,1.7,0.5,2,1.4c0.2,0.5,0.2,1.1,0.2,3.2c0,2.1-0.1,2.7-0.2,3.2
		c-0.3,0.9-0.9,1.4-2,1.4h-1.6c-0.1,0-0.1-0.1-0.1-0.1V47.8z M178.6,56.2h0.9c0.8,0,1.2-0.3,1.4-0.9c0.1-0.4,0.2-1,0.2-3
		c0-2-0.1-2.6-0.2-3c-0.2-0.6-0.6-0.9-1.4-0.9h-0.9c-0.1,0-0.1,0-0.1,0.1L178.6,56.2C178.5,56.1,178.5,56.2,178.6,56.2z"/>
	<path fill="#FFFFFF" d="M183,55.7c-0.1-0.4-0.2-0.8-0.2-3.4s0-3,0.2-3.4c0.3-0.8,0.9-1.2,1.8-1.2c0.9,0,1.6,0.4,1.8,1.2
		c0.1,0.4,0.2,0.8,0.2,3.4s0,3-0.2,3.4c-0.3,0.8-0.9,1.2-1.8,1.2C183.9,56.9,183.2,56.5,183,55.7z M186,55.5
		c0.1-0.3,0.1-0.6,0.1-3.2c0-2.6-0.1-2.9-0.1-3.2c-0.2-0.5-0.6-0.8-1.2-0.8s-1,0.3-1.2,0.8c-0.1,0.3-0.1,0.6-0.1,3.2
		c0,2.6,0,2.9,0.1,3.2c0.2,0.5,0.6,0.8,1.2,0.8S185.8,56,186,55.5z"/>
</g>
<g>
	<g>
		<path fill="#FFFFFF" d="M7.8,40.9c0-0.1,0-0.1,0.1-0.2l0.4,0c0.1,0,0.1,0,0.1,0.1c0,0.6,0,0.7,0.1,0.9c0.1,0.4,0.5,0.7,1,0.7
			c0.5,0,0.8-0.2,1-0.6c0.1-0.2,0.1-0.4,0.1-1.7c0-1.3-0.1-1.5-0.1-1.7c-0.1-0.4-0.5-0.7-1-0.7c-0.5,0-0.7,0.2-0.9,0.5
			c-0.1,0.1-0.1,0.1-0.2,0.1H8c-0.1,0-0.1-0.1-0.1-0.1v-4.2c0-0.1,0.1-0.1,0.1-0.1h3.1c0.1,0,0.1,0.1,0.1,0.1v0.4
			c0,0.1-0.1,0.1-0.1,0.1H8.6c-0.1,0-0.1,0-0.1,0.1v3h0c0.2-0.3,0.6-0.5,1.1-0.5c0.8,0,1.3,0.4,1.5,1c0.1,0.3,0.1,0.5,0.1,2
			c0,1.4-0.1,1.6-0.1,1.9c-0.2,0.7-0.8,1.1-1.6,1.1c-0.8,0-1.4-0.4-1.6-1.1C7.8,41.7,7.8,41.4,7.8,40.9z"/>
		<path fill="#FFFFFF" d="M16,33.9c0-0.1,0.1-0.1,0.1-0.1h0.4c0.1,0,0.1,0.1,0.1,0.1l1.9,8.8c0,0.1,0,0.1-0.1,0.1h-0.4
			c-0.1,0-0.1-0.1-0.1-0.1l-0.5-2.2h-2.2l-0.5,2.2c0,0.1-0.1,0.1-0.1,0.1h-0.4c-0.1,0-0.1-0.1-0.1-0.1L16,33.9z M17.3,40l-1-4.6h0
			l-1,4.6H17.3z"/>
		<path fill="#FFFFFF" d="M19.5,33.9c0-0.1,0.1-0.1,0.1-0.1h0.5c0.1,0,0.2,0,0.2,0.1l2.5,7.5h0v-7.5c0-0.1,0.1-0.1,0.1-0.1h0.4
			c0.1,0,0.1,0.1,0.1,0.1v8.8c0,0.1-0.1,0.1-0.1,0.1H23c-0.1,0-0.2,0-0.2-0.1l-2.5-7.5h0v7.5c0,0.1-0.1,0.1-0.1,0.1h-0.4
			c-0.1,0-0.1-0.1-0.1-0.1V33.9z M21.4,32.1c-0.2-0.1-0.3-0.2-0.4-0.2c-0.2,0-0.3,0.1-0.5,0.4c-0.1,0.1-0.2,0.1-0.2,0v-0.4
			c0-0.1,0-0.1,0.1-0.2c0.1-0.2,0.3-0.3,0.6-0.3s0.4,0.1,0.6,0.3c0.2,0.1,0.3,0.2,0.4,0.2c0.2,0,0.4-0.1,0.5-0.4
			c0.1-0.1,0.1-0.1,0.1,0v0.4c0,0.1,0,0.1-0.1,0.2c-0.2,0.2-0.3,0.3-0.6,0.3C21.8,32.4,21.6,32.3,21.4,32.1z"/>
		<path fill="#FFFFFF" d="M25.1,41.8c-0.1-0.4-0.2-0.8-0.2-3.4s0-3,0.2-3.4c0.3-0.8,0.9-1.2,1.8-1.2c0.9,0,1.6,0.4,1.8,1.2
			c0.1,0.4,0.2,0.8,0.2,3.4s0,3-0.2,3.4C28.5,42.6,27.9,43,27,43C26,43,25.4,42.6,25.1,41.8z M28.1,41.6c0.1-0.3,0.1-0.6,0.1-3.2
			c0-2.6-0.1-2.9-0.1-3.2c-0.2-0.5-0.6-0.8-1.2-0.8s-1,0.3-1.2,0.8c-0.1,0.3-0.1,0.6-0.1,3.2c0,2.6,0,2.9,0.1,3.2
			c0.2,0.5,0.6,0.8,1.2,0.8S27.9,42.1,28.1,41.6z"/>
		<path fill="#FFFFFF" d="M31.9,43c-1.3,0-1.9-0.8-2-2.3c0-0.1,0-0.1,0.1-0.1l0.4-0.1c0.1,0,0.1,0,0.1,0.1c0.1,1.3,0.5,1.8,1.3,1.8
			c0.8,0,1.2-0.4,1.2-1.9c0-1.2-0.3-1.6-1-1.9l-0.5-0.2c-1.2-0.5-1.5-1.1-1.5-2.4c0-1.5,0.6-2.3,1.8-2.3c1.2,0,1.8,0.7,1.8,2.1
			c0,0.1,0,0.1-0.1,0.1L33.3,36c-0.1,0-0.1,0-0.1-0.1c0-1.1-0.4-1.6-1.2-1.6c-0.8,0-1.2,0.5-1.2,1.6c0,1.1,0.3,1.5,1,1.8l0.5,0.2
			c1.1,0.5,1.5,1,1.5,2.5C33.9,42.3,33.3,43,31.9,43z"/>
		<path fill="#FFFFFF" d="M38.3,33.8c0-0.1,0.1-0.1,0.1-0.1h0.3c0.1,0,0.1,0.1,0.1,0.1l-1.7,9.1c0,0.1-0.1,0.1-0.1,0.1h-0.3
			c-0.1,0-0.1-0.1-0.1-0.1L38.3,33.8z"/>
		<path fill="#FFFFFF" d="M41.9,33.9c0-0.1,0.1-0.1,0.1-0.1h1.6c1.1,0,1.7,0.5,2,1.4c0.2,0.5,0.2,1.1,0.2,3.2c0,2.1-0.1,2.7-0.2,3.2
			c-0.3,0.9-0.9,1.4-2,1.4h-1.6c-0.1,0-0.1-0.1-0.1-0.1V33.9z M42.7,42.3h0.9c0.8,0,1.2-0.3,1.4-0.9c0.1-0.4,0.2-1,0.2-3
			c0-2-0.1-2.6-0.2-3c-0.2-0.6-0.6-0.9-1.4-0.9h-0.9c-0.1,0-0.1,0-0.1,0.1L42.7,42.3C42.6,42.2,42.7,42.3,42.7,42.3z"/>
		<path fill="#FFFFFF" d="M47.3,33.9c0-0.1,0.1-0.1,0.1-0.1h3.1c0.1,0,0.1,0.1,0.1,0.1v0.4c0,0.1-0.1,0.1-0.1,0.1H48
			c-0.1,0-0.1,0-0.1,0.1v3.3c0,0.1,0,0.1,0.1,0.1h2.1c0.1,0,0.1,0.1,0.1,0.1v0.4c0,0.1-0.1,0.1-0.1,0.1H48c-0.1,0-0.1,0-0.1,0.1v3.5
			c0,0.1,0,0.1,0.1,0.1h2.5c0.1,0,0.1,0.1,0.1,0.1v0.4c0,0.1-0.1,0.1-0.1,0.1h-3.1c-0.1,0-0.1-0.1-0.1-0.1V33.9z"/>
		<path fill="#FFFFFF" d="M53.2,43c-1.3,0-1.9-0.8-2-2.3c0-0.1,0-0.1,0.1-0.1l0.4-0.1c0.1,0,0.1,0,0.1,0.1c0.1,1.3,0.5,1.8,1.3,1.8
			c0.8,0,1.2-0.4,1.2-1.9c0-1.2-0.3-1.6-1-1.9l-0.5-0.2c-1.2-0.5-1.5-1.1-1.5-2.4c0-1.5,0.6-2.3,1.8-2.3c1.2,0,1.8,0.7,1.8,2.1
			c0,0.1,0,0.1-0.1,0.1L54.6,36c-0.1,0-0.1,0-0.1-0.1c0-1.1-0.4-1.6-1.2-1.6c-0.8,0-1.2,0.5-1.2,1.6c0,1.1,0.3,1.5,1,1.8l0.5,0.2
			c1.1,0.5,1.5,1,1.5,2.5C55.2,42.3,54.6,43,53.2,43z"/>
		<path fill="#FFFFFF" d="M56.3,33.9c0-0.1,0.1-0.1,0.1-0.1h1.6c1.1,0,1.7,0.5,2,1.4c0.2,0.5,0.2,1.1,0.2,3.2c0,2.1-0.1,2.7-0.2,3.2
			c-0.3,0.9-0.9,1.4-2,1.4h-1.6c-0.1,0-0.1-0.1-0.1-0.1V33.9z M57.1,42.3H58c0.8,0,1.2-0.3,1.4-0.9c0.1-0.4,0.2-1,0.2-3
			c0-2-0.1-2.6-0.2-3c-0.2-0.6-0.6-0.9-1.4-0.9h-0.9c-0.1,0-0.1,0-0.1,0.1L57.1,42.3C57,42.2,57.1,42.3,57.1,42.3z"/>
		<path fill="#FFFFFF" d="M61.7,33.9c0-0.1,0.1-0.1,0.1-0.1h3.1c0.1,0,0.1,0.1,0.1,0.1v0.4c0,0.1-0.1,0.1-0.1,0.1h-2.5
			c-0.1,0-0.1,0-0.1,0.1v3.3c0,0.1,0,0.1,0.1,0.1h2.1c0.1,0,0.1,0.1,0.1,0.1v0.4c0,0.1-0.1,0.1-0.1,0.1h-2.1c-0.1,0-0.1,0-0.1,0.1
			v3.5c0,0.1,0,0.1,0.1,0.1h2.5c0.1,0,0.1,0.1,0.1,0.1v0.4c0,0.1-0.1,0.1-0.1,0.1h-3.1c-0.1,0-0.1-0.1-0.1-0.1V33.9z"/>
		<path fill="#FFFFFF" d="M68.2,33.9c0-0.1,0.1-0.1,0.1-0.1h1.6c1.1,0,1.7,0.5,2,1.4c0.2,0.5,0.2,1.1,0.2,3.2c0,2.1-0.1,2.7-0.2,3.2
			c-0.3,0.9-0.9,1.4-2,1.4h-1.6c-0.1,0-0.1-0.1-0.1-0.1V33.9z M68.9,42.3h0.9c0.8,0,1.2-0.3,1.4-0.9c0.1-0.4,0.2-1,0.2-3
			c0-2-0.1-2.6-0.2-3c-0.2-0.6-0.6-0.9-1.4-0.9h-0.9c-0.1,0-0.1,0-0.1,0.1L68.9,42.3C68.8,42.2,68.9,42.3,68.9,42.3z"/>
		<path fill="#FFFFFF" d="M73.5,33.9c0-0.1,0.1-0.1,0.1-0.1H74c0.1,0,0.1,0.1,0.1,0.1v8.8c0,0.1-0.1,0.1-0.1,0.1h-0.4
			c-0.1,0-0.1-0.1-0.1-0.1V33.9z"/>
		<path fill="#FFFFFF" d="M75.5,38.4c0-2.7,0.1-3,0.2-3.4c0.3-0.8,0.9-1.2,1.8-1.2c1.1,0,1.7,0.7,1.9,1.8c0,0.1,0,0.1-0.1,0.2
			l-0.4,0.1c-0.1,0-0.1,0-0.1-0.1c-0.1-0.9-0.5-1.3-1.2-1.3c-0.6,0-0.9,0.3-1.1,0.8c-0.1,0.3-0.1,0.6-0.1,3.2c0,2.6,0,2.9,0.1,3.2
			c0.2,0.5,0.5,0.8,1.1,0.8c0.7,0,1.1-0.5,1.2-1.4c0-0.1,0.1-0.1,0.1-0.1l0.4,0.1c0.1,0,0.1,0.1,0.1,0.2c-0.1,1.2-0.8,1.9-1.9,1.9
			c-0.9,0-1.5-0.4-1.8-1.2C75.6,41.4,75.5,41,75.5,38.4z"/>
		<path fill="#FFFFFF" d="M80.1,41.9c0-0.1,0.1-0.1,0.1-0.1h0.6c0.1,0,0.1,0.1,0.1,0.1v0.9c0,0.1-0.1,0.1-0.1,0.1h-0.6
			c-0.1,0-0.1-0.1-0.1-0.1V41.9z"/>
		<path fill="#FFFFFF" d="M84.4,33.9c0-0.1,0.1-0.1,0.1-0.1h1.6c1.1,0,1.7,0.5,2,1.4c0.2,0.5,0.2,1.1,0.2,3.2c0,2.1-0.1,2.7-0.2,3.2
			c-0.3,0.9-0.9,1.4-2,1.4h-1.6c-0.1,0-0.1-0.1-0.1-0.1V33.9z M85.2,42.3h0.9c0.8,0,1.2-0.3,1.4-0.9c0.1-0.4,0.2-1,0.2-3
			c0-2-0.1-2.6-0.2-3c-0.2-0.6-0.6-0.9-1.4-0.9h-0.9c-0.1,0-0.1,0-0.1,0.1L85.2,42.3C85.1,42.2,85.1,42.3,85.2,42.3z"/>
		<path fill="#FFFFFF" d="M89.7,33.9c0-0.1,0.1-0.1,0.1-0.1H93c0.1,0,0.1,0.1,0.1,0.1v0.4c0,0.1-0.1,0.1-0.1,0.1h-2.5
			c-0.1,0-0.1,0-0.1,0.1v3.3c0,0.1,0,0.1,0.1,0.1h2.1c0.1,0,0.1,0.1,0.1,0.1v0.4c0,0.1-0.1,0.1-0.1,0.1h-2.1c-0.1,0-0.1,0-0.1,0.1
			v3.5c0,0.1,0,0.1,0.1,0.1H93c0.1,0,0.1,0.1,0.1,0.1v0.4c0,0.1-0.1,0.1-0.1,0.1h-3.1c-0.1,0-0.1-0.1-0.1-0.1V33.9z"/>
		<path fill="#FFFFFF" d="M96.1,42.4c0-0.1,0-0.1,0.1-0.2l2.3-4.6c0.3-0.6,0.4-1,0.4-1.8c0-0.5,0-0.7-0.1-0.9
			c-0.1-0.4-0.5-0.7-1-0.7c-0.5,0-0.8,0.2-1,0.7c-0.1,0.2-0.1,0.3-0.1,1c0,0.1-0.1,0.1-0.1,0.1l-0.4,0c-0.1,0-0.1-0.1-0.1-0.2
			c0-0.7,0-0.9,0.1-1.2c0.2-0.7,0.8-1.1,1.6-1.1s1.4,0.4,1.6,1.1c0.1,0.3,0.1,0.5,0.1,1.1c0,0.9-0.2,1.4-0.5,2.1l-2.2,4.3v0h2.6
			c0.1,0,0.1,0.1,0.1,0.1v0.4c0,0.1-0.1,0.1-0.1,0.1h-3.2c-0.1,0-0.1-0.1-0.1-0.1V42.4z"/>
		<path fill="#FFFFFF" d="M100.7,38.4c0-2.9,0.1-3.3,0.1-3.6c0.3-0.8,0.8-1.1,1.6-1.1c0.8,0,1.4,0.3,1.6,1.1
			c0.1,0.3,0.1,0.7,0.1,3.6c0,2.9-0.1,3.3-0.1,3.5c-0.3,0.8-0.8,1.1-1.6,1.1c-0.8,0-1.4-0.3-1.6-1.1
			C100.7,41.6,100.7,41.3,100.7,38.4z M102.4,42.4c0.5,0,0.8-0.2,1-0.7c0.1-0.2,0.1-0.6,0.1-3.3c0-2.8,0-3.1-0.1-3.3
			c-0.1-0.5-0.5-0.7-1-0.7c-0.5,0-0.8,0.2-1,0.7c-0.1,0.2-0.1,0.5-0.1,3.3c0,2.8,0,3.1,0.1,3.3C101.6,42.2,101.9,42.4,102.4,42.4z"
			/>
		<path fill="#FFFFFF" d="M107.1,34.7L107.1,34.7l-1.2,0.9c-0.1,0.1-0.1,0-0.1-0.1V35c0-0.1,0-0.1,0.1-0.2l1.2-1
			c0.1-0.1,0.1-0.1,0.2-0.1h0.4c0.1,0,0.1,0.1,0.1,0.1v8.8c0,0.1-0.1,0.1-0.1,0.1h-0.4c-0.1,0-0.1-0.1-0.1-0.1V34.7z"/>
		<path fill="#FFFFFF" d="M112.3,38.9L112.3,38.9c-0.1,0.1-0.4,0.2-0.7,0.2c-0.8,0-1.3-0.4-1.5-1.1c-0.1-0.3-0.1-0.5-0.1-1.6
			c0-1.1,0-1.3,0.1-1.6c0.2-0.7,0.8-1.1,1.6-1.1c0.8,0,1.4,0.4,1.6,1.1c0.1,0.3,0.1,0.5,0.1,1.6c0,1.4-0.1,1.7-0.4,2.6l-1.5,3.8
			c0,0.1-0.1,0.1-0.2,0.1h-0.4c-0.1,0-0.1,0-0.1-0.1L112.3,38.9z M112.7,37.8c0.1-0.2,0.1-0.3,0.1-1.4c0-1,0-1.2-0.1-1.4
			c-0.1-0.4-0.5-0.7-1-0.7c-0.5,0-0.8,0.2-1,0.7c-0.1,0.2-0.1,0.3-0.1,1.4c0,1,0,1.2,0.1,1.4c0.1,0.4,0.5,0.7,1,0.7
			C112.2,38.4,112.5,38.2,112.7,37.8z"/>
		<path fill="#FFFFFF" d="M116.9,33.9c0-0.1,0.1-0.1,0.1-0.1h0.4c0.1,0,0.1,0.1,0.1,0.1v3.9c0,0.1,0,0.1,0.1,0.1h2.4
			c0.1,0,0.1,0,0.1-0.1v-3.9c0-0.1,0.1-0.1,0.1-0.1h0.4c0.1,0,0.1,0.1,0.1,0.1v8.8c0,0.1-0.1,0.1-0.1,0.1h-0.4
			c-0.1,0-0.1-0.1-0.1-0.1v-4.1c0-0.1,0-0.1-0.1-0.1h-2.4c-0.1,0-0.1,0-0.1,0.1v4.1c0,0.1-0.1,0.1-0.1,0.1H117
			c-0.1,0-0.1-0.1-0.1-0.1V33.9z"/>
		<path fill="#FFFFFF" d="M123.7,33.9c0-0.1,0.1-0.1,0.1-0.1h0.4c0.1,0,0.1,0.1,0.1,0.1l1.9,8.8c0,0.1,0,0.1-0.1,0.1h-0.4
			c-0.1,0-0.1-0.1-0.1-0.1l-0.5-2.2h-2.2l-0.5,2.2c0,0.1-0.1,0.1-0.1,0.1h-0.4c-0.1,0-0.1-0.1-0.1-0.1L123.7,33.9z M125,40l-1-4.6h0
			l-1,4.6H125z"/>
		<path fill="#FFFFFF" d="M128.8,43c-1.3,0-1.9-0.8-2-2.3c0-0.1,0-0.1,0.1-0.1l0.4-0.1c0.1,0,0.1,0,0.1,0.1c0.1,1.3,0.5,1.8,1.3,1.8
			c0.8,0,1.2-0.4,1.2-1.9c0-1.2-0.3-1.6-1-1.9l-0.5-0.2c-1.2-0.5-1.5-1.1-1.5-2.4c0-1.5,0.6-2.3,1.8-2.3c1.2,0,1.8,0.7,1.8,2.1
			c0,0.1,0,0.1-0.1,0.1l-0.4,0.1c-0.1,0-0.1,0-0.1-0.1c0-1.1-0.4-1.6-1.2-1.6c-0.8,0-1.2,0.5-1.2,1.6c0,1.1,0.3,1.5,1,1.8l0.5,0.2
			c1.1,0.5,1.5,1,1.5,2.5C130.8,42.3,130.2,43,128.8,43z"/>
		<path fill="#FFFFFF" d="M133.2,42.9c-0.1,0-0.1-0.1-0.1-0.1v-8.2c0-0.1,0-0.1-0.1-0.1h-1.6c-0.1,0-0.1-0.1-0.1-0.1v-0.4
			c0-0.1,0.1-0.1,0.1-0.1h4.1c0.1,0,0.1,0.1,0.1,0.1v0.4c0,0.1-0.1,0.1-0.1,0.1h-1.6c-0.1,0-0.1,0-0.1,0.1v8.2
			c0,0.1-0.1,0.1-0.1,0.1H133.2z"/>
		<path fill="#FFFFFF" d="M137.7,33.9c0-0.1,0.1-0.1,0.1-0.1h0.4c0.1,0,0.1,0.1,0.1,0.1l1.9,8.8c0,0.1,0,0.1-0.1,0.1h-0.4
			c-0.1,0-0.1-0.1-0.1-0.1l-0.5-2.2H137l-0.5,2.2c0,0.1-0.1,0.1-0.1,0.1H136c-0.1,0-0.1-0.1-0.1-0.1L137.7,33.9z M139.1,40l-1-4.6h0
			l-1,4.6H139.1z"/>
		<path fill="#FFFFFF" d="M143.4,33.9c0-0.1,0.1-0.1,0.1-0.1h1.6c1.1,0,1.7,0.5,2,1.4c0.2,0.5,0.2,1.1,0.2,3.2
			c0,2.1-0.1,2.7-0.2,3.2c-0.3,0.9-0.9,1.4-2,1.4h-1.6c-0.1,0-0.1-0.1-0.1-0.1V33.9z M144.2,42.3h0.9c0.8,0,1.2-0.3,1.4-0.9
			c0.1-0.4,0.2-1,0.2-3c0-2-0.1-2.6-0.2-3c-0.2-0.6-0.6-0.9-1.4-0.9h-0.9c-0.1,0-0.1,0-0.1,0.1L144.2,42.3
			C144.1,42.2,144.1,42.3,144.2,42.3z"/>
		<path fill="#FFFFFF" d="M148.7,33.9c0-0.1,0.1-0.1,0.1-0.1h0.4c0.1,0,0.1,0.1,0.1,0.1v8.8c0,0.1-0.1,0.1-0.1,0.1h-0.4
			c-0.1,0-0.1-0.1-0.1-0.1V33.9z"/>
		<path fill="#FFFFFF" d="M150.8,38.4c0-2.7,0.1-3,0.2-3.4c0.3-0.8,0.9-1.2,1.8-1.2c1.1,0,1.7,0.7,1.9,1.8c0,0.1,0,0.1-0.1,0.2
			l-0.4,0.1c-0.1,0-0.1,0-0.1-0.1c-0.1-0.9-0.5-1.3-1.2-1.3c-0.6,0-0.9,0.3-1.1,0.8c-0.1,0.3-0.1,0.6-0.1,3.2c0,2.6,0,2.9,0.1,3.2
			c0.2,0.5,0.5,0.8,1.1,0.8c0.7,0,1.1-0.5,1.2-1.4c0-0.1,0.1-0.1,0.1-0.1l0.4,0.1c0.1,0,0.1,0.1,0.1,0.2c-0.1,1.2-0.8,1.9-1.9,1.9
			c-0.9,0-1.5-0.4-1.8-1.2C150.8,41.4,150.8,41,150.8,38.4z"/>
		<path fill="#FFFFFF" d="M155.4,41.9c0-0.1,0.1-0.1,0.1-0.1h0.6c0.1,0,0.1,0.1,0.1,0.1v0.9c0,0.1-0.1,0.1-0.1,0.1h-0.6
			c-0.1,0-0.1-0.1-0.1-0.1V41.9z"/>
		<path fill="#FFFFFF" d="M159.7,33.9c0-0.1,0.1-0.1,0.1-0.1h1.6c1.1,0,1.7,0.5,2,1.4c0.2,0.5,0.2,1.1,0.2,3.2
			c0,2.1-0.1,2.7-0.2,3.2c-0.3,0.9-0.9,1.4-2,1.4h-1.6c-0.1,0-0.1-0.1-0.1-0.1V33.9z M160.4,42.3h0.9c0.8,0,1.2-0.3,1.4-0.9
			c0.1-0.4,0.2-1,0.2-3c0-2-0.1-2.6-0.2-3c-0.2-0.6-0.6-0.9-1.4-0.9h-0.9c-0.1,0-0.1,0-0.1,0.1L160.4,42.3
			C160.4,42.2,160.4,42.3,160.4,42.3z"/>
		<path fill="#FFFFFF" d="M165,33.9c0-0.1,0.1-0.1,0.1-0.1h3.1c0.1,0,0.1,0.1,0.1,0.1v0.4c0,0.1-0.1,0.1-0.1,0.1h-2.5
			c-0.1,0-0.1,0-0.1,0.1v3.3c0,0.1,0,0.1,0.1,0.1h2.1c0.1,0,0.1,0.1,0.1,0.1v0.4c0,0.1-0.1,0.1-0.1,0.1h-2.1c-0.1,0-0.1,0-0.1,0.1
			v3.5c0,0.1,0,0.1,0.1,0.1h2.5c0.1,0,0.1,0.1,0.1,0.1v0.4c0,0.1-0.1,0.1-0.1,0.1h-3.1c-0.1,0-0.1-0.1-0.1-0.1V33.9z"/>
		<path fill="#FFFFFF" d="M171.3,42.4c0-0.1,0-0.1,0.1-0.2l2.3-4.6c0.3-0.6,0.4-1,0.4-1.8c0-0.5,0-0.7-0.1-0.9
			c-0.1-0.4-0.5-0.7-1-0.7c-0.5,0-0.8,0.2-1,0.7c-0.1,0.2-0.1,0.3-0.1,1c0,0.1-0.1,0.1-0.1,0.1l-0.4,0c-0.1,0-0.1-0.1-0.1-0.2
			c0-0.7,0-0.9,0.1-1.2c0.2-0.7,0.8-1.1,1.6-1.1s1.4,0.4,1.6,1.1c0.1,0.3,0.1,0.5,0.1,1.1c0,0.9-0.2,1.4-0.5,2.1l-2.2,4.3v0h2.6
			c0.1,0,0.1,0.1,0.1,0.1v0.4c0,0.1-0.1,0.1-0.1,0.1h-3.2c-0.1,0-0.1-0.1-0.1-0.1V42.4z"/>
		<path fill="#FFFFFF" d="M175.9,38.4c0-2.9,0.1-3.3,0.1-3.6c0.3-0.8,0.8-1.1,1.6-1.1c0.8,0,1.4,0.3,1.6,1.1
			c0.1,0.3,0.1,0.7,0.1,3.6c0,2.9-0.1,3.3-0.1,3.5c-0.3,0.8-0.8,1.1-1.6,1.1c-0.8,0-1.4-0.3-1.6-1.1C176,41.6,175.9,41.3,175.9,38.4
			z M177.7,42.4c0.5,0,0.8-0.2,1-0.7c0.1-0.2,0.1-0.6,0.1-3.3c0-2.8,0-3.1-0.1-3.3c-0.1-0.5-0.5-0.7-1-0.7c-0.5,0-0.8,0.2-1,0.7
			c-0.1,0.2-0.1,0.5-0.1,3.3c0,2.8,0,3.1,0.1,3.3C176.9,42.2,177.2,42.4,177.7,42.4z"/>
		<path fill="#FFFFFF" d="M180.6,42.4c0-0.1,0-0.1,0.1-0.2l2.3-4.6c0.3-0.6,0.4-1,0.4-1.8c0-0.5,0-0.7-0.1-0.9
			c-0.1-0.4-0.5-0.7-1-0.7c-0.5,0-0.8,0.2-1,0.7c-0.1,0.2-0.1,0.3-0.1,1c0,0.1-0.1,0.1-0.1,0.1l-0.4,0c-0.1,0-0.1-0.1-0.1-0.2
			c0-0.7,0-0.9,0.1-1.2c0.2-0.7,0.8-1.1,1.6-1.1s1.4,0.4,1.6,1.1c0.1,0.3,0.1,0.5,0.1,1.1c0,0.9-0.2,1.4-0.5,2.1l-2.2,4.3v0h2.6
			c0.1,0,0.1,0.1,0.1,0.1v0.4c0,0.1-0.1,0.1-0.1,0.1h-3.2c-0.1,0-0.1-0.1-0.1-0.1V42.4z"/>
		<path fill="#FFFFFF" d="M184.8,41.1v-0.3c0-0.1,0-0.1,0-0.2l1.9-6.7c0-0.1,0.1-0.1,0.2-0.1h0.4c0.1,0,0.1,0.1,0.1,0.1l-1.9,6.6v0
			h1.8c0.1,0,0.1,0,0.1-0.1v-2.7c0-0.1,0.1-0.1,0.1-0.1h0.4c0.1,0,0.1,0.1,0.1,0.1v2.7c0,0.1,0,0.1,0.1,0.1h0.8
			c0.1,0,0.1,0.1,0.1,0.1v0.4c0,0.1-0.1,0.1-0.1,0.1h-0.8c-0.1,0-0.1,0-0.1,0.1v1.5c0,0.1-0.1,0.1-0.1,0.1h-0.4
			c-0.1,0-0.1-0.1-0.1-0.1v-1.5c0-0.1,0-0.1-0.1-0.1H185C184.9,41.2,184.8,41.2,184.8,41.1z"/>
	</g>
</g>
<g>
	<g>
		<g>
			<path fill="#FFFFFF" d="M70.3,16.6c0-0.1,0.1-0.1,0.2-0.1h1.8c0.1,0,0.1,0.1,0.2,0.1l2.2,9.9c0,0.1,0,0.2-0.1,0.2h-1.7
				c-0.1,0-0.1-0.1-0.2-0.2l-0.3-1.8h-1.9l-0.3,1.8c0,0.1-0.1,0.2-0.2,0.2h-1.7c-0.1,0-0.1-0.1-0.1-0.2L70.3,16.6z M72.1,23.1
				l-0.6-3.5h0l-0.7,3.5H72.1z"/>
			<path fill="#FFFFFF" d="M75.1,21.6c0-2.6,0.1-3.1,0.2-3.5c0.4-1.1,1.2-1.7,2.5-1.7c1.6,0,2.6,0.9,2.7,2.6c0,0.1,0,0.2-0.1,0.2
				l-1.6,0.3c-0.1,0-0.2,0-0.2-0.1c0-0.8-0.3-1.1-0.8-1.1c-0.4,0-0.6,0.1-0.7,0.5c-0.1,0.2-0.1,0.4-0.1,3s0,2.8,0.1,3
				c0.1,0.3,0.3,0.5,0.7,0.5c0.5,0,0.8-0.3,0.8-1.1c0-0.1,0.1-0.2,0.2-0.1l1.6,0.3c0.1,0,0.1,0.1,0.1,0.2c-0.1,1.7-1,2.6-2.7,2.6
				c-1.3,0-2.2-0.6-2.5-1.7C75.2,24.7,75.1,24.2,75.1,21.6z"/>
			<path fill="#FFFFFF" d="M85.2,26.7c-0.1,0-0.1,0-0.2-0.1l-1.2-3.9h-0.6c-0.1,0-0.1,0-0.1,0.1v3.7c0,0.1-0.1,0.2-0.2,0.2h-1.7
				c-0.1,0-0.1-0.1-0.1-0.2v-9.9c0-0.1,0.1-0.1,0.1-0.1h2.4c1.8,0,3,0.9,3,3.1c0,1.3-0.4,2.1-1.1,2.6l1.4,4.3c0,0.1,0,0.2-0.1,0.2
				H85.2z M84.8,19.6c0-1.1-0.3-1.4-1.1-1.4h-0.4c-0.1,0-0.1,0-0.1,0.1v2.6c0,0.1,0,0.1,0.1,0.1h0.4C84.5,21,84.8,20.7,84.8,19.6z"
				/>
			<path fill="#FFFFFF" d="M87.8,16.6c0-0.1,0.1-0.1,0.1-0.1h4.5c0.1,0,0.1,0.1,0.1,0.1v1.5c0,0.1-0.1,0.2-0.1,0.2h-2.5
				c-0.1,0-0.1,0-0.1,0.1v2.2c0,0.1,0,0.1,0.1,0.1h2.2c0.1,0,0.1,0.1,0.1,0.1v1.5c0,0.1-0.1,0.2-0.1,0.2h-2.2c-0.1,0-0.1,0-0.1,0.1
				v2.3c0,0.1,0,0.1,0.1,0.1h2.5c0.1,0,0.1,0.1,0.1,0.1v1.5c0,0.1-0.1,0.2-0.1,0.2H88c-0.1,0-0.1-0.1-0.1-0.2V16.6z"/>
			<path fill="#FFFFFF" d="M93.5,16.6c0-0.1,0.1-0.1,0.1-0.1h2.6c1.4,0,2.2,0.5,2.6,1.7c0.2,0.6,0.3,1.3,0.3,3.4
				c0,2.1-0.1,2.8-0.3,3.4c-0.4,1.2-1.2,1.7-2.6,1.7h-2.6c-0.1,0-0.1-0.1-0.1-0.2V16.6z M95.5,24.9H96c0.5,0,0.8-0.2,0.9-0.6
				c0.1-0.3,0.2-0.8,0.2-2.7s0-2.4-0.2-2.7c-0.1-0.5-0.4-0.6-0.9-0.6h-0.5c-0.1,0-0.1,0-0.1,0.1L95.5,24.9
				C95.4,24.9,95.5,24.9,95.5,24.9z"/>
			<path fill="#FFFFFF" d="M100.1,16.6c0-0.1,0.1-0.1,0.1-0.1h1.7c0.1,0,0.2,0.1,0.2,0.1v9.9c0,0.1-0.1,0.2-0.2,0.2h-1.7
				c-0.1,0-0.1-0.1-0.1-0.2V16.6z"/>
			<path fill="#FFFFFF" d="M104.7,26.7c-0.1,0-0.2-0.1-0.2-0.2v-8.2c0-0.1,0-0.1-0.1-0.1h-1.6c-0.1,0-0.2-0.1-0.2-0.2v-1.5
				c0-0.1,0.1-0.1,0.2-0.1h5.4c0.1,0,0.2,0.1,0.2,0.1v1.5c0,0.1-0.1,0.2-0.2,0.2h-1.6c-0.1,0-0.1,0-0.1,0.1v8.2
				c0,0.1-0.1,0.2-0.1,0.2H104.7z"/>
			<path fill="#FFFFFF" d="M110.8,16.6c0-0.1,0.1-0.1,0.2-0.1h1.8c0.1,0,0.1,0.1,0.2,0.1l2.2,9.9c0,0.1,0,0.2-0.1,0.2h-1.7
				c-0.1,0-0.1-0.1-0.2-0.2l-0.3-1.8h-1.9l-0.3,1.8c0,0.1-0.1,0.2-0.2,0.2h-1.7c-0.1,0-0.1-0.1-0.1-0.2L110.8,16.6z M112.5,23.1
				l-0.6-3.5h0l-0.7,3.5H112.5z"/>
			<path fill="#FFFFFF" d="M115.7,16.6c0-0.1,0.1-0.1,0.1-0.1h2.6c1.4,0,2.2,0.5,2.6,1.7c0.2,0.6,0.3,1.3,0.3,3.4
				c0,2.1-0.1,2.8-0.3,3.4c-0.4,1.2-1.2,1.7-2.6,1.7h-2.6c-0.1,0-0.1-0.1-0.1-0.2V16.6z M117.7,24.9h0.5c0.5,0,0.8-0.2,0.9-0.6
				c0.1-0.3,0.2-0.8,0.2-2.7s0-2.4-0.2-2.7c-0.1-0.5-0.4-0.6-0.9-0.6h-0.5c-0.1,0-0.1,0-0.1,0.1L117.7,24.9
				C117.6,24.9,117.7,24.9,117.7,24.9z"/>
			<path fill="#FFFFFF" d="M122.4,25.1c-0.2-0.5-0.2-0.9-0.2-3.5s0-3,0.2-3.5c0.4-1.1,1.3-1.7,2.6-1.7c1.3,0,2.2,0.6,2.6,1.7
				c0.2,0.5,0.2,0.9,0.2,3.5s0,3-0.2,3.5c-0.4,1.1-1.3,1.7-2.6,1.7C123.6,26.8,122.7,26.2,122.4,25.1z M125.7,24.6
				c0.1-0.2,0.1-0.5,0.1-3s0-2.7-0.1-3c-0.1-0.3-0.3-0.5-0.7-0.5c-0.4,0-0.6,0.2-0.7,0.5c-0.1,0.2-0.1,0.5-0.1,3s0,2.7,0.1,3
				c0.1,0.3,0.3,0.5,0.7,0.5C125.3,25.1,125.6,24.8,125.7,24.6z"/>
		</g>
	</g>
</g>
<g>
</g>
<g>
</g>
<g>
</g>
<g>
</g>
<g>
</g>
<g>
</g>
</svg>
