<?xml version="1.0" encoding="utf-8"?>
<!-- Generator: Adobe Illustrator 26.1.0, SVG Export Plug-In . SVG Version: 6.00 Build 0)  -->
<svg version="1.0" id="Capa_1" xmlns="http://www.w3.org/2000/svg" xmlns:xlink="http://www.w3.org/1999/xlink" x="0px" y="0px"
	 viewBox="0 0 177.4 56.9" enable-background="new 0 0 177.4 56.9" xml:space="preserve">
<g>
	<path fill="#FFFFFF" d="M30.8,9.6V2.9c0-0.1,0.1-0.1,0.1-0.1h1.2c0.1,0,0.1,0.1,0.1,0.1v6.8c0,0.6,0.3,1,0.8,1c0.5,0,0.8-0.4,0.8-1
		V2.9c0-0.1,0.1-0.1,0.1-0.1h1.2c0.1,0,0.1,0.1,0.1,0.1v6.7c0,1.6-0.9,2.4-2.3,2.4C31.6,12,30.8,11.2,30.8,9.6z"/>
	<path fill="#FFFFFF" d="M36.7,2.9c0-0.1,0.1-0.1,0.1-0.1h1.4c0.1,0,0.2,0,0.2,0.1l1.7,6.3h0.1V2.9c0-0.1,0.1-0.1,0.1-0.1h1
		c0.1,0,0.1,0.1,0.1,0.1v8.8c0,0.1-0.1,0.1-0.1,0.1H40c-0.1,0-0.2,0-0.2-0.1l-1.8-6.3H38v6.3c0,0.1-0.1,0.1-0.1,0.1h-1
		c-0.1,0-0.1-0.1-0.1-0.1V2.9z"/>
	<path fill="#FFFFFF" d="M42.9,2.9c0-0.1,0.1-0.1,0.1-0.1h1.2c0.1,0,0.1,0.1,0.1,0.1v8.8c0,0.1-0.1,0.1-0.1,0.1H43
		c-0.1,0-0.1-0.1-0.1-0.1V2.9z"/>
	<path fill="#FFFFFF" d="M47.2,11.9c-0.1,0-0.1-0.1-0.1-0.1l-1.8-8.8c0-0.1,0-0.1,0.1-0.1h1.2c0.1,0,0.1,0,0.1,0.1l1.1,6.1h0l1-6.1
		c0-0.1,0.1-0.1,0.1-0.1h1.1c0.1,0,0.1,0.1,0.1,0.1l-1.8,8.8c0,0.1-0.1,0.1-0.1,0.1H47.2z"/>
	<path fill="#FFFFFF" d="M51.1,2.9c0-0.1,0.1-0.1,0.1-0.1H55c0.1,0,0.1,0.1,0.1,0.1v1c0,0.1-0.1,0.1-0.1,0.1h-2.4
		c-0.1,0-0.1,0-0.1,0.1v2.4c0,0.1,0,0.1,0.1,0.1h2c0.1,0,0.1,0.1,0.1,0.1v1c0,0.1-0.1,0.1-0.1,0.1h-2c-0.1,0-0.1,0-0.1,0.1v2.5
		c0,0.1,0,0.1,0.1,0.1H55c0.1,0,0.1,0.1,0.1,0.1v1c0,0.1-0.1,0.1-0.1,0.1h-3.7c-0.1,0-0.1-0.1-0.1-0.1V2.9z"/>
	<path fill="#FFFFFF" d="M59.7,11.9c-0.1,0-0.1,0-0.1-0.1l-1.1-3.6h-0.2h-0.5c-0.1,0-0.1,0-0.1,0.1v3.5c0,0.1-0.1,0.1-0.1,0.1h-1.2
		c-0.1,0-0.1-0.1-0.1-0.1V2.9c0-0.1,0.1-0.1,0.1-0.1h1.8c1.6,0,2.6,0.7,2.6,2.7c0,1.2-0.4,1.9-1.1,2.3l1.3,3.9c0,0.1,0,0.1-0.1,0.1
		H59.7z M59.4,5.5c0-1.1-0.3-1.4-1.2-1.4h-0.5c-0.1,0-0.1,0-0.1,0.1v2.7c0,0.1,0,0.1,0.1,0.1h0.5C59,6.9,59.4,6.6,59.4,5.5z"/>
	<path fill="#FFFFFF" d="M64,12c-1.5,0-2.2-0.8-2.3-2.4c0-0.1,0-0.1,0.1-0.1L63,9.3c0.1,0,0.1,0,0.1,0.1c0,1,0.3,1.3,0.9,1.3
		c0.6,0,0.9-0.3,0.9-1.3c0-1-0.2-1.3-0.9-1.6l-0.5-0.2c-1.3-0.5-1.6-1.2-1.6-2.6c0-1.6,0.7-2.4,2.2-2.4c1.5,0,2.2,0.8,2.2,2.2
		c0,0.1,0,0.1-0.1,0.1l-1.1,0.2c-0.1,0-0.1,0-0.1-0.1c0-0.8-0.3-1.2-0.9-1.2c-0.6,0-0.8,0.3-0.8,1.1c0,0.8,0.2,1.1,0.9,1.4l0.5,0.2
		c1.2,0.5,1.7,1.1,1.7,2.7C66.4,11.1,65.8,12,64,12z"/>
	<path fill="#FFFFFF" d="M67.5,2.9c0-0.1,0.1-0.1,0.1-0.1h1.2c0.1,0,0.1,0.1,0.1,0.1v8.8c0,0.1-0.1,0.1-0.1,0.1h-1.2
		c-0.1,0-0.1-0.1-0.1-0.1V2.9z"/>
	<path fill="#FFFFFF" d="M70.3,2.9c0-0.1,0.1-0.1,0.1-0.1h2.1c1.2,0,1.9,0.5,2.2,1.5C74.9,4.7,75,5.4,75,7.3c0,2-0.1,2.6-0.2,3.1
		c-0.3,1-1,1.5-2.2,1.5h-2.1c-0.1,0-0.1-0.1-0.1-0.1V2.9z M71.8,10.6h0.6c0.5,0,0.8-0.2,1-0.7c0.1-0.3,0.2-0.8,0.2-2.6
		c0-1.8-0.1-2.3-0.2-2.6c-0.2-0.5-0.5-0.7-1-0.7h-0.6c-0.1,0-0.1,0-0.1,0.1L71.8,10.6C71.8,10.6,71.8,10.6,71.8,10.6z"/>
	<path fill="#FFFFFF" d="M77.5,2.9c0-0.1,0.1-0.1,0.1-0.1h1.1c0.1,0,0.1,0.1,0.1,0.1l1.9,8.8c0,0.1,0,0.1-0.1,0.1h-1.1
		c-0.1,0-0.1-0.1-0.1-0.1l-0.4-1.8h-1.8l-0.4,1.8c0,0.1-0.1,0.1-0.1,0.1h-1.1c-0.1,0-0.1-0.1-0.1-0.1L77.5,2.9z M78.9,8.7l-0.6-3.4
		h0l-0.7,3.4H78.9z"/>
	<path fill="#FFFFFF" d="M81.7,2.9c0-0.1,0.1-0.1,0.1-0.1h2.1c1.2,0,1.9,0.5,2.2,1.5c0.2,0.5,0.2,1.1,0.2,3.1c0,2-0.1,2.6-0.2,3.1
		c-0.3,1-1,1.5-2.2,1.5h-2.1c-0.1,0-0.1-0.1-0.1-0.1V2.9z M83.2,10.6h0.6c0.5,0,0.8-0.2,1-0.7c0.1-0.3,0.2-0.8,0.2-2.6
		c0-1.8-0.1-2.3-0.2-2.6c-0.2-0.5-0.5-0.7-1-0.7h-0.6c-0.1,0-0.1,0-0.1,0.1L83.2,10.6C83.1,10.6,83.2,10.6,83.2,10.6z"/>
	<path fill="#FFFFFF" d="M92.2,12c-1.5,0-2.2-0.8-2.3-2.4c0-0.1,0-0.1,0.1-0.1l1.1-0.2c0.1,0,0.1,0,0.1,0.1c0,1,0.3,1.3,0.9,1.3
		c0.6,0,0.9-0.3,0.9-1.3c0-1-0.2-1.3-0.9-1.6l-0.5-0.2C90.4,7.2,90,6.5,90,5.1c0-1.6,0.7-2.4,2.2-2.4c1.5,0,2.2,0.8,2.2,2.2
		c0,0.1,0,0.1-0.1,0.1l-1.1,0.2c-0.1,0-0.1,0-0.1-0.1c0-0.8-0.3-1.2-0.9-1.2c-0.6,0-0.8,0.3-0.8,1.1c0,0.8,0.2,1.1,0.9,1.4l0.5,0.2
		c1.2,0.5,1.7,1.1,1.7,2.7C94.6,11.1,93.9,12,92.2,12z"/>
	<path fill="#FFFFFF" d="M96.9,2.9c0-0.1,0.1-0.1,0.1-0.1h1.1c0.1,0,0.1,0.1,0.1,0.1l1.9,8.8c0,0.1,0,0.1-0.1,0.1H99
		c-0.1,0-0.1-0.1-0.1-0.1l-0.4-1.8h-1.8l-0.4,1.8c0,0.1-0.1,0.1-0.1,0.1H95c-0.1,0-0.1-0.1-0.1-0.1L96.9,2.9z M98.2,8.7l-0.6-3.4h0
		l-0.7,3.4H98.2z"/>
	<path fill="#FFFFFF" d="M100.9,2.9c0-0.1,0.1-0.1,0.1-0.1h1.4c0.1,0,0.2,0,0.2,0.1l1.7,6.3h0.1V2.9c0-0.1,0.1-0.1,0.1-0.1h1
		c0.1,0,0.1,0.1,0.1,0.1v8.8c0,0.1-0.1,0.1-0.1,0.1h-1.3c-0.1,0-0.2,0-0.2-0.1l-1.8-6.3h-0.1v6.3c0,0.1-0.1,0.1-0.1,0.1h-1
		c-0.1,0-0.1-0.1-0.1-0.1V2.9z"/>
	<path fill="#FFFFFF" d="M108.1,11.9c-0.1,0-0.1-0.1-0.1-0.1V4.2c0-0.1,0-0.1-0.1-0.1h-1.4c-0.1,0-0.1-0.1-0.1-0.1v-1
		c0-0.1,0.1-0.1,0.1-0.1h4.4c0.1,0,0.1,0.1,0.1,0.1v1c0,0.1-0.1,0.1-0.1,0.1h-1.4c-0.1,0-0.1,0-0.1,0.1v7.6c0,0.1-0.1,0.1-0.1,0.1
		H108.1z"/>
	<path fill="#FFFFFF" d="M111.8,10.6c-0.1-0.4-0.2-0.7-0.2-3.3c0-2.5,0-2.9,0.2-3.3c0.3-0.9,1-1.4,2.2-1.4c1.1,0,1.8,0.5,2.1,1.4
		c0.1,0.4,0.2,0.7,0.2,3.3c0,2.5,0,2.9-0.2,3.3c-0.3,0.9-1,1.4-2.1,1.4C112.8,12,112,11.5,111.8,10.6z M114.7,10.2
		c0.1-0.3,0.1-0.4,0.1-2.9c0-2.5,0-2.6-0.1-2.9c-0.1-0.3-0.4-0.5-0.8-0.5c-0.4,0-0.7,0.2-0.8,0.5c-0.1,0.3-0.1,0.4-0.1,2.9
		c0,2.5,0,2.6,0.1,2.9c0.1,0.3,0.4,0.5,0.8,0.5C114.3,10.7,114.6,10.5,114.7,10.2z"/>
	<path fill="#FFFFFF" d="M120.9,11.9c-0.1,0-0.1-0.1-0.1-0.1V4.2c0-0.1,0-0.1-0.1-0.1h-1.4c-0.1,0-0.1-0.1-0.1-0.1v-1
		c0-0.1,0.1-0.1,0.1-0.1h4.4c0.1,0,0.1,0.1,0.1,0.1v1c0,0.1-0.1,0.1-0.1,0.1h-1.4c-0.1,0-0.1,0-0.1,0.1v7.6c0,0.1-0.1,0.1-0.1,0.1
		H120.9z"/>
	<path fill="#FFFFFF" d="M124.6,10.6c-0.1-0.4-0.2-0.7-0.2-3.3c0-2.5,0-2.9,0.2-3.3c0.3-0.9,1-1.4,2.2-1.4c1.1,0,1.8,0.5,2.1,1.4
		c0.1,0.4,0.2,0.7,0.2,3.3c0,2.5,0,2.9-0.2,3.3c-0.3,0.9-1,1.4-2.1,1.4C125.6,12,124.9,11.5,124.6,10.6z M127.5,10.2
		c0.1-0.3,0.1-0.4,0.1-2.9c0-2.5,0-2.6-0.1-2.9c-0.1-0.3-0.4-0.5-0.8-0.5c-0.4,0-0.7,0.2-0.8,0.5c-0.1,0.3-0.1,0.4-0.1,2.9
		c0,2.5,0,2.6,0.1,2.9c0.1,0.3,0.4,0.5,0.8,0.5C127.1,10.7,127.4,10.5,127.5,10.2z"/>
	<path fill="#FFFFFF" d="M130.1,2.9c0-0.1,0.1-0.1,0.1-0.1h1.2c0.1,0,0.2,0,0.2,0.1l1.5,5.1h0.1l1.5-5.1c0-0.1,0.1-0.1,0.2-0.1h1.2
		c0.1,0,0.1,0.1,0.1,0.1v8.8c0,0.1-0.1,0.1-0.1,0.1h-1c-0.1,0-0.1-0.1-0.1-0.1V6h-0.1l-1.2,4.1c0,0.1-0.1,0.1-0.2,0.1h-0.6
		c-0.1,0-0.1-0.1-0.2-0.1L131.5,6h-0.1v5.8c0,0.1-0.1,0.1-0.1,0.1h-1c-0.1,0-0.1-0.1-0.1-0.1V2.9z"/>
	<path fill="#FFFFFF" d="M138.8,2.9c0-0.1,0.1-0.1,0.1-0.1h1.1c0.1,0,0.1,0.1,0.1,0.1l1.9,8.8c0,0.1,0,0.1-0.1,0.1h-1.1
		c-0.1,0-0.1-0.1-0.1-0.1l-0.4-1.8h-1.8l-0.4,1.8c0,0.1-0.1,0.1-0.1,0.1H137c-0.1,0-0.1-0.1-0.1-0.1L138.8,2.9z M140.2,8.7l-0.6-3.4
		h0l-0.7,3.4H140.2z M139.1,1.7c-0.1,0-0.1-0.1-0.1-0.1l1-1.4c0.1-0.1,0.1-0.1,0.2-0.1h1.1c0.1,0,0.1,0.1,0.1,0.1l-1.3,1.4
		c-0.1,0.1-0.2,0.1-0.3,0.1H139.1z"/>
	<path fill="#FFFFFF" d="M144.8,12c-1.5,0-2.2-0.8-2.3-2.4c0-0.1,0-0.1,0.1-0.1l1.1-0.2c0.1,0,0.1,0,0.1,0.1c0,1,0.3,1.3,0.9,1.3
		c0.6,0,0.9-0.3,0.9-1.3c0-1-0.2-1.3-0.9-1.6l-0.5-0.2c-1.3-0.5-1.6-1.2-1.6-2.6c0-1.6,0.7-2.4,2.2-2.4c1.5,0,2.2,0.8,2.2,2.2
		c0,0.1,0,0.1-0.1,0.1l-1.1,0.2c-0.1,0-0.1,0-0.1-0.1c0-0.8-0.3-1.2-0.9-1.2c-0.6,0-0.8,0.3-0.8,1.1c0,0.8,0.2,1.1,0.9,1.4l0.5,0.2
		c1.2,0.5,1.7,1.1,1.7,2.7C147.2,11.1,146.6,12,144.8,12z"/>
</g>
<g>
	<path fill="#FFFFFF" d="M18.8,17.2c0-0.1,0.1-0.1,0.2-0.1h1.8c0.1,0,0.1,0.1,0.2,0.1l2.2,9.9c0,0.1,0,0.2-0.1,0.2h-1.7
		c-0.1,0-0.1-0.1-0.2-0.2l-0.3-1.8h-1.9l-0.3,1.8c0,0.1-0.1,0.2-0.2,0.2h-1.7c-0.1,0-0.1-0.1-0.1-0.2L18.8,17.2z M20.5,23.7
		l-0.6-3.5h0l-0.7,3.5H20.5z"/>
	<path fill="#FFFFFF" d="M23.6,22.2c0-2.6,0.1-3.1,0.2-3.5c0.4-1.1,1.2-1.7,2.5-1.7c1.6,0,2.6,0.9,2.7,2.6c0,0.1,0,0.2-0.1,0.2
		L27.3,20c-0.1,0-0.2,0-0.2-0.1c0-0.8-0.3-1.1-0.8-1.1c-0.4,0-0.6,0.1-0.7,0.5c-0.1,0.2-0.1,0.4-0.1,3s0,2.8,0.1,3
		c0.1,0.3,0.3,0.5,0.7,0.5c0.5,0,0.8-0.3,0.8-1.1c0-0.1,0.1-0.2,0.2-0.1l1.6,0.3c0.1,0,0.1,0.1,0.1,0.2c-0.1,1.7-1,2.6-2.7,2.6
		c-1.3,0-2.2-0.6-2.5-1.7C23.6,25.3,23.6,24.8,23.6,22.2z"/>
	<path fill="#FFFFFF" d="M33.6,27.3c-0.1,0-0.1,0-0.2-0.1l-1.2-3.9h-0.6c-0.1,0-0.1,0-0.1,0.1v3.7c0,0.1-0.1,0.2-0.2,0.2h-1.7
		c-0.1,0-0.1-0.1-0.1-0.2v-9.9c0-0.1,0.1-0.1,0.1-0.1h2.4c1.8,0,3,0.9,3,3.1c0,1.3-0.4,2.1-1.1,2.6l1.4,4.3c0,0.1,0,0.2-0.1,0.2
		H33.6z M33.3,20.2c0-1.1-0.3-1.4-1.1-1.4h-0.4c-0.1,0-0.1,0-0.1,0.1v2.6c0,0.1,0,0.1,0.1,0.1h0.4C32.9,21.6,33.3,21.3,33.3,20.2z"
		/>
	<path fill="#FFFFFF" d="M36.3,17.2c0-0.1,0.1-0.1,0.1-0.1h4.5c0.1,0,0.1,0.1,0.1,0.1v1.5c0,0.1-0.1,0.2-0.1,0.2h-2.5
		c-0.1,0-0.1,0-0.1,0.1v2.2c0,0.1,0,0.1,0.1,0.1h2.2c0.1,0,0.1,0.1,0.1,0.1v1.5c0,0.1-0.1,0.2-0.1,0.2h-2.2c-0.1,0-0.1,0-0.1,0.1
		v2.3c0,0.1,0,0.1,0.1,0.1h2.5c0.1,0,0.1,0.1,0.1,0.1v1.5c0,0.1-0.1,0.2-0.1,0.2h-4.5c-0.1,0-0.1-0.1-0.1-0.2V17.2z"/>
	<path fill="#FFFFFF" d="M41.9,17.2c0-0.1,0.1-0.1,0.1-0.1h2.6c1.4,0,2.2,0.5,2.6,1.7c0.2,0.6,0.3,1.3,0.3,3.4
		c0,2.1-0.1,2.8-0.3,3.4c-0.4,1.2-1.2,1.7-2.6,1.7h-2.6c-0.1,0-0.1-0.1-0.1-0.2V17.2z M44,25.5h0.5c0.5,0,0.8-0.2,0.9-0.6
		c0.1-0.3,0.2-0.7,0.2-2.7s0-2.4-0.2-2.7c-0.1-0.5-0.4-0.6-0.9-0.6H44c-0.1,0-0.1,0-0.1,0.1L44,25.5C43.9,25.5,43.9,25.5,44,25.5z"
		/>
	<path fill="#FFFFFF" d="M48.6,17.2c0-0.1,0.1-0.1,0.1-0.1h1.7c0.1,0,0.2,0.1,0.2,0.1v9.9c0,0.1-0.1,0.2-0.2,0.2h-1.7
		c-0.1,0-0.1-0.1-0.1-0.2V17.2z"/>
	<path fill="#FFFFFF" d="M53.2,27.3c-0.1,0-0.2-0.1-0.2-0.2V19c0-0.1,0-0.1-0.1-0.1h-1.6c-0.1,0-0.2-0.1-0.2-0.2v-1.5
		c0-0.1,0.1-0.1,0.2-0.1h5.4c0.1,0,0.2,0.1,0.2,0.1v1.5c0,0.1-0.1,0.2-0.2,0.2h-1.6c-0.1,0-0.1,0-0.1,0.1v8.2c0,0.1-0.1,0.2-0.1,0.2
		H53.2z"/>
	<path fill="#FFFFFF" d="M59.2,17.2c0-0.1,0.1-0.1,0.2-0.1h1.8c0.1,0,0.1,0.1,0.2,0.1l2.2,9.9c0,0.1,0,0.2-0.1,0.2h-1.7
		c-0.1,0-0.1-0.1-0.2-0.2l-0.3-1.8h-1.9L59,27.1c0,0.1-0.1,0.2-0.2,0.2h-1.7c-0.1,0-0.1-0.1-0.1-0.2L59.2,17.2z M60.9,23.7l-0.6-3.5
		h0l-0.7,3.5H60.9z"/>
	<path fill="#FFFFFF" d="M64.1,17.2c0-0.1,0.1-0.1,0.1-0.1h2.6c1.4,0,2.2,0.5,2.6,1.7c0.2,0.6,0.3,1.3,0.3,3.4
		c0,2.1-0.1,2.8-0.3,3.4c-0.4,1.2-1.2,1.7-2.6,1.7h-2.6c-0.1,0-0.1-0.1-0.1-0.2V17.2z M66.2,25.5h0.5c0.5,0,0.8-0.2,0.9-0.6
		c0.1-0.3,0.2-0.7,0.2-2.7s0-2.4-0.2-2.7c-0.1-0.5-0.4-0.6-0.9-0.6h-0.5c-0.1,0-0.1,0-0.1,0.1L66.2,25.5
		C66.1,25.5,66.1,25.5,66.2,25.5z"/>
	<path fill="#FFFFFF" d="M72.4,17.2c0-0.1,0.1-0.1,0.2-0.1h1.8c0.1,0,0.1,0.1,0.2,0.1l2.2,9.9c0,0.1,0,0.2-0.1,0.2h-1.7
		c-0.1,0-0.1-0.1-0.2-0.2l-0.3-1.8h-1.9l-0.3,1.8c0,0.1-0.1,0.2-0.2,0.2h-1.7c-0.1,0-0.1-0.1-0.1-0.2L72.4,17.2z M74.1,23.7
		l-0.6-3.5h0l-0.7,3.5H74.1z"/>
	<path fill="#FFFFFF" d="M80,17.2c0-0.1,0.1-0.1,0.1-0.1h1.9c0.1,0,0.2,0,0.2,0.1l1.7,6.4H84v-6.4c0-0.1,0.1-0.1,0.2-0.1h1.4
		c0.1,0,0.2,0.1,0.2,0.1v9.9c0,0.1-0.1,0.2-0.2,0.2h-1.8c-0.1,0-0.2,0-0.2-0.2l-1.8-6.4h-0.1v6.4c0,0.1-0.1,0.2-0.2,0.2h-1.4
		c-0.1,0-0.1-0.1-0.1-0.2V17.2z"/>
	<path fill="#FFFFFF" d="M86.9,17.2c0-0.1,0.1-0.1,0.1-0.1h1.7c0.1,0,0.2,0.1,0.2,0.1v9.9c0,0.1-0.1,0.2-0.2,0.2h-1.7
		c-0.1,0-0.1-0.1-0.1-0.2V17.2z"/>
	<path fill="#FFFFFF" d="M91.8,27.3c-0.1,0-0.1-0.1-0.2-0.2l-2-9.9c0-0.1,0-0.1,0.1-0.1h1.7c0.1,0,0.1,0,0.2,0.1l1,6.5h0l1-6.5
		c0-0.1,0.1-0.1,0.2-0.1h1.7c0.1,0,0.1,0.1,0.1,0.1l-2,9.9c0,0.1-0.1,0.2-0.2,0.2H91.8z"/>
	<path fill="#FFFFFF" d="M96.3,17.2c0-0.1,0.1-0.1,0.1-0.1h4.5c0.1,0,0.1,0.1,0.1,0.1v1.5c0,0.1-0.1,0.2-0.1,0.2h-2.5
		c-0.1,0-0.1,0-0.1,0.1v2.2c0,0.1,0,0.1,0.1,0.1h2.2c0.1,0,0.1,0.1,0.1,0.1v1.5c0,0.1-0.1,0.2-0.1,0.2h-2.2c-0.1,0-0.1,0-0.1,0.1
		v2.3c0,0.1,0,0.1,0.1,0.1h2.5c0.1,0,0.1,0.1,0.1,0.1v1.5c0,0.1-0.1,0.2-0.1,0.2h-4.5c-0.1,0-0.1-0.1-0.1-0.2V17.2z"/>
	<path fill="#FFFFFF" d="M101.9,17.2c0-0.1,0.1-0.1,0.1-0.1h1.7c0.1,0,0.2,0.1,0.2,0.1v8.2c0,0.1,0,0.1,0.1,0.1h2.6
		c0.1,0,0.1,0.1,0.1,0.1v1.5c0,0.1-0.1,0.2-0.1,0.2h-4.5c-0.1,0-0.1-0.1-0.1-0.2V17.2z"/>
	<path fill="#FFFFFF" d="M111.9,17.2c0-0.1,0.1-0.1,0.2-0.1h1.8c0.1,0,0.1,0.1,0.2,0.1l2.2,9.9c0,0.1,0,0.2-0.1,0.2h-1.7
		c-0.1,0-0.1-0.1-0.2-0.2l-0.3-1.8h-1.9l-0.3,1.8c0,0.1-0.1,0.2-0.2,0.2h-1.7c-0.1,0-0.1-0.1-0.1-0.2L111.9,17.2z M113.6,23.7
		l-0.6-3.5h0l-0.7,3.5H113.6z"/>
	<path fill="#FFFFFF" d="M118.5,27.3c-0.1,0-0.1-0.1-0.2-0.2l-2-9.9c0-0.1,0-0.1,0.1-0.1h1.7c0.1,0,0.1,0,0.2,0.1l1,6.5h0l1-6.5
		c0-0.1,0.1-0.1,0.2-0.1h1.7c0.1,0,0.1,0.1,0.1,0.1l-2,9.9c0,0.1-0.1,0.2-0.2,0.2H118.5z"/>
	<path fill="#FFFFFF" d="M124.6,17.2c0-0.1,0.1-0.1,0.2-0.1h1.8c0.1,0,0.1,0.1,0.2,0.1l2.2,9.9c0,0.1,0,0.2-0.1,0.2h-1.7
		c-0.1,0-0.1-0.1-0.2-0.2l-0.3-1.8h-1.9l-0.3,1.8c0,0.1-0.1,0.2-0.2,0.2h-1.7c-0.1,0-0.1-0.1-0.1-0.2L124.6,17.2z M126.4,23.7
		l-0.6-3.5h0l-0.7,3.5H126.4z"/>
	<path fill="#FFFFFF" d="M129.6,17.2c0-0.1,0.1-0.1,0.1-0.1h1.9c0.1,0,0.2,0,0.2,0.1l1.7,6.4h0.1v-6.4c0-0.1,0.1-0.1,0.2-0.1h1.4
		c0.1,0,0.2,0.1,0.2,0.1v9.9c0,0.1-0.1,0.2-0.2,0.2h-1.8c-0.1,0-0.2,0-0.2-0.2l-1.8-6.4h-0.1v6.4c0,0.1-0.1,0.2-0.2,0.2h-1.4
		c-0.1,0-0.1-0.1-0.1-0.2V17.2z"/>
	<path fill="#FFFFFF" d="M136.4,27.3c-0.1,0-0.2-0.1-0.2-0.2v-1.4c0-0.1,0-0.1,0-0.2l2.7-6.7v0h-2.4c-0.1,0-0.1-0.1-0.1-0.2v-1.5
		c0-0.1,0.1-0.1,0.1-0.1h4.4c0.1,0,0.1,0.1,0.1,0.1v1.4c0,0.1,0,0.1,0,0.2l-2.7,6.7v0h2.6c0.1,0,0.1,0.1,0.1,0.1v1.5
		c0,0.1-0.1,0.2-0.1,0.2H136.4z"/>
	<path fill="#FFFFFF" d="M143.6,17.2c0-0.1,0.1-0.1,0.2-0.1h1.8c0.1,0,0.1,0.1,0.2,0.1l2.2,9.9c0,0.1,0,0.2-0.1,0.2h-1.7
		c-0.1,0-0.1-0.1-0.2-0.2l-0.3-1.8h-1.9l-0.3,1.8c0,0.1-0.1,0.2-0.2,0.2h-1.7c-0.1,0-0.1-0.1-0.1-0.2L143.6,17.2z M145.4,23.7
		l-0.6-3.5h0l-0.7,3.5H145.4z"/>
	<path fill="#FFFFFF" d="M148.5,17.2c0-0.1,0.1-0.1,0.1-0.1h2.6c1.4,0,2.2,0.5,2.6,1.7c0.2,0.6,0.3,1.3,0.3,3.4
		c0,2.1-0.1,2.8-0.3,3.4c-0.4,1.2-1.2,1.7-2.6,1.7h-2.6c-0.1,0-0.1-0.1-0.1-0.2V17.2z M150.6,25.5h0.5c0.5,0,0.8-0.2,0.9-0.6
		c0.1-0.3,0.2-0.7,0.2-2.7s0-2.4-0.2-2.7c-0.1-0.5-0.4-0.6-0.9-0.6h-0.5c-0.1,0-0.1,0-0.1,0.1L150.6,25.5
		C150.5,25.5,150.5,25.5,150.6,25.5z"/>
	<path fill="#FFFFFF" d="M155.2,25.7c-0.2-0.5-0.2-0.9-0.2-3.5s0-3,0.2-3.5c0.4-1.1,1.3-1.7,2.6-1.7c1.3,0,2.2,0.6,2.6,1.7
		c0.2,0.5,0.2,0.9,0.2,3.5s0,3-0.2,3.5c-0.4,1.1-1.3,1.7-2.6,1.7C156.5,27.4,155.6,26.8,155.2,25.7z M158.6,25.2
		c0.1-0.2,0.1-0.5,0.1-3s0-2.7-0.1-3c-0.1-0.3-0.3-0.5-0.7-0.5c-0.4,0-0.6,0.2-0.7,0.5c-0.1,0.2-0.1,0.5-0.1,3s0,2.7,0.1,3
		c0.1,0.3,0.3,0.5,0.7,0.5C158.2,25.7,158.5,25.4,158.6,25.2z"/>
</g>
<g>
	<path fill="#FFFFFF" d="M0,52.3c0-2.7,0-3,0.2-3.4C0.4,48,1.1,47.6,2,47.6c1.2,0,1.8,0.7,2,1.8c0,0.1,0,0.1-0.1,0.2l-0.4,0.1
		c-0.1,0-0.1,0-0.2-0.1c-0.1-0.8-0.5-1.3-1.3-1.3c-0.6,0-1,0.3-1.2,0.8c-0.1,0.3-0.1,0.6-0.1,3.2c0,2.6,0,2.9,0.1,3.2
		C1,56,1.4,56.3,2,56.3c0.6,0,1-0.3,1.2-0.8c0.1-0.3,0.1-0.6,0.1-2.7c0-0.1,0-0.1-0.1-0.1H2.2c-0.1,0-0.1-0.1-0.1-0.1v-0.4
		c0-0.1,0.1-0.1,0.1-0.1h1.7C4,52.1,4,52.1,4,52.2v0.4c0,2.4,0,2.7-0.2,3.1c-0.3,0.8-0.9,1.2-1.8,1.2c-0.9,0-1.6-0.4-1.8-1.2
		C0,55.3,0,54.9,0,52.3z"/>
	<path fill="#FFFFFF" d="M5.1,47.8c0-0.1,0.1-0.1,0.1-0.1h3.1c0.1,0,0.1,0.1,0.1,0.1v0.4c0,0.1-0.1,0.1-0.1,0.1H5.9
		c-0.1,0-0.1,0-0.1,0.1v3.3c0,0.1,0,0.1,0.1,0.1h2.1c0.1,0,0.1,0.1,0.1,0.1v0.4c0,0.1-0.1,0.1-0.1,0.1H5.9c-0.1,0-0.1,0-0.1,0.1v3.5
		c0,0.1,0,0.1,0.1,0.1h2.5c0.1,0,0.1,0.1,0.1,0.1v0.4c0,0.1-0.1,0.1-0.1,0.1H5.3c-0.1,0-0.1-0.1-0.1-0.1V47.8z"/>
	<path fill="#FFFFFF" d="M10.9,56.9c-1.3,0-1.9-0.8-2-2.3c0-0.1,0-0.1,0.1-0.1l0.4-0.1c0.1,0,0.1,0,0.1,0.1c0.1,1.3,0.5,1.8,1.3,1.8
		c0.8,0,1.2-0.4,1.2-1.9c0-1.2-0.3-1.6-1-1.9l-0.5-0.2c-1.2-0.5-1.5-1.1-1.5-2.4c0-1.5,0.6-2.3,1.8-2.3c1.2,0,1.8,0.7,1.8,2.1
		c0,0.1,0,0.1-0.1,0.1l-0.4,0.1c-0.1,0-0.1,0-0.1-0.1c0-1.1-0.4-1.6-1.2-1.6c-0.8,0-1.2,0.5-1.2,1.6c0,1.1,0.3,1.5,1,1.8l0.5,0.2
		c1.1,0.5,1.5,1,1.5,2.5C12.8,56.2,12.3,56.9,10.9,56.9z"/>
	<path fill="#FFFFFF" d="M15.1,56.8c-0.1,0-0.1-0.1-0.1-0.1v-8.2c0-0.1,0-0.1-0.1-0.1h-1.6c-0.1,0-0.1-0.1-0.1-0.1v-0.4
		c0-0.1,0.1-0.1,0.1-0.1h4.1c0.1,0,0.1,0.1,0.1,0.1v0.4c0,0.1-0.1,0.1-0.1,0.1h-1.6c-0.1,0-0.1,0-0.1,0.1v8.2c0,0.1-0.1,0.1-0.1,0.1
		H15.1z"/>
	<path fill="#FFFFFF" d="M18.1,47.8c0-0.1,0.1-0.1,0.1-0.1h0.4c0.1,0,0.1,0.1,0.1,0.1v8.8c0,0.1-0.1,0.1-0.1,0.1h-0.4
		c-0.1,0-0.1-0.1-0.1-0.1V47.8z"/>
	<path fill="#FFFFFF" d="M20.1,55.7C20,55.3,20,54.9,20,52.3s0-3,0.2-3.4c0.3-0.8,0.9-1.2,1.8-1.2c0.9,0,1.6,0.4,1.8,1.2
		c0.1,0.4,0.2,0.8,0.2,3.4s0,3-0.2,3.4c-0.3,0.8-0.9,1.2-1.8,1.2C21,56.9,20.4,56.5,20.1,55.7z M23.2,55.5c0.1-0.3,0.1-0.6,0.1-3.2
		c0-2.6-0.1-2.9-0.1-3.2c-0.2-0.5-0.6-0.8-1.2-0.8s-1,0.3-1.2,0.8c-0.1,0.3-0.1,0.6-0.1,3.2c0,2.6,0,2.9,0.1,3.2
		c0.2,0.5,0.6,0.8,1.2,0.8S23,56,23.2,55.5z M21.8,46.6c-0.1,0-0.1-0.1-0.1-0.1l1-1.4c0.1-0.1,0.1-0.1,0.2-0.1h0.4
		c0.1,0,0.1,0.1,0.1,0.1l-1.2,1.4c-0.1,0.1-0.1,0.1-0.2,0.1H21.8z"/>
	<path fill="#FFFFFF" d="M25.1,47.8c0-0.1,0.1-0.1,0.1-0.1h0.5c0.1,0,0.2,0,0.2,0.1l2.5,7.5h0v-7.5c0-0.1,0.1-0.1,0.1-0.1h0.4
		c0.1,0,0.1,0.1,0.1,0.1v8.8c0,0.1-0.1,0.1-0.1,0.1h-0.5c-0.1,0-0.2,0-0.2-0.1l-2.5-7.5h0v7.5c0,0.1-0.1,0.1-0.1,0.1h-0.4
		c-0.1,0-0.1-0.1-0.1-0.1V47.8z"/>
	<path fill="#FFFFFF" d="M32.5,47.8c0-0.1,0.1-0.1,0.1-0.1H33c0.1,0,0.1,0.1,0.1,0.1v8.8c0,0.1-0.1,0.1-0.1,0.1h-0.4
		c-0.1,0-0.1-0.1-0.1-0.1V47.8z"/>
	<path fill="#FFFFFF" d="M34.5,47.8c0-0.1,0.1-0.1,0.1-0.1h0.5c0.1,0,0.2,0,0.2,0.1l2.5,7.5h0v-7.5c0-0.1,0.1-0.1,0.1-0.1h0.4
		c0.1,0,0.1,0.1,0.1,0.1v8.8c0,0.1-0.1,0.1-0.1,0.1h-0.5c-0.1,0-0.2,0-0.2-0.1l-2.5-7.5h0v7.5c0,0.1-0.1,0.1-0.1,0.1h-0.4
		c-0.1,0-0.1-0.1-0.1-0.1V47.8z"/>
	<path fill="#FFFFFF" d="M41.5,56.9c-1.3,0-1.9-0.8-2-2.3c0-0.1,0-0.1,0.1-0.1l0.4-0.1c0.1,0,0.1,0,0.1,0.1c0.1,1.3,0.5,1.8,1.3,1.8
		c0.8,0,1.2-0.4,1.2-1.9c0-1.2-0.3-1.6-1-1.9l-0.5-0.2c-1.2-0.5-1.5-1.1-1.5-2.4c0-1.5,0.6-2.3,1.8-2.3c1.2,0,1.8,0.7,1.8,2.1
		c0,0.1,0,0.1-0.1,0.1l-0.4,0.1c-0.1,0-0.1,0-0.1-0.1c0-1.1-0.4-1.6-1.2-1.6c-0.8,0-1.2,0.5-1.2,1.6c0,1.1,0.3,1.5,1,1.8l0.5,0.2
		c1.1,0.5,1.5,1,1.5,2.5C43.4,56.2,42.8,56.9,41.5,56.9z"/>
	<path fill="#FFFFFF" d="M45.7,56.8c-0.1,0-0.1-0.1-0.1-0.1v-8.2c0-0.1,0-0.1-0.1-0.1h-1.6c-0.1,0-0.1-0.1-0.1-0.1v-0.4
		c0-0.1,0.1-0.1,0.1-0.1h4.1c0.1,0,0.1,0.1,0.1,0.1v0.4c0,0.1-0.1,0.1-0.1,0.1h-1.6c-0.1,0-0.1,0-0.1,0.1v8.2c0,0.1-0.1,0.1-0.1,0.1
		H45.7z"/>
	<path fill="#FFFFFF" d="M48.7,47.8c0-0.1,0.1-0.1,0.1-0.1h0.4c0.1,0,0.1,0.1,0.1,0.1v8.8c0,0.1-0.1,0.1-0.1,0.1h-0.4
		c-0.1,0-0.1-0.1-0.1-0.1V47.8z"/>
	<path fill="#FFFFFF" d="M52,56.8c-0.1,0-0.1-0.1-0.1-0.1v-8.2c0-0.1,0-0.1-0.1-0.1h-1.6c-0.1,0-0.1-0.1-0.1-0.1v-0.4
		c0-0.1,0.1-0.1,0.1-0.1h4.1c0.1,0,0.1,0.1,0.1,0.1v0.4c0,0.1-0.1,0.1-0.1,0.1h-1.6c-0.1,0-0.1,0-0.1,0.1v8.2c0,0.1-0.1,0.1-0.1,0.1
		H52z"/>
	<path fill="#FFFFFF" d="M55,54.7v-6.8c0-0.1,0.1-0.1,0.1-0.1h0.4c0.1,0,0.1,0.1,0.1,0.1v6.9c0,1.1,0.5,1.5,1.3,1.5s1.3-0.5,1.3-1.5
		v-6.9c0-0.1,0.1-0.1,0.1-0.1h0.4c0.1,0,0.1,0.1,0.1,0.1v6.8c0,1.5-0.8,2.3-2,2.3S55,56.2,55,54.7z"/>
	<path fill="#FFFFFF" d="M60,52.3c0-2.7,0.1-3,0.2-3.4c0.3-0.8,0.9-1.2,1.8-1.2c1.1,0,1.7,0.7,1.9,1.8c0,0.1,0,0.1-0.1,0.2l-0.4,0.1
		c-0.1,0-0.1,0-0.1-0.1c-0.1-0.9-0.5-1.3-1.2-1.3c-0.6,0-0.9,0.3-1.1,0.8c-0.1,0.3-0.1,0.6-0.1,3.2c0,2.6,0,2.9,0.1,3.2
		c0.2,0.5,0.5,0.8,1.1,0.8c0.7,0,1.1-0.5,1.2-1.4c0-0.1,0.1-0.1,0.1-0.1l0.4,0.1c0.1,0,0.1,0.1,0.1,0.2c-0.1,1.2-0.8,1.9-1.9,1.9
		c-0.9,0-1.5-0.4-1.8-1.2C60.1,55.3,60,54.9,60,52.3z"/>
	<path fill="#FFFFFF" d="M64.7,47.8c0-0.1,0.1-0.1,0.1-0.1h0.4c0.1,0,0.1,0.1,0.1,0.1v8.8c0,0.1-0.1,0.1-0.1,0.1h-0.4
		c-0.1,0-0.1-0.1-0.1-0.1V47.8z"/>
	<path fill="#FFFFFF" d="M66.7,55.7c-0.1-0.4-0.2-0.8-0.2-3.4s0-3,0.2-3.4c0.3-0.8,0.9-1.2,1.8-1.2c0.9,0,1.6,0.4,1.8,1.2
		c0.1,0.4,0.2,0.8,0.2,3.4s0,3-0.2,3.4c-0.3,0.8-0.9,1.2-1.8,1.2C67.6,56.9,66.9,56.5,66.7,55.7z M69.7,55.5
		c0.1-0.3,0.1-0.6,0.1-3.2c0-2.6-0.1-2.9-0.1-3.2c-0.2-0.5-0.6-0.8-1.2-0.8s-1,0.3-1.2,0.8c-0.1,0.3-0.1,0.6-0.1,3.2
		c0,2.6,0,2.9,0.1,3.2c0.2,0.5,0.6,0.8,1.2,0.8S69.5,56,69.7,55.5z"/>
	<path fill="#FFFFFF" d="M71.7,47.8c0-0.1,0.1-0.1,0.1-0.1h0.5c0.1,0,0.2,0,0.2,0.1l2.5,7.5h0v-7.5c0-0.1,0.1-0.1,0.1-0.1h0.4
		c0.1,0,0.1,0.1,0.1,0.1v8.8c0,0.1-0.1,0.1-0.1,0.1h-0.5c-0.1,0-0.2,0-0.2-0.1l-2.5-7.5h0v7.5c0,0.1-0.1,0.1-0.1,0.1h-0.4
		c-0.1,0-0.1-0.1-0.1-0.1V47.8z"/>
	<path fill="#FFFFFF" d="M78.4,47.8c0-0.1,0.1-0.1,0.1-0.1H79c0.1,0,0.1,0.1,0.1,0.1l1.9,8.8c0,0.1,0,0.1-0.1,0.1h-0.4
		c-0.1,0-0.1-0.1-0.1-0.1l-0.5-2.2h-2.2l-0.5,2.2c0,0.1-0.1,0.1-0.1,0.1h-0.4c-0.1,0-0.1-0.1-0.1-0.1L78.4,47.8z M79.7,53.9l-1-4.6
		h0l-1,4.6H79.7z"/>
	<path fill="#FFFFFF" d="M81.7,47.8c0-0.1,0.1-0.1,0.1-0.1h0.4c0.1,0,0.1,0.1,0.1,0.1v8.2c0,0.1,0,0.1,0.1,0.1h2.4
		c0.1,0,0.1,0.1,0.1,0.1v0.4c0,0.1-0.1,0.1-0.1,0.1h-3.1c-0.1,0-0.1-0.1-0.1-0.1V47.8z"/>
	<path fill="#FFFFFF" d="M88.9,47.7c0-0.1,0.1-0.1,0.1-0.1h0.3c0.1,0,0.1,0.1,0.1,0.1l-1.7,9.1c0,0.1-0.1,0.1-0.1,0.1h-0.3
		c-0.1,0-0.1-0.1-0.1-0.1L88.9,47.7z"/>
	<path fill="#FFFFFF" d="M92.2,47.8c0-0.1,0.1-0.1,0.1-0.1h1.6c1.1,0,1.7,0.5,2,1.4c0.2,0.5,0.2,1.1,0.2,3.2c0,2.1-0.1,2.7-0.2,3.2
		c-0.3,0.9-0.9,1.4-2,1.4h-1.6c-0.1,0-0.1-0.1-0.1-0.1V47.8z M92.9,56.2h0.9c0.8,0,1.2-0.3,1.4-0.9c0.1-0.4,0.2-1,0.2-3
		c0-2-0.1-2.6-0.2-3c-0.2-0.6-0.6-0.9-1.4-0.9h-0.9c-0.1,0-0.1,0-0.1,0.1L92.9,56.2C92.9,56.1,92.9,56.2,92.9,56.2z"/>
	<path fill="#FFFFFF" d="M97.3,55.7c-0.1-0.4-0.2-0.8-0.2-3.4s0-3,0.2-3.4c0.3-0.8,0.9-1.2,1.8-1.2c0.9,0,1.6,0.4,1.8,1.2
		c0.1,0.4,0.2,0.8,0.2,3.4s0,3-0.2,3.4c-0.3,0.8-0.9,1.2-1.8,1.2C98.2,56.9,97.6,56.5,97.3,55.7z M100.3,55.5
		c0.1-0.3,0.1-0.6,0.1-3.2c0-2.6-0.1-2.9-0.1-3.2c-0.2-0.5-0.6-0.8-1.2-0.8s-1,0.3-1.2,0.8c-0.1,0.3-0.1,0.6-0.1,3.2
		c0,2.6,0,2.9,0.1,3.2c0.2,0.5,0.6,0.8,1.2,0.8S100.1,56,100.3,55.5z"/>
	<path fill="#FFFFFF" d="M102.2,52.3c0-2.7,0.1-3,0.2-3.4c0.3-0.8,0.9-1.2,1.8-1.2c1.1,0,1.7,0.7,1.9,1.8c0,0.1,0,0.1-0.1,0.2
		l-0.4,0.1c-0.1,0-0.1,0-0.1-0.1c-0.1-0.9-0.5-1.3-1.2-1.3c-0.6,0-0.9,0.3-1.1,0.8c-0.1,0.3-0.1,0.6-0.1,3.2c0,2.6,0,2.9,0.1,3.2
		c0.2,0.5,0.5,0.8,1.1,0.8c0.7,0,1.1-0.5,1.2-1.4c0-0.1,0.1-0.1,0.1-0.1l0.4,0.1c0.1,0,0.1,0.1,0.1,0.2c-0.1,1.2-0.8,1.9-1.9,1.9
		c-0.9,0-1.5-0.4-1.8-1.2C102.2,55.3,102.2,54.9,102.2,52.3z"/>
	<path fill="#FFFFFF" d="M106.8,47.8c0-0.1,0.1-0.1,0.1-0.1h3.1c0.1,0,0.1,0.1,0.1,0.1v0.4c0,0.1-0.1,0.1-0.1,0.1h-2.5
		c-0.1,0-0.1,0-0.1,0.1v3.3c0,0.1,0,0.1,0.1,0.1h2.1c0.1,0,0.1,0.1,0.1,0.1v0.4c0,0.1-0.1,0.1-0.1,0.1h-2.1c-0.1,0-0.1,0-0.1,0.1
		v3.5c0,0.1,0,0.1,0.1,0.1h2.5c0.1,0,0.1,0.1,0.1,0.1v0.4c0,0.1-0.1,0.1-0.1,0.1h-3.1c-0.1,0-0.1-0.1-0.1-0.1V47.8z"/>
	<path fill="#FFFFFF" d="M110.9,47.8c0-0.1,0.1-0.1,0.1-0.1h0.5c0.1,0,0.2,0,0.2,0.1l2.5,7.5h0v-7.5c0-0.1,0.1-0.1,0.1-0.1h0.4
		c0.1,0,0.1,0.1,0.1,0.1v8.8c0,0.1-0.1,0.1-0.1,0.1h-0.5c-0.1,0-0.2,0-0.2-0.1l-2.5-7.5h0v7.5c0,0.1-0.1,0.1-0.1,0.1h-0.4
		c-0.1,0-0.1-0.1-0.1-0.1V47.8z"/>
	<path fill="#FFFFFF" d="M116.2,52.3c0-2.7,0.1-3,0.2-3.4c0.3-0.8,0.9-1.2,1.8-1.2c1.1,0,1.7,0.7,1.9,1.8c0,0.1,0,0.1-0.1,0.2
		l-0.4,0.1c-0.1,0-0.1,0-0.1-0.1c-0.1-0.9-0.5-1.3-1.2-1.3c-0.6,0-0.9,0.3-1.1,0.8c-0.1,0.3-0.1,0.6-0.1,3.2c0,2.6,0,2.9,0.1,3.2
		c0.2,0.5,0.5,0.8,1.1,0.8c0.7,0,1.1-0.5,1.2-1.4c0-0.1,0.1-0.1,0.1-0.1l0.4,0.1c0.1,0,0.1,0.1,0.1,0.2c-0.1,1.2-0.8,1.9-1.9,1.9
		c-0.9,0-1.5-0.4-1.8-1.2C116.2,55.3,116.2,54.9,116.2,52.3z"/>
	<path fill="#FFFFFF" d="M120.8,47.8c0-0.1,0.1-0.1,0.1-0.1h0.4c0.1,0,0.1,0.1,0.1,0.1v8.8c0,0.1-0.1,0.1-0.1,0.1h-0.4
		c-0.1,0-0.1-0.1-0.1-0.1V47.8z"/>
	<path fill="#FFFFFF" d="M124.1,47.8c0-0.1,0.1-0.1,0.1-0.1h0.4c0.1,0,0.1,0.1,0.1,0.1l1.9,8.8c0,0.1,0,0.1-0.1,0.1h-0.4
		c-0.1,0-0.1-0.1-0.1-0.1l-0.5-2.2h-2.2l-0.5,2.2c0,0.1-0.1,0.1-0.1,0.1h-0.4c-0.1,0-0.1-0.1-0.1-0.1L124.1,47.8z M125.5,53.9
		l-1-4.6h0l-1,4.6H125.5z"/>
	<path fill="#FFFFFF" d="M129.4,47.8c0-0.1,0.1-0.1,0.1-0.1h1.6c1.1,0,1.7,0.5,2,1.4c0.2,0.5,0.2,1.1,0.2,3.2c0,2.1-0.1,2.7-0.2,3.2
		c-0.3,0.9-0.9,1.4-2,1.4h-1.6c-0.1,0-0.1-0.1-0.1-0.1V47.8z M130.2,56.2h0.9c0.8,0,1.2-0.3,1.4-0.9c0.1-0.4,0.2-1,0.2-3
		c0-2-0.1-2.6-0.2-3c-0.2-0.6-0.6-0.9-1.4-0.9h-0.9c-0.1,0-0.1,0-0.1,0.1L130.2,56.2C130.1,56.1,130.1,56.2,130.2,56.2z"/>
	<path fill="#FFFFFF" d="M134.5,47.8c0-0.1,0.1-0.1,0.1-0.1h3.1c0.1,0,0.1,0.1,0.1,0.1v0.4c0,0.1-0.1,0.1-0.1,0.1h-2.5
		c-0.1,0-0.1,0-0.1,0.1v3.3c0,0.1,0,0.1,0.1,0.1h2.1c0.1,0,0.1,0.1,0.1,0.1v0.4c0,0.1-0.1,0.1-0.1,0.1h-2.1c-0.1,0-0.1,0-0.1,0.1
		v3.5c0,0.1,0,0.1,0.1,0.1h2.5c0.1,0,0.1,0.1,0.1,0.1v0.4c0,0.1-0.1,0.1-0.1,0.1h-3.1c-0.1,0-0.1-0.1-0.1-0.1V47.8z"/>
	<path fill="#FFFFFF" d="M140.8,56.8c-0.1,0-0.1-0.1-0.1-0.1v-8.8c0-0.1,0.1-0.1,0.1-0.1h1.3c1.6,0,2.3,0.7,2.3,2.6
		c0,1.9-0.8,2.7-2.3,2.7h-0.7c-0.1,0-0.1,0-0.1,0.1v3.6c0,0.1-0.1,0.1-0.1,0.1H140.8z M143.7,50.3c0-1.4-0.4-2-1.6-2h-0.7
		c-0.1,0-0.1,0-0.1,0.1v3.8c0,0.1,0,0.1,0.1,0.1h0.7C143.3,52.3,143.7,51.8,143.7,50.3z"/>
	<path fill="#FFFFFF" d="M148.6,56.8c-0.1,0-0.1,0-0.1-0.1l-1.2-4c-0.2,0-0.4,0-0.6,0h-0.6c-0.1,0-0.1,0-0.1,0.1v3.9
		c0,0.1-0.1,0.1-0.1,0.1h-0.4c-0.1,0-0.1-0.1-0.1-0.1v-8.8c0-0.1,0.1-0.1,0.1-0.1h1.3c1.6,0,2.3,0.7,2.3,2.5c0,1.3-0.4,2-1.1,2.3
		l1.2,4.2c0,0.1,0,0.1-0.1,0.1H148.6z M148.4,50.2c0-1.4-0.5-1.9-1.6-1.9h-0.7c-0.1,0-0.1,0-0.1,0.1V52c0,0.1,0,0.1,0.1,0.1h0.7
		C147.9,52.1,148.4,51.7,148.4,50.2z"/>
	<path fill="#FFFFFF" d="M150,47.8c0-0.1,0.1-0.1,0.1-0.1h3.1c0.1,0,0.1,0.1,0.1,0.1v0.4c0,0.1-0.1,0.1-0.1,0.1h-2.5
		c-0.1,0-0.1,0-0.1,0.1v3.3c0,0.1,0,0.1,0.1,0.1h2.1c0.1,0,0.1,0.1,0.1,0.1v0.4c0,0.1-0.1,0.1-0.1,0.1h-2.1c-0.1,0-0.1,0-0.1,0.1
		v3.5c0,0.1,0,0.1,0.1,0.1h2.5c0.1,0,0.1,0.1,0.1,0.1v0.4c0,0.1-0.1,0.1-0.1,0.1h-3.1c-0.1,0-0.1-0.1-0.1-0.1V47.8z"/>
	<path fill="#FFFFFF" d="M154,52.3c0-2.7,0-3,0.2-3.4c0.3-0.8,0.9-1.2,1.8-1.2c1.2,0,1.8,0.7,2,1.8c0,0.1,0,0.1-0.1,0.2l-0.4,0.1
		c-0.1,0-0.1,0-0.2-0.1c-0.1-0.8-0.5-1.3-1.3-1.3c-0.6,0-1,0.3-1.2,0.8c-0.1,0.3-0.1,0.6-0.1,3.2c0,2.6,0,2.9,0.1,3.2
		c0.2,0.5,0.6,0.8,1.2,0.8c0.6,0,1-0.3,1.2-0.8c0.1-0.3,0.1-0.6,0.1-2.7c0-0.1,0-0.1-0.1-0.1h-1.1c-0.1,0-0.1-0.1-0.1-0.1v-0.4
		c0-0.1,0.1-0.1,0.1-0.1h1.7c0.1,0,0.1,0.1,0.1,0.1v0.4c0,2.4,0,2.7-0.2,3.1c-0.3,0.8-0.9,1.2-1.8,1.2c-0.9,0-1.6-0.4-1.8-1.2
		C154,55.3,154,54.9,154,52.3z"/>
	<path fill="#FFFFFF" d="M162.4,56.8c-0.1,0-0.1,0-0.1-0.1l-1.2-4c-0.2,0-0.4,0-0.6,0h-0.6c-0.1,0-0.1,0-0.1,0.1v3.9
		c0,0.1-0.1,0.1-0.1,0.1h-0.4c-0.1,0-0.1-0.1-0.1-0.1v-8.8c0-0.1,0.1-0.1,0.1-0.1h1.3c1.6,0,2.3,0.7,2.3,2.5c0,1.3-0.4,2-1.1,2.3
		l1.2,4.2c0,0.1,0,0.1-0.1,0.1H162.4z M162.2,50.2c0-1.4-0.5-1.9-1.6-1.9h-0.7c-0.1,0-0.1,0-0.1,0.1V52c0,0.1,0,0.1,0.1,0.1h0.7
		C161.7,52.1,162.2,51.7,162.2,50.2z"/>
	<path fill="#FFFFFF" d="M165.1,47.8c0-0.1,0.1-0.1,0.1-0.1h0.4c0.1,0,0.1,0.1,0.1,0.1l1.9,8.8c0,0.1,0,0.1-0.1,0.1h-0.4
		c-0.1,0-0.1-0.1-0.1-0.1l-0.5-2.2h-2.2l-0.5,2.2c0,0.1-0.1,0.1-0.1,0.1h-0.4c-0.1,0-0.1-0.1-0.1-0.1L165.1,47.8z M166.4,53.9
		l-1-4.6h0l-1,4.6H166.4z"/>
	<path fill="#FFFFFF" d="M168.4,47.8c0-0.1,0.1-0.1,0.1-0.1h1.6c1.1,0,1.7,0.5,2,1.4c0.2,0.5,0.2,1.1,0.2,3.2c0,2.1-0.1,2.7-0.2,3.2
		c-0.3,0.9-0.9,1.4-2,1.4h-1.6c-0.1,0-0.1-0.1-0.1-0.1V47.8z M169.2,56.2h0.9c0.8,0,1.2-0.3,1.4-0.9c0.1-0.4,0.2-1,0.2-3
		c0-2-0.1-2.6-0.2-3c-0.2-0.6-0.6-0.9-1.4-0.9h-0.9c-0.1,0-0.1,0-0.1,0.1L169.2,56.2C169.1,56.1,169.2,56.2,169.2,56.2z"/>
	<path fill="#FFFFFF" d="M173.6,55.7c-0.1-0.4-0.2-0.8-0.2-3.4s0-3,0.2-3.4c0.3-0.8,0.9-1.2,1.8-1.2c0.9,0,1.6,0.4,1.8,1.2
		c0.1,0.4,0.2,0.8,0.2,3.4s0,3-0.2,3.4c-0.3,0.8-0.9,1.2-1.8,1.2C174.5,56.9,173.9,56.5,173.6,55.7z M176.6,55.5
		c0.1-0.3,0.1-0.6,0.1-3.2c0-2.6-0.1-2.9-0.1-3.2c-0.2-0.5-0.6-0.8-1.2-0.8s-1,0.3-1.2,0.8c-0.1,0.3-0.1,0.6-0.1,3.2
		c0,2.6,0,2.9,0.1,3.2c0.2,0.5,0.6,0.8,1.2,0.8S176.4,56,176.6,55.5z"/>
</g>
<g>
	<path fill="#FFFFFF" d="M29.5,41.1v-0.3c0-0.1,0-0.1,0-0.2l1.9-6.7c0-0.1,0.1-0.1,0.2-0.1h0.4c0.1,0,0.1,0.1,0.1,0.1l-1.9,6.6v0H32
		c0.1,0,0.1,0,0.1-0.1v-2.7c0-0.1,0.1-0.1,0.1-0.1h0.4c0.1,0,0.1,0.1,0.1,0.1v2.7c0,0.1,0,0.1,0.1,0.1h0.8c0.1,0,0.1,0.1,0.1,0.1
		v0.4c0,0.1-0.1,0.1-0.1,0.1h-0.8c-0.1,0-0.1,0-0.1,0.1v1.5c0,0.1-0.1,0.1-0.1,0.1h-0.4c-0.1,0-0.1-0.1-0.1-0.1v-1.5
		c0-0.1,0-0.1-0.1-0.1h-2.4C29.5,41.2,29.5,41.2,29.5,41.1z"/>
	<path fill="#FFFFFF" d="M38.1,33.9c0-0.1,0.1-0.1,0.1-0.1h0.4c0.1,0,0.1,0.1,0.1,0.1l1.9,8.8c0,0.1,0,0.1-0.1,0.1h-0.4
		c-0.1,0-0.1-0.1-0.1-0.1l-0.5-2.2h-2.2l-0.5,2.2c0,0.1-0.1,0.1-0.1,0.1h-0.4c-0.1,0-0.1-0.1-0.1-0.1L38.1,33.9z M39.5,40l-1-4.6h0
		l-1,4.6H39.5z"/>
	<path fill="#FFFFFF" d="M41.7,33.9c0-0.1,0.1-0.1,0.1-0.1h0.5c0.1,0,0.2,0,0.2,0.1l2.5,7.5h0v-7.5c0-0.1,0.1-0.1,0.1-0.1h0.4
		c0.1,0,0.1,0.1,0.1,0.1v8.8c0,0.1-0.1,0.1-0.1,0.1h-0.5c-0.1,0-0.2,0-0.2-0.1l-2.5-7.5h0v7.5c0,0.1-0.1,0.1-0.1,0.1h-0.4
		c-0.1,0-0.1-0.1-0.1-0.1V33.9z M43.6,32.1c-0.2-0.1-0.3-0.2-0.4-0.2c-0.2,0-0.3,0.1-0.5,0.4c-0.1,0.1-0.2,0.1-0.2,0v-0.4
		c0-0.1,0-0.1,0.1-0.2c0.1-0.2,0.3-0.3,0.6-0.3s0.4,0.1,0.6,0.3c0.2,0.1,0.3,0.2,0.4,0.2c0.2,0,0.4-0.1,0.5-0.4
		c0.1-0.1,0.1-0.1,0.1,0v0.4c0,0.1,0,0.1-0.1,0.2c-0.2,0.2-0.3,0.3-0.6,0.3C43.9,32.4,43.7,32.3,43.6,32.1z"/>
	<path fill="#FFFFFF" d="M47.3,41.8c-0.1-0.4-0.2-0.8-0.2-3.4s0-3,0.2-3.4c0.3-0.8,0.9-1.2,1.8-1.2c0.9,0,1.6,0.4,1.8,1.2
		c0.1,0.4,0.2,0.8,0.2,3.4s0,3-0.2,3.4C50.7,42.6,50,43,49.1,43C48.2,43,47.5,42.6,47.3,41.8z M50.3,41.6c0.1-0.3,0.1-0.6,0.1-3.2
		c0-2.6-0.1-2.9-0.1-3.2c-0.2-0.5-0.6-0.8-1.2-0.8s-1,0.3-1.2,0.8c-0.1,0.3-0.1,0.6-0.1,3.2c0,2.6,0,2.9,0.1,3.2
		c0.2,0.5,0.6,0.8,1.2,0.8S50.1,42.1,50.3,41.6z"/>
	<path fill="#FFFFFF" d="M54.1,43c-1.3,0-1.9-0.8-2-2.3c0-0.1,0-0.1,0.1-0.1l0.4-0.1c0.1,0,0.1,0,0.1,0.1c0.1,1.3,0.5,1.8,1.3,1.8
		c0.8,0,1.2-0.4,1.2-1.9c0-1.2-0.3-1.6-1-1.9l-0.5-0.2c-1.2-0.5-1.5-1.1-1.5-2.4c0-1.5,0.6-2.3,1.8-2.3c1.2,0,1.8,0.7,1.8,2.1
		c0,0.1,0,0.1-0.1,0.1L55.4,36c-0.1,0-0.1,0-0.1-0.1c0-1.1-0.4-1.6-1.2-1.6c-0.8,0-1.2,0.5-1.2,1.6c0,1.1,0.3,1.5,1,1.8l0.5,0.2
		c1.1,0.5,1.5,1,1.5,2.5C56,42.3,55.4,43,54.1,43z"/>
	<path fill="#FFFFFF" d="M60.4,33.8c0-0.1,0.1-0.1,0.1-0.1h0.3c0.1,0,0.1,0.1,0.1,0.1l-1.7,9.1c0,0.1-0.1,0.1-0.1,0.1h-0.3
		c-0.1,0-0.1-0.1-0.1-0.1L60.4,33.8z"/>
	<path fill="#FFFFFF" d="M64.1,33.9c0-0.1,0.1-0.1,0.1-0.1h0.4c0.1,0,0.1,0.1,0.1,0.1v3.9c0,0.1,0,0.1,0.1,0.1h2.4
		c0.1,0,0.1,0,0.1-0.1v-3.9c0-0.1,0.1-0.1,0.1-0.1h0.4c0.1,0,0.1,0.1,0.1,0.1v8.8c0,0.1-0.1,0.1-0.1,0.1h-0.4
		c-0.1,0-0.1-0.1-0.1-0.1v-4.1c0-0.1,0-0.1-0.1-0.1h-2.4c-0.1,0-0.1,0-0.1,0.1v4.1c0,0.1-0.1,0.1-0.1,0.1h-0.4
		c-0.1,0-0.1-0.1-0.1-0.1V33.9z"/>
	<path fill="#FFFFFF" d="M70.9,33.9c0-0.1,0.1-0.1,0.1-0.1h0.4c0.1,0,0.1,0.1,0.1,0.1l1.9,8.8c0,0.1,0,0.1-0.1,0.1h-0.4
		c-0.1,0-0.1-0.1-0.1-0.1l-0.5-2.2h-2.2l-0.5,2.2c0,0.1-0.1,0.1-0.1,0.1h-0.4c-0.1,0-0.1-0.1-0.1-0.1L70.9,33.9z M72.2,40l-1-4.6h0
		l-1,4.6H72.2z"/>
	<path fill="#FFFFFF" d="M76,43c-1.3,0-1.9-0.8-2-2.3c0-0.1,0-0.1,0.1-0.1l0.4-0.1c0.1,0,0.1,0,0.1,0.1c0.1,1.3,0.5,1.8,1.3,1.8
		c0.8,0,1.2-0.4,1.2-1.9c0-1.2-0.3-1.6-1-1.9l-0.5-0.2c-1.2-0.5-1.5-1.1-1.5-2.4c0-1.5,0.6-2.3,1.8-2.3c1.2,0,1.8,0.7,1.8,2.1
		c0,0.1,0,0.1-0.1,0.1L77.4,36c-0.1,0-0.1,0-0.1-0.1c0-1.1-0.4-1.6-1.2-1.6c-0.8,0-1.2,0.5-1.2,1.6c0,1.1,0.3,1.5,1,1.8l0.5,0.2
		c1.1,0.5,1.5,1,1.5,2.5C77.9,42.3,77.3,43,76,43z"/>
	<path fill="#FFFFFF" d="M80.4,42.9c-0.1,0-0.1-0.1-0.1-0.1v-8.2c0-0.1,0-0.1-0.1-0.1h-1.6c-0.1,0-0.1-0.1-0.1-0.1v-0.4
		c0-0.1,0.1-0.1,0.1-0.1h4.1c0.1,0,0.1,0.1,0.1,0.1v0.4c0,0.1-0.1,0.1-0.1,0.1H81c-0.1,0-0.1,0-0.1,0.1v8.2c0,0.1-0.1,0.1-0.1,0.1
		H80.4z"/>
	<path fill="#FFFFFF" d="M84.9,33.9c0-0.1,0.1-0.1,0.1-0.1h0.4c0.1,0,0.1,0.1,0.1,0.1l1.9,8.8c0,0.1,0,0.1-0.1,0.1H87
		c-0.1,0-0.1-0.1-0.1-0.1l-0.5-2.2h-2.2l-0.5,2.2c0,0.1-0.1,0.1-0.1,0.1h-0.4c-0.1,0-0.1-0.1-0.1-0.1L84.9,33.9z M86.2,40l-1-4.6h0
		l-1,4.6H86.2z"/>
	<path fill="#FFFFFF" d="M90.6,33.9c0-0.1,0.1-0.1,0.1-0.1h0.5c0.1,0,0.1,0,0.2,0.1l1.8,6.1h0l1.8-6.1c0-0.1,0.1-0.1,0.2-0.1h0.5
		c0.1,0,0.1,0.1,0.1,0.1v8.8c0,0.1-0.1,0.1-0.1,0.1h-0.4c-0.1,0-0.1-0.1-0.1-0.1v-7h0l-1.6,5.4c0,0.1-0.1,0.1-0.1,0.1H93
		c-0.1,0-0.1,0-0.1-0.1l-1.6-5.4h0v7c0,0.1-0.1,0.1-0.1,0.1h-0.4c-0.1,0-0.1-0.1-0.1-0.1V33.9z"/>
	<path fill="#FFFFFF" d="M98.6,33.9c0-0.1,0.1-0.1,0.1-0.1h0.4c0.1,0,0.1,0.1,0.1,0.1l1.9,8.8c0,0.1,0,0.1-0.1,0.1h-0.4
		c-0.1,0-0.1-0.1-0.1-0.1l-0.5-2.2h-2.2l-0.5,2.2c0,0.1-0.1,0.1-0.1,0.1h-0.4c-0.1,0-0.1-0.1-0.1-0.1L98.6,33.9z M99.9,40l-1-4.6h0
		l-1,4.6H99.9z"/>
	<path fill="#FFFFFF" d="M105.4,42.9c-0.1,0-0.1,0-0.1-0.1l-1.2-4c-0.2,0-0.4,0-0.6,0h-0.6c-0.1,0-0.1,0-0.1,0.1v3.9
		c0,0.1-0.1,0.1-0.1,0.1h-0.4c-0.1,0-0.1-0.1-0.1-0.1v-8.8c0-0.1,0.1-0.1,0.1-0.1h1.3c1.6,0,2.3,0.7,2.3,2.5c0,1.3-0.4,2-1.1,2.3
		l1.2,4.2c0,0.1,0,0.1-0.1,0.1H105.4z M105.1,36.3c0-1.4-0.5-1.9-1.6-1.9h-0.7c-0.1,0-0.1,0-0.1,0.1v3.6c0,0.1,0,0.1,0.1,0.1h0.7
		C104.7,38.2,105.1,37.8,105.1,36.3z"/>
	<path fill="#FFFFFF" d="M106.9,42.9c-0.1,0-0.1-0.1-0.1-0.1v-0.4c0-0.1,0-0.1,0-0.2l3-7.8v0H107c-0.1,0-0.1-0.1-0.1-0.1v-0.4
		c0-0.1,0.1-0.1,0.1-0.1h3.4c0.1,0,0.1,0.1,0.1,0.1v0.4c0,0.1,0,0.1,0,0.2l-3,7.8v0h2.9c0.1,0,0.1,0.1,0.1,0.1v0.4
		c0,0.1-0.1,0.1-0.1,0.1H106.9z"/>
	<path fill="#FFFFFF" d="M111.6,41.8c-0.1-0.4-0.2-0.8-0.2-3.4s0-3,0.2-3.4c0.3-0.8,0.9-1.2,1.8-1.2c0.9,0,1.6,0.4,1.8,1.2
		c0.1,0.4,0.2,0.8,0.2,3.4s0,3-0.2,3.4c-0.3,0.8-0.9,1.2-1.8,1.2C112.5,43,111.8,42.6,111.6,41.8z M114.6,41.6
		c0.1-0.3,0.1-0.6,0.1-3.2c0-2.6-0.1-2.9-0.1-3.2c-0.2-0.5-0.6-0.8-1.2-0.8s-1,0.3-1.2,0.8c-0.1,0.3-0.1,0.6-0.1,3.2
		c0,2.6,0,2.9,0.1,3.2c0.2,0.5,0.6,0.8,1.2,0.8S114.4,42.1,114.6,41.6z"/>
	<path fill="#FFFFFF" d="M118.9,33.9c0-0.1,0.1-0.1,0.1-0.1h1.6c1.1,0,1.7,0.5,2,1.4c0.2,0.5,0.2,1.1,0.2,3.2c0,2.1-0.1,2.7-0.2,3.2
		c-0.3,0.9-0.9,1.4-2,1.4H119c-0.1,0-0.1-0.1-0.1-0.1V33.9z M119.6,42.3h0.9c0.8,0,1.2-0.3,1.4-0.9c0.1-0.4,0.2-1,0.2-3
		c0-2-0.1-2.6-0.2-3c-0.2-0.6-0.6-0.9-1.4-0.9h-0.9c-0.1,0-0.1,0-0.1,0.1L119.6,42.3C119.6,42.2,119.6,42.3,119.6,42.3z"/>
	<path fill="#FFFFFF" d="M124.2,33.9c0-0.1,0.1-0.1,0.1-0.1h3.1c0.1,0,0.1,0.1,0.1,0.1v0.4c0,0.1-0.1,0.1-0.1,0.1H125
		c-0.1,0-0.1,0-0.1,0.1v3.3c0,0.1,0,0.1,0.1,0.1h2.1c0.1,0,0.1,0.1,0.1,0.1v0.4c0,0.1-0.1,0.1-0.1,0.1H125c-0.1,0-0.1,0-0.1,0.1v3.5
		c0,0.1,0,0.1,0.1,0.1h2.5c0.1,0,0.1,0.1,0.1,0.1v0.4c0,0.1-0.1,0.1-0.1,0.1h-3.1c-0.1,0-0.1-0.1-0.1-0.1V33.9z"/>
	<path fill="#FFFFFF" d="M130.5,42.4c0-0.1,0-0.1,0.1-0.2l2.3-4.6c0.3-0.6,0.4-1,0.4-1.8c0-0.5,0-0.7-0.1-0.9
		c-0.1-0.4-0.5-0.7-1-0.7c-0.5,0-0.8,0.2-1,0.7c-0.1,0.2-0.1,0.3-0.1,1c0,0.1-0.1,0.1-0.1,0.1l-0.4,0c-0.1,0-0.1-0.1-0.1-0.2
		c0-0.7,0-0.9,0.1-1.2c0.2-0.7,0.8-1.1,1.6-1.1s1.4,0.4,1.6,1.1c0.1,0.3,0.1,0.5,0.1,1.1c0,0.9-0.2,1.4-0.5,2.1l-2.2,4.3v0h2.6
		c0.1,0,0.1,0.1,0.1,0.1v0.4c0,0.1-0.1,0.1-0.1,0.1h-3.2c-0.1,0-0.1-0.1-0.1-0.1V42.4z"/>
	<path fill="#FFFFFF" d="M135.1,38.4c0-2.9,0.1-3.3,0.1-3.6c0.3-0.8,0.8-1.1,1.6-1.1c0.8,0,1.4,0.3,1.6,1.1c0.1,0.3,0.1,0.7,0.1,3.6
		c0,2.9-0.1,3.3-0.1,3.5c-0.3,0.8-0.8,1.1-1.6,1.1c-0.8,0-1.4-0.3-1.6-1.1C135.2,41.6,135.1,41.3,135.1,38.4z M136.9,42.4
		c0.5,0,0.8-0.2,1-0.7c0.1-0.2,0.1-0.6,0.1-3.3c0-2.8,0-3.1-0.1-3.3c-0.1-0.5-0.5-0.7-1-0.7c-0.5,0-0.8,0.2-1,0.7
		c-0.1,0.2-0.1,0.5-0.1,3.3c0,2.8,0,3.1,0.1,3.3C136.1,42.2,136.4,42.4,136.9,42.4z"/>
	<path fill="#FFFFFF" d="M139.8,42.4c0-0.1,0-0.1,0.1-0.2l2.3-4.6c0.3-0.6,0.4-1,0.4-1.8c0-0.5,0-0.7-0.1-0.9
		c-0.1-0.4-0.5-0.7-1-0.7c-0.5,0-0.8,0.2-1,0.7c-0.1,0.2-0.1,0.3-0.1,1c0,0.1-0.1,0.1-0.1,0.1l-0.4,0c-0.1,0-0.1-0.1-0.1-0.2
		c0-0.7,0-0.9,0.1-1.2c0.2-0.7,0.8-1.1,1.6-1.1s1.4,0.4,1.6,1.1c0.1,0.3,0.1,0.5,0.1,1.1c0,0.9-0.2,1.4-0.5,2.1l-2.2,4.3v0h2.6
		c0.1,0,0.1,0.1,0.1,0.1v0.4c0,0.1-0.1,0.1-0.1,0.1h-3.2c-0.1,0-0.1-0.1-0.1-0.1V42.4z"/>
	<path fill="#FFFFFF" d="M144.5,40.9c0-0.1,0-0.1,0.1-0.2l0.4,0c0.1,0,0.1,0,0.1,0.1c0,0.6,0,0.7,0.1,0.9c0.1,0.4,0.5,0.7,1,0.7
		c0.5,0,0.8-0.2,1-0.6c0.1-0.2,0.1-0.4,0.1-1.7c0-1.3-0.1-1.5-0.1-1.7c-0.1-0.4-0.5-0.7-1-0.7c-0.5,0-0.7,0.2-0.9,0.5
		c-0.1,0.1-0.1,0.1-0.2,0.1h-0.3c-0.1,0-0.1-0.1-0.1-0.1v-4.2c0-0.1,0.1-0.1,0.1-0.1h3.1c0.1,0,0.1,0.1,0.1,0.1v0.4
		c0,0.1-0.1,0.1-0.1,0.1h-2.5c-0.1,0-0.1,0-0.1,0.1v3h0c0.2-0.3,0.6-0.5,1.1-0.5c0.8,0,1.3,0.4,1.5,1c0.1,0.3,0.1,0.5,0.1,2
		c0,1.4-0.1,1.6-0.1,1.9c-0.2,0.7-0.8,1.1-1.6,1.1c-0.8,0-1.4-0.4-1.6-1.1C144.5,41.7,144.5,41.4,144.5,40.9z"/>
</g>
<g>
</g>
<g>
</g>
<g>
</g>
<g>
</g>
<g>
</g>
<g>
</g>
</svg>
