<svg id="Capa_1" data-name="Capa 1" xmlns="http://www.w3.org/2000/svg" viewBox="0 0 211 64"><defs><style>.cls-1{fill:#fff;}</style></defs><path class="cls-1" d="M42.6,11.5V4.28a.14.14,0,0,1,.14-.15H44a.13.13,0,0,1,.14.15v7.43a.91.91,0,0,0,.92,1c.58,0,.9-.41.9-1V4.28a.14.14,0,0,1,.15-.15h1.26a.14.14,0,0,1,.15.15V11.5c0,1.76-.93,2.65-2.46,2.65S42.6,13.26,42.6,11.5Z"/><path class="cls-1" d="M49.05,4.28a.14.14,0,0,1,.15-.15h1.54a.18.18,0,0,1,.21.15l1.83,6.83h.07V4.28A.14.14,0,0,1,53,4.13h1.07a.14.14,0,0,1,.15.15v9.6a.14.14,0,0,1-.15.14H52.63a.18.18,0,0,1-.2-.14L50.51,7h-.09v6.84a.14.14,0,0,1-.14.14H49.2a.14.14,0,0,1-.15-.14Z"/><path class="cls-1" d="M55.76,4.28a.14.14,0,0,1,.14-.15h1.27a.13.13,0,0,1,.14.15v9.6a.13.13,0,0,1-.14.14H55.9a.14.14,0,0,1-.14-.14Z"/><path class="cls-1" d="M60.44,14c-.09,0-.13-.06-.14-.14l-2-9.6c0-.09,0-.15.13-.15h1.25c.09,0,.13,0,.15.15L61,11h0l1.11-6.67a.14.14,0,0,1,.16-.15h1.22c.11,0,.14.06.13.15l-2,9.6c0,.08-.06.14-.15.14Z"/><path class="cls-1" d="M64.69,4.28a.14.14,0,0,1,.14-.15h4.06a.13.13,0,0,1,.14.15V5.4a.13.13,0,0,1-.14.14H66.33a.08.08,0,0,0-.09.09v2.6a.08.08,0,0,0,.09.09h2.21a.14.14,0,0,1,.15.14V9.59a.14.14,0,0,1-.15.14H66.33a.08.08,0,0,0-.09.09v2.7a.08.08,0,0,0,.09.09h2.56a.13.13,0,0,1,.14.14v1.13a.13.13,0,0,1-.14.14H64.83a.14.14,0,0,1-.14-.14Z"/><path class="cls-1" d="M74,14a.15.15,0,0,1-.16-.1L72.61,10h-.74a.08.08,0,0,0-.09.09v3.81a.13.13,0,0,1-.14.14H70.37a.14.14,0,0,1-.14-.14V4.28a.14.14,0,0,1,.14-.15h2c1.75,0,2.82.77,2.82,2.94A2.66,2.66,0,0,1,74,9.6l1.39,4.28c0,.07,0,.14-.07.14Zm-.35-6.95c0-1.16-.38-1.53-1.25-1.53h-.51a.08.08,0,0,0-.09.09V8.51a.08.08,0,0,0,.09.09h.51C73.25,8.6,73.63,8.25,73.63,7.07Z"/><path class="cls-1" d="M78.72,14.15c-1.6,0-2.43-.86-2.47-2.59a.14.14,0,0,1,.11-.16l1.23-.2a.12.12,0,0,1,.16.13c0,1.05.35,1.45,1,1.45s.94-.33.94-1.41-.21-1.41-1-1.71l-.6-.23c-1.36-.54-1.77-1.26-1.77-2.8,0-1.7.77-2.63,2.4-2.63s2.34.87,2.43,2.41a.15.15,0,0,1-.13.16l-1.17.18a.13.13,0,0,1-.16-.12c0-.81-.29-1.26-.93-1.26s-.9.38-.9,1.19.18,1.19,1,1.5l.6.23c1.29.51,1.8,1.21,1.8,2.89C81.25,13.13,80.6,14.15,78.72,14.15Z"/><path class="cls-1" d="M82.44,4.28a.14.14,0,0,1,.15-.15h1.26a.14.14,0,0,1,.15.15v9.6a.14.14,0,0,1-.15.14H82.59a.14.14,0,0,1-.15-.14Z"/><path class="cls-1" d="M85.54,4.28a.14.14,0,0,1,.15-.15H88a2.23,2.23,0,0,1,2.4,1.59,11.42,11.42,0,0,1,.25,3.36,11.52,11.52,0,0,1-.25,3.36A2.22,2.22,0,0,1,88,14H85.69a.14.14,0,0,1-.15-.14Zm1.64,8.33h.63a1,1,0,0,0,1-.71A10.66,10.66,0,0,0,89,9.08a10.71,10.71,0,0,0-.17-2.83,1,1,0,0,0-1-.71h-.63c-.05,0-.08,0-.08.09v6.89C87.1,12.58,87.13,12.61,87.18,12.61Z"/><path class="cls-1" d="M93.31,4.28c0-.09.07-.15.16-.15h1.22a.17.17,0,0,1,.16.15l2.09,9.6a.11.11,0,0,1-.12.14H95.59a.15.15,0,0,1-.16-.14l-.39-2h-2l-.39,2a.15.15,0,0,1-.16.14H91.28a.11.11,0,0,1-.11-.14Zm1.48,6.29-.7-3.68h0l-.73,3.68Z"/><path class="cls-1" d="M97.89,4.28A.14.14,0,0,1,98,4.13h2.29a2.23,2.23,0,0,1,2.4,1.59A11.6,11.6,0,0,1,103,9.08a11.7,11.7,0,0,1-.24,3.36,2.22,2.22,0,0,1-2.4,1.58H98a.14.14,0,0,1-.14-.14Zm1.64,8.33h.63a1,1,0,0,0,1-.71,9.93,9.93,0,0,0,.18-2.82,10,10,0,0,0-.18-2.83,1,1,0,0,0-1-.71h-.63a.08.08,0,0,0-.09.09v6.89A.08.08,0,0,0,99.53,12.61Z"/><path class="cls-1" d="M109.3,14.15c-1.6,0-2.43-.86-2.47-2.59a.14.14,0,0,1,.12-.16l1.22-.2a.12.12,0,0,1,.16.13c0,1.05.35,1.45,1,1.45s.93-.33.93-1.41-.21-1.41-1-1.71l-.59-.23c-1.37-.54-1.78-1.26-1.78-2.8,0-1.7.77-2.63,2.4-2.63s2.34.87,2.43,2.41a.15.15,0,0,1-.13.16l-1.16.18c-.09,0-.16,0-.16-.12,0-.81-.29-1.26-.93-1.26s-.91.38-.91,1.19.18,1.19,1,1.5l.6.23c1.29.51,1.8,1.21,1.8,2.89C111.83,13.13,111.18,14.15,109.3,14.15Z"/><path class="cls-1" d="M114.36,4.28c0-.09.08-.15.16-.15h1.22a.16.16,0,0,1,.16.15l2.1,9.6a.11.11,0,0,1-.12.14h-1.23a.14.14,0,0,1-.16-.14l-.4-2h-2l-.39,2a.15.15,0,0,1-.16.14h-1.24a.1.1,0,0,1-.11-.14Zm1.49,6.29-.7-3.68h-.05l-.72,3.68Z"/><path class="cls-1" d="M118.74,4.28a.14.14,0,0,1,.15-.15h1.54a.18.18,0,0,1,.2.15l1.83,6.83h.08V4.28a.13.13,0,0,1,.14-.15h1.08a.14.14,0,0,1,.14.15v9.6a.14.14,0,0,1-.14.14h-1.44c-.12,0-.18,0-.21-.14L120.19,7h-.08v6.84A.14.14,0,0,1,120,14h-1.07a.14.14,0,0,1-.15-.14Z"/><path class="cls-1" d="M126.56,14a.14.14,0,0,1-.14-.14V5.63a.08.08,0,0,0-.09-.09h-1.51a.14.14,0,0,1-.15-.14V4.28a.14.14,0,0,1,.15-.15h4.75a.14.14,0,0,1,.15.15V5.4a.14.14,0,0,1-.15.14h-1.51a.08.08,0,0,0-.09.09v8.25a.13.13,0,0,1-.14.14Z"/><path class="cls-1" d="M130.51,12.61c-.15-.44-.19-.79-.19-3.53s0-3.1.19-3.54a2.53,2.53,0,0,1,4.66,0c.15.44.19.79.19,3.54s0,3.09-.19,3.53a2.53,2.53,0,0,1-4.66,0Zm3.17-.42a13.41,13.41,0,0,0,.1-3.11,13.56,13.56,0,0,0-.1-3.12.84.84,0,0,0-.83-.55A.85.85,0,0,0,132,6a13.56,13.56,0,0,0-.1,3.12,13.41,13.41,0,0,0,.1,3.11.85.85,0,0,0,.85.55A.84.84,0,0,0,133.68,12.19Z"/><path class="cls-1" d="M140.47,14a.14.14,0,0,1-.15-.14V5.63a.08.08,0,0,0-.09-.09h-1.51a.13.13,0,0,1-.14-.14V4.28a.13.13,0,0,1,.14-.15h4.76a.14.14,0,0,1,.14.15V5.4a.14.14,0,0,1-.14.14H142c-.05,0-.08,0-.08.09v8.25a.14.14,0,0,1-.15.14Z"/><path class="cls-1" d="M144.41,12.61c-.15-.44-.19-.79-.19-3.53s0-3.1.19-3.54a2.54,2.54,0,0,1,4.67,0c.14.44.18.79.18,3.54s0,3.09-.18,3.53a2.54,2.54,0,0,1-4.67,0Zm3.17-.42a13.41,13.41,0,0,0,.1-3.11,13.56,13.56,0,0,0-.1-3.12.91.91,0,0,0-1.67,0c-.09.28-.11.4-.11,3.12s0,2.83.11,3.11a.91.91,0,0,0,1.67,0Z"/><path class="cls-1" d="M150.43,4.28a.14.14,0,0,1,.14-.15h1.27c.13,0,.2,0,.23.15l1.64,5.57h.06l1.6-5.57c0-.11.1-.15.23-.15h1.25a.14.14,0,0,1,.15.15v9.6a.14.14,0,0,1-.15.14h-1.12a.14.14,0,0,1-.14-.14V7.62h-.09l-1.28,4.5a.19.19,0,0,1-.19.14h-.64a.2.2,0,0,1-.19-.14l-1.28-4.5h-.08v6.26a.14.14,0,0,1-.15.14h-1.12a.14.14,0,0,1-.14-.14Z"/><path class="cls-1" d="M159.88,4.28c0-.09.07-.15.16-.15h1.22a.16.16,0,0,1,.16.15l2.1,9.6a.11.11,0,0,1-.12.14h-1.24a.15.15,0,0,1-.16-.14l-.39-2h-2l-.4,2a.14.14,0,0,1-.16.14h-1.23a.11.11,0,0,1-.12-.14Zm1.48,6.29-.69-3.68h0l-.72,3.68ZM160.23,3c-.09,0-.15-.07-.09-.14l1.12-1.56a.25.25,0,0,1,.23-.14h1.18c.09,0,.13.07.08.14l-1.43,1.56A.37.37,0,0,1,161,3Z"/><path class="cls-1" d="M166.41,14.15c-1.6,0-2.43-.86-2.47-2.59a.14.14,0,0,1,.11-.16l1.22-.2a.12.12,0,0,1,.16.13c0,1.05.35,1.45,1,1.45s.93-.33.93-1.41-.2-1.41-1-1.71l-.6-.23c-1.36-.54-1.77-1.26-1.77-2.8,0-1.7.77-2.63,2.4-2.63s2.34.87,2.43,2.41a.15.15,0,0,1-.13.16l-1.17.18a.13.13,0,0,1-.16-.12c0-.81-.29-1.26-.93-1.26s-.9.38-.9,1.19.17,1.19,1,1.5l.6.23c1.29.51,1.8,1.21,1.8,2.89C168.94,13.13,168.29,14.15,166.41,14.15Z"/><path class="cls-1" d="M29.6,19.82c0-.09.09-.16.18-.16H31.7a.18.18,0,0,1,.18.16l2.38,10.75a.12.12,0,0,1-.13.16H32.32a.17.17,0,0,1-.18-.16l-.35-2h-2.1l-.38,2a.16.16,0,0,1-.18.16H27.32c-.09,0-.14-.06-.13-.16Zm1.88,7.05L30.78,23h-.05L30,26.87Z"/><path class="cls-1" d="M34.77,25.2c0-2.87.06-3.37.21-3.84a2.59,2.59,0,0,1,2.75-1.84,2.64,2.64,0,0,1,2.91,2.8.17.17,0,0,1-.14.19l-1.71.29a.14.14,0,0,1-.18-.14c0-.88-.31-1.22-.85-1.22a.68.68,0,0,0-.73.5,15.59,15.59,0,0,0-.1,3.26,15.42,15.42,0,0,0,.1,3.25.67.67,0,0,0,.73.51c.54,0,.82-.34.85-1.22a.14.14,0,0,1,.18-.15l1.71.29c.11,0,.14.1.14.2a2.64,2.64,0,0,1-2.91,2.8A2.59,2.59,0,0,1,35,29C34.83,28.57,34.77,28.06,34.77,25.2Z"/><path class="cls-1" d="M45.71,30.73a.16.16,0,0,1-.18-.13l-1.26-4.2h-.61c-.07,0-.1,0-.1.1v4.07a.16.16,0,0,1-.17.16h-1.8a.16.16,0,0,1-.17-.16V19.82a.16.16,0,0,1,.17-.16h2.63c2,0,3.24.93,3.24,3.39a3.19,3.19,0,0,1-1.23,2.83l1.51,4.69c0,.08,0,.16-.08.16Zm-.39-7.68c0-1.16-.36-1.52-1.19-1.52h-.47a.09.09,0,0,0-.1.1v2.84c0,.06,0,.09.1.09h.47C45,24.56,45.32,24.22,45.32,23.05Z"/><path class="cls-1" d="M48.59,19.82a.15.15,0,0,1,.16-.16h4.84a.16.16,0,0,1,.16.16v1.6a.15.15,0,0,1-.16.16H50.82a.09.09,0,0,0-.1.1v2.41c0,.07,0,.1.1.1h2.39a.15.15,0,0,1,.16.16V26a.15.15,0,0,1-.16.16H50.82c-.07,0-.1,0-.1.1v2.5c0,.07,0,.1.1.1h2.77a.16.16,0,0,1,.16.16v1.6a.15.15,0,0,1-.16.16H48.75a.15.15,0,0,1-.16-.16Z"/><path class="cls-1" d="M54.71,19.82a.16.16,0,0,1,.16-.16h2.8a2.61,2.61,0,0,1,2.84,1.84,12.63,12.63,0,0,1,.29,3.7,12.49,12.49,0,0,1-.29,3.69,2.6,2.6,0,0,1-2.84,1.84h-2.8a.15.15,0,0,1-.16-.16Zm2.23,9h.52a.89.89,0,0,0,1-.68,9.31,9.31,0,0,0,.18-2.93,9.26,9.26,0,0,0-.18-2.93.9.9,0,0,0-1-.69h-.52a.09.09,0,0,0-.1.1v7A.09.09,0,0,0,56.94,28.81Z"/><path class="cls-1" d="M61.91,19.82a.15.15,0,0,1,.16-.16h1.81a.16.16,0,0,1,.16.16V30.57a.15.15,0,0,1-.16.16H62.07a.15.15,0,0,1-.16-.16Z"/><path class="cls-1" d="M67,30.73a.15.15,0,0,1-.16-.16V21.68a.09.09,0,0,0-.1-.1H65a.15.15,0,0,1-.16-.16v-1.6a.15.15,0,0,1,.16-.16h5.81a.16.16,0,0,1,.17.16v1.6a.16.16,0,0,1-.17.16H69a.09.09,0,0,0-.1.1v8.89a.15.15,0,0,1-.16.16Z"/><path class="cls-1" d="M73.48,19.82c0-.09.08-.16.18-.16h1.92a.18.18,0,0,1,.18.16l2.38,10.75a.12.12,0,0,1-.13.16H76.2a.17.17,0,0,1-.18-.16l-.35-2H73.56l-.37,2c0,.1-.06.16-.18.16H71.2c-.09,0-.14-.06-.13-.16Zm1.88,7.05L74.65,23h0l-.74,3.84Z"/><path class="cls-1" d="M78.81,19.82a.15.15,0,0,1,.16-.16h2.8A2.59,2.59,0,0,1,84.6,21.5a12.1,12.1,0,0,1,.3,3.7,12,12,0,0,1-.3,3.69,2.58,2.58,0,0,1-2.83,1.84H79a.15.15,0,0,1-.16-.16Zm2.23,9h.52a.89.89,0,0,0,1-.68,9.69,9.69,0,0,0,.18-2.93,9.64,9.64,0,0,0-.18-2.93.9.9,0,0,0-1-.69H81a.09.09,0,0,0-.1.1v7C80.94,28.78,81,28.81,81,28.81Z"/><path class="cls-1" d="M87.81,19.82c0-.09.08-.16.18-.16h1.92a.18.18,0,0,1,.18.16l2.38,10.75c0,.1,0,.16-.13.16H90.53a.17.17,0,0,1-.18-.16l-.36-2h-2.1l-.37,2a.17.17,0,0,1-.18.16H85.53a.12.12,0,0,1-.13-.16Zm1.87,7.05L89,23h0l-.73,3.84Z"/><path class="cls-1" d="M96.08,19.82a.16.16,0,0,1,.16-.16h2a.21.21,0,0,1,.23.16l1.84,7h.08v-7a.15.15,0,0,1,.16-.16h1.55a.15.15,0,0,1,.16.16V30.57a.15.15,0,0,1-.16.16h-2a.19.19,0,0,1-.22-.16L98,23.62H98v7a.15.15,0,0,1-.16.16H96.24a.15.15,0,0,1-.16-.16Z"/><path class="cls-1" d="M103.57,19.82a.16.16,0,0,1,.16-.16h1.81a.15.15,0,0,1,.16.16V30.57a.15.15,0,0,1-.16.16h-1.81a.15.15,0,0,1-.16-.16Z"/><path class="cls-1" d="M108.83,30.73c-.1,0-.15-.06-.18-.16l-2.2-10.75c0-.09,0-.16.13-.16h1.84a.16.16,0,0,1,.18.16l1.13,7h0l1.08-7a.16.16,0,0,1,.18-.16h1.81c.11,0,.16.07.13.16l-2.22,10.75c0,.1-.06.16-.16.16Z"/><path class="cls-1" d="M113.72,19.82a.15.15,0,0,1,.16-.16h4.83a.16.16,0,0,1,.17.16v1.6a.16.16,0,0,1-.17.16H116a.09.09,0,0,0-.1.1v2.41c0,.07,0,.1.1.1h2.39a.15.15,0,0,1,.16.16V26a.15.15,0,0,1-.16.16H116c-.07,0-.1,0-.1.1v2.5c0,.07,0,.1.1.1h2.76a.16.16,0,0,1,.17.16v1.6a.16.16,0,0,1-.17.16h-4.83a.15.15,0,0,1-.16-.16Z"/><path class="cls-1" d="M119.84,19.82a.15.15,0,0,1,.16-.16h1.81a.16.16,0,0,1,.16.16v8.89c0,.07,0,.1.1.1h2.8A.16.16,0,0,1,125,29v1.6a.15.15,0,0,1-.16.16H120a.15.15,0,0,1-.16-.16Z"/><path class="cls-1" d="M130.63,19.82c0-.09.08-.16.18-.16h1.92a.18.18,0,0,1,.18.16l2.38,10.75c0,.1,0,.16-.13.16h-1.81a.17.17,0,0,1-.18-.16l-.36-2h-2.1l-.37,2a.17.17,0,0,1-.18.16h-1.81c-.1,0-.14-.06-.13-.16Zm1.87,7.05L131.8,23h-.05L131,26.87Z"/><path class="cls-1" d="M137.81,30.73c-.1,0-.15-.06-.18-.16l-2.2-10.75c0-.09,0-.16.13-.16h1.84a.16.16,0,0,1,.18.16l1.13,7h0l1.08-7a.17.17,0,0,1,.18-.16h1.81c.11,0,.16.07.13.16l-2.22,10.75c0,.1-.06.16-.16.16Z"/><path class="cls-1" d="M144.5,19.82c0-.09.08-.16.18-.16h1.92a.18.18,0,0,1,.18.16l2.38,10.75a.12.12,0,0,1-.13.16h-1.81a.17.17,0,0,1-.18-.16l-.36-2h-2.1l-.37,2a.17.17,0,0,1-.18.16h-1.81c-.09,0-.14-.06-.13-.16Zm1.87,7.05-.7-3.84h0l-.74,3.84Z"/><path class="cls-1" d="M149.83,19.82a.15.15,0,0,1,.16-.16h2a.2.2,0,0,1,.23.16l1.84,7h.08v-7a.16.16,0,0,1,.17-.16h1.54a.16.16,0,0,1,.17.16V30.57a.16.16,0,0,1-.17.16h-1.95a.2.2,0,0,1-.23-.16l-1.92-6.95h-.08v7a.15.15,0,0,1-.16.16H150a.15.15,0,0,1-.16-.16Z"/><path class="cls-1" d="M157.23,30.73a.15.15,0,0,1-.16-.16V29a.38.38,0,0,1,.05-.16l2.9-7.26v0H157.4a.16.16,0,0,1-.17-.16v-1.6a.16.16,0,0,1,.17-.16h4.72a.15.15,0,0,1,.16.16v1.55a.35.35,0,0,1,0,.16l-2.9,7.25v0h2.77a.15.15,0,0,1,.16.16v1.6a.15.15,0,0,1-.16.16Z"/><path class="cls-1" d="M165.11,19.82c0-.09.09-.16.18-.16h1.93a.17.17,0,0,1,.17.16l2.38,10.75a.12.12,0,0,1-.13.16h-1.81a.17.17,0,0,1-.18-.16l-.35-2h-2.1l-.38,2a.16.16,0,0,1-.18.16h-1.8a.12.12,0,0,1-.13-.16ZM167,26.87l-.7-3.84h0l-.73,3.84Z"/><path class="cls-1" d="M170.44,19.82a.15.15,0,0,1,.16-.16h2.8a2.59,2.59,0,0,1,2.83,1.84,12.1,12.1,0,0,1,.3,3.7,12,12,0,0,1-.3,3.69,2.58,2.58,0,0,1-2.83,1.84h-2.8a.15.15,0,0,1-.16-.16Zm2.23,9h.52a.89.89,0,0,0,1-.68,9.69,9.69,0,0,0,.18-2.93,9.64,9.64,0,0,0-.18-2.93.9.9,0,0,0-1-.69h-.52a.09.09,0,0,0-.1.1v7C172.57,28.78,172.6,28.81,172.67,28.81Z"/><path class="cls-1" d="M177.7,29c-.18-.51-.23-1-.23-3.81s.05-3.31.23-3.81a3.08,3.08,0,0,1,5.67,0c.17.5.22,1,.22,3.81s-.05,3.3-.22,3.81a3.08,3.08,0,0,1-5.67,0Zm3.61-.59a13.21,13.21,0,0,0,.12-3.22,13.27,13.27,0,0,0-.12-3.23.76.76,0,0,0-.78-.53.78.78,0,0,0-.78.53,14.68,14.68,0,0,0-.11,3.23,14.61,14.61,0,0,0,.11,3.22.78.78,0,0,0,.78.54A.77.77,0,0,0,181.31,28.42Z"/><path class="cls-1" d="M9.2,57.83c0-2.89.05-3.27.19-3.71a1.91,1.91,0,0,1,2-1.35,2,2,0,0,1,2.13,1.95.16.16,0,0,1-.1.19L13,55a.12.12,0,0,1-.17-.11c-.13-.87-.55-1.41-1.43-1.41a1.21,1.21,0,0,0-1.26.88c-.1.33-.15.64-.15,3.47s0,3.14.15,3.48a1.24,1.24,0,0,0,1.28.87,1.26,1.26,0,0,0,1.28-.87,11.09,11.09,0,0,0,.14-2.9c0-.06,0-.08-.08-.08H11.56a.14.14,0,0,1-.15-.15v-.41a.14.14,0,0,1,.15-.14h1.86a.14.14,0,0,1,.15.14v.4c0,2.56-.05,2.93-.19,3.37a1.91,1.91,0,0,1-2,1.35,1.9,1.9,0,0,1-2-1.35C9.25,61.1,9.2,60.73,9.2,57.83Z"/><path class="cls-1" d="M14.77,53a.14.14,0,0,1,.15-.14h3.36a.14.14,0,0,1,.14.14v.42a.14.14,0,0,1-.14.15H15.62a.08.08,0,0,0-.09.09v3.63a.08.08,0,0,0,.09.09h2.32a.14.14,0,0,1,.15.15V58a.14.14,0,0,1-.15.14H15.62a.08.08,0,0,0-.09.09V62c0,.05,0,.08.09.08h2.66a.14.14,0,0,1,.14.15v.42a.14.14,0,0,1-.14.15H14.92a.14.14,0,0,1-.15-.15Z"/><path class="cls-1" d="M21.05,62.89c-1.36,0-2.05-.81-2.12-2.48,0-.09,0-.15.1-.16l.44-.09c.12,0,.16,0,.16.11.1,1.45.57,1.92,1.44,1.92s1.34-.42,1.34-2c0-1.25-.31-1.73-1.09-2l-.6-.23c-1.31-.51-1.67-1.15-1.67-2.65,0-1.66.67-2.46,2-2.46s2,.74,2,2.28c0,.09,0,.14-.1.16l-.42.08a.11.11,0,0,1-.16-.12c-.05-1.16-.44-1.7-1.31-1.7s-1.28.51-1.28,1.73.29,1.58,1.1,1.91l.6.23c1.24.49,1.66,1.12,1.66,2.72C23.15,62.09,22.52,62.89,21.05,62.89Z"/><path class="cls-1" d="M25.61,62.78a.14.14,0,0,1-.15-.15V53.69a.08.08,0,0,0-.09-.09H23.63a.14.14,0,0,1-.15-.15V53a.14.14,0,0,1,.15-.14h4.42a.13.13,0,0,1,.14.14v.42a.13.13,0,0,1-.14.15H26.3c-.05,0-.08,0-.08.09v8.94a.14.14,0,0,1-.15.15Z"/><path class="cls-1" d="M28.88,53a.14.14,0,0,1,.14-.14h.47a.13.13,0,0,1,.14.14v9.6a.13.13,0,0,1-.14.15H29a.14.14,0,0,1-.14-.15Z"/><path class="cls-1" d="M31.07,61.54c-.14-.44-.19-.81-.19-3.71s.05-3.27.19-3.71a2.15,2.15,0,0,1,4,0c.14.44.19.82.19,3.71s0,3.27-.19,3.71a1.9,1.9,0,0,1-2,1.35A1.91,1.91,0,0,1,31.07,61.54Zm3.26-.23c.1-.34.16-.64.16-3.48s-.06-3.14-.16-3.47a1.35,1.35,0,0,0-2.53,0c-.1.33-.14.64-.14,3.47a14.42,14.42,0,0,0,.14,3.48,1.35,1.35,0,0,0,2.53,0Zm-1.5-9.66c-.08,0-.11-.07-.06-.14l1.1-1.5c.07-.1.11-.15.24-.15h.48c.09,0,.12.08.06.15l-1.26,1.5c-.11.11-.15.14-.25.14Z"/><path class="cls-1" d="M36.48,53a.14.14,0,0,1,.15-.14h.58c.13,0,.19,0,.23.14l2.74,8.1h0V53a.14.14,0,0,1,.15-.14h.4a.14.14,0,0,1,.15.14v9.6a.14.14,0,0,1-.15.15h-.55c-.13,0-.19,0-.23-.15l-2.76-8.1h0v8.1a.14.14,0,0,1-.14.15h-.41a.14.14,0,0,1-.15-.15Z"/><path class="cls-1" d="M44.44,53a.14.14,0,0,1,.14-.14h.47a.13.13,0,0,1,.14.14v9.6a.13.13,0,0,1-.14.15h-.47a.14.14,0,0,1-.14-.15Z"/><path class="cls-1" d="M46.6,53a.14.14,0,0,1,.15-.14h.58c.13,0,.19,0,.23.14l2.74,8.1h0V53a.14.14,0,0,1,.15-.14h.4A.14.14,0,0,1,51,53v9.6a.14.14,0,0,1-.15.15h-.55c-.13,0-.19,0-.23-.15l-2.76-8.1H47.3v8.1a.14.14,0,0,1-.14.15h-.41a.14.14,0,0,1-.15-.15Z"/><path class="cls-1" d="M54.21,62.89c-1.37,0-2.05-.81-2.12-2.48,0-.09,0-.15.1-.16l.43-.09c.12,0,.16,0,.16.11.11,1.45.57,1.92,1.45,1.92s1.33-.42,1.33-2c0-1.25-.3-1.73-1.09-2l-.59-.23c-1.31-.51-1.68-1.15-1.68-2.65,0-1.66.67-2.46,2-2.46s2,.74,2,2.28c0,.09,0,.14-.1.16l-.43.08a.11.11,0,0,1-.16-.12c0-1.16-.43-1.7-1.3-1.7s-1.29.51-1.29,1.73.3,1.58,1.11,1.91l.6.23c1.23.49,1.65,1.12,1.65,2.72C56.3,62.09,55.68,62.89,54.21,62.89Z"/><path class="cls-1" d="M58.76,62.78a.13.13,0,0,1-.14-.15V53.69a.08.08,0,0,0-.09-.09H56.78a.14.14,0,0,1-.14-.15V53a.14.14,0,0,1,.14-.14h4.43a.14.14,0,0,1,.14.14v.42a.14.14,0,0,1-.14.15H59.46a.08.08,0,0,0-.09.09v8.94a.14.14,0,0,1-.14.15Z"/><path class="cls-1" d="M62,53a.14.14,0,0,1,.15-.14h.46a.14.14,0,0,1,.15.14v9.6a.14.14,0,0,1-.15.15h-.46a.14.14,0,0,1-.15-.15Z"/><path class="cls-1" d="M65.6,62.78a.14.14,0,0,1-.15-.15V53.69a.08.08,0,0,0-.09-.09H63.62a.14.14,0,0,1-.15-.15V53a.14.14,0,0,1,.15-.14H68a.14.14,0,0,1,.15.14v.42a.14.14,0,0,1-.15.15H66.29c-.05,0-.08,0-.08.09v8.94a.14.14,0,0,1-.15.15Z"/><path class="cls-1" d="M68.85,60.45V53a.14.14,0,0,1,.15-.14h.46a.14.14,0,0,1,.15.14v7.48c0,1.15.55,1.67,1.38,1.67s1.4-.52,1.4-1.67V53a.14.14,0,0,1,.14-.14H73a.14.14,0,0,1,.15.14v7.42c0,1.64-.86,2.44-2.14,2.44S68.85,62.09,68.85,60.45Z"/><path class="cls-1" d="M74.37,57.83c0-2.89,0-3.28.18-3.71a1.86,1.86,0,0,1,1.94-1.35,2,2,0,0,1,2,2c0,.1,0,.16-.09.19l-.43.08c-.09,0-.16,0-.16-.11-.12-.93-.54-1.46-1.33-1.46a1.17,1.17,0,0,0-1.22.88c-.1.32-.14.65-.14,3.47a14.42,14.42,0,0,0,.14,3.48,1.17,1.17,0,0,0,1.22.87c.79,0,1.21-.52,1.33-1.47,0-.09.07-.13.16-.1l.43.09c.09,0,.1.08.09.17a2,2,0,0,1-2,2,1.85,1.85,0,0,1-1.94-1.35C74.42,61.12,74.37,60.73,74.37,57.83Z"/><path class="cls-1" d="M79.4,53a.14.14,0,0,1,.14-.14H80a.14.14,0,0,1,.14.14v9.6a.14.14,0,0,1-.14.15h-.47a.14.14,0,0,1-.14-.15Z"/><path class="cls-1" d="M81.58,61.54c-.15-.44-.19-.81-.19-3.71s0-3.27.19-3.71a2.14,2.14,0,0,1,4,0c.15.44.19.82.19,3.71s0,3.27-.19,3.71a2.14,2.14,0,0,1-4,0Zm3.25-.23c.11-.34.16-.64.16-3.48s0-3.14-.16-3.47a1.19,1.19,0,0,0-1.26-.88,1.22,1.22,0,0,0-1.27.88c-.1.33-.14.64-.14,3.47a14.42,14.42,0,0,0,.14,3.48,1.24,1.24,0,0,0,1.27.87A1.2,1.2,0,0,0,84.83,61.31Z"/><path class="cls-1" d="M87,53a.14.14,0,0,1,.15-.14h.58c.13,0,.19,0,.23.14l2.74,8.1h0V53a.14.14,0,0,1,.15-.14h.4a.14.14,0,0,1,.15.14v9.6a.14.14,0,0,1-.15.15h-.55c-.13,0-.19,0-.23-.15l-2.77-8.1h0v8.1a.14.14,0,0,1-.15.15h-.4a.14.14,0,0,1-.15-.15Z"/><path class="cls-1" d="M94.3,53c0-.08.07-.14.16-.14h.48a.15.15,0,0,1,.16.14l2,9.6a.13.13,0,0,1-.13.15h-.47c-.1,0-.14-.06-.16-.15l-.49-2.37H93.47L93,62.63c0,.09-.06.15-.15.15h-.46a.14.14,0,0,1-.15-.15Zm1.44,6.55-1-5h0l-1.06,5Z"/><path class="cls-1" d="M97.91,53a.14.14,0,0,1,.14-.14h.47a.13.13,0,0,1,.14.14V62c0,.05,0,.08.09.08h2.65a.13.13,0,0,1,.14.15v.42a.13.13,0,0,1-.14.15H98.05a.14.14,0,0,1-.14-.15Z"/><path class="cls-1" d="M105.67,52.92a.17.17,0,0,1,.16-.15h.34a.12.12,0,0,1,.13.15l-1.82,9.83a.14.14,0,0,1-.16.14H104a.12.12,0,0,1-.13-.14Z"/><path class="cls-1" d="M109.24,53a.14.14,0,0,1,.14-.14h1.78a2,2,0,0,1,2.15,1.47,12.12,12.12,0,0,1,.23,3.47,12.37,12.37,0,0,1-.23,3.48,2,2,0,0,1-2.15,1.47h-1.78a.14.14,0,0,1-.14-.15Zm.84,9h1a1.38,1.38,0,0,0,1.51-1,11.51,11.51,0,0,0,.2-3.23,11.51,11.51,0,0,0-.2-3.23,1.38,1.38,0,0,0-1.51-1h-1a.08.08,0,0,0-.09.09V62C110,62,110,62.06,110.08,62.06Z"/><path class="cls-1" d="M114.82,61.54c-.15-.44-.19-.81-.19-3.71s0-3.27.19-3.71a2.14,2.14,0,0,1,4,0c.15.44.19.82.19,3.71s0,3.27-.19,3.71a2.14,2.14,0,0,1-4,0Zm3.26-.23c.1-.34.16-.64.16-3.48s-.06-3.14-.16-3.47a1.35,1.35,0,0,0-2.53,0c-.1.33-.15.64-.15,3.47s0,3.14.15,3.48a1.35,1.35,0,0,0,2.53,0Z"/><path class="cls-1" d="M120.09,57.83c0-2.89,0-3.28.18-3.71a1.86,1.86,0,0,1,1.94-1.35,2,2,0,0,1,2,2c0,.1,0,.16-.09.19l-.43.08c-.09,0-.16,0-.16-.11-.12-.93-.54-1.46-1.33-1.46a1.17,1.17,0,0,0-1.22.88c-.1.32-.14.65-.14,3.47a14.42,14.42,0,0,0,.14,3.48,1.17,1.17,0,0,0,1.22.87c.79,0,1.21-.52,1.33-1.47,0-.09.07-.13.16-.1l.43.09c.09,0,.1.08.09.17a2,2,0,0,1-2,2,1.85,1.85,0,0,1-1.94-1.35C120.14,61.12,120.09,60.73,120.09,57.83Z"/><path class="cls-1" d="M125.1,53a.14.14,0,0,1,.15-.14h3.36a.14.14,0,0,1,.14.14v.42a.14.14,0,0,1-.14.15H126a.08.08,0,0,0-.09.09v3.63a.08.08,0,0,0,.09.09h2.32a.14.14,0,0,1,.15.15V58a.14.14,0,0,1-.15.14H126a.08.08,0,0,0-.09.09V62c0,.05,0,.08.09.08h2.66a.14.14,0,0,1,.14.15v.42a.14.14,0,0,1-.14.15h-3.36a.14.14,0,0,1-.15-.15Z"/><path class="cls-1" d="M129.63,53a.13.13,0,0,1,.14-.14h.58c.13,0,.19,0,.23.14l2.74,8.1h0V53a.14.14,0,0,1,.15-.14h.4a.14.14,0,0,1,.15.14v9.6a.14.14,0,0,1-.15.15h-.55c-.13,0-.19,0-.23-.15l-2.76-8.1h-.05v8.1a.13.13,0,0,1-.14.15h-.41a.13.13,0,0,1-.14-.15Z"/><path class="cls-1" d="M135.31,57.83c0-2.89.06-3.28.19-3.71a1.85,1.85,0,0,1,1.93-1.35,2,2,0,0,1,2,2c0,.1,0,.16-.09.19l-.44.08a.11.11,0,0,1-.16-.11c-.11-.93-.54-1.46-1.32-1.46a1.16,1.16,0,0,0-1.22.88c-.1.32-.15.65-.15,3.47s0,3.16.15,3.48a1.16,1.16,0,0,0,1.22.87c.78,0,1.21-.52,1.32-1.47a.11.11,0,0,1,.16-.1l.44.09c.09,0,.1.08.09.17a2,2,0,0,1-2,2,1.84,1.84,0,0,1-1.93-1.35C135.37,61.12,135.31,60.73,135.31,57.83Z"/><path class="cls-1" d="M140.33,53a.14.14,0,0,1,.14-.14h.47a.13.13,0,0,1,.14.14v9.6a.13.13,0,0,1-.14.15h-.47a.14.14,0,0,1-.14-.15Z"/><path class="cls-1" d="M143.93,53c0-.08.08-.14.16-.14h.48a.15.15,0,0,1,.16.14l2,9.6a.12.12,0,0,1-.13.15h-.47c-.1,0-.14-.06-.16-.15l-.49-2.37h-2.41l-.5,2.37a.15.15,0,0,1-.15.15H142a.14.14,0,0,1-.15-.15Zm1.44,6.55-1-5h0l-1.06,5Z"/><path class="cls-1" d="M149.66,53a.14.14,0,0,1,.15-.14h1.77a2,2,0,0,1,2.15,1.47,11.53,11.53,0,0,1,.24,3.47,11.77,11.77,0,0,1-.24,3.48,2,2,0,0,1-2.15,1.47h-1.77a.14.14,0,0,1-.15-.15Zm.85,9h1a1.39,1.39,0,0,0,1.51-1,12,12,0,0,0,.2-3.23,12,12,0,0,0-.2-3.23,1.39,1.39,0,0,0-1.51-1h-1a.08.08,0,0,0-.09.09V62C150.42,62,150.45,62.06,150.51,62.06Z"/><path class="cls-1" d="M155.23,53a.14.14,0,0,1,.15-.14h3.36a.13.13,0,0,1,.14.14v.42a.13.13,0,0,1-.14.15h-2.66a.08.08,0,0,0-.09.09v3.63a.08.08,0,0,0,.09.09h2.32a.14.14,0,0,1,.15.15V58a.14.14,0,0,1-.15.14h-2.32a.08.08,0,0,0-.09.09V62c0,.05,0,.08.09.08h2.66a.13.13,0,0,1,.14.15v.42a.13.13,0,0,1-.14.15h-3.36a.14.14,0,0,1-.15-.15Z"/><path class="cls-1" d="M162,62.78a.14.14,0,0,1-.14-.15V53a.14.14,0,0,1,.14-.14h1.43c1.73,0,2.53.8,2.53,2.86s-.82,2.88-2.53,2.88h-.73a.08.08,0,0,0-.09.09v3.91a.13.13,0,0,1-.14.15Zm3.2-7c0-1.57-.48-2.15-1.77-2.15h-.73a.08.08,0,0,0-.09.09v4.14a.08.08,0,0,0,.09.09h.73C164.74,57.92,165.22,57.34,165.22,55.75Z"/><path class="cls-1" d="M170.5,62.78a.15.15,0,0,1-.16-.11l-1.28-4.36a3.91,3.91,0,0,1-.61,0h-.68a.08.08,0,0,0-.09.09v4.19a.14.14,0,0,1-.14.15h-.47a.13.13,0,0,1-.14-.15V53a.13.13,0,0,1,.14-.14h1.41c1.73,0,2.52.72,2.52,2.73,0,1.38-.44,2.15-1.22,2.5l1.33,4.51c0,.09,0,.15-.07.15Zm-.26-7.16c0-1.53-.49-2-1.7-2h-.77a.08.08,0,0,0-.09.09v3.88a.08.08,0,0,0,.09.09h.77C169.72,57.66,170.24,57.21,170.24,55.62Z"/><path class="cls-1" d="M172,53a.14.14,0,0,1,.15-.14h3.36a.14.14,0,0,1,.14.14v.42a.14.14,0,0,1-.14.15h-2.67c-.05,0-.08,0-.08.09v3.63c0,.06,0,.09.08.09h2.33a.14.14,0,0,1,.15.15V58a.14.14,0,0,1-.15.14h-2.33c-.05,0-.08,0-.08.09V62a.07.07,0,0,0,.08.08h2.67a.14.14,0,0,1,.14.15v.42a.14.14,0,0,1-.14.15h-3.36a.14.14,0,0,1-.15-.15Z"/><path class="cls-1" d="M176.35,57.83c0-2.89,0-3.27.19-3.71a1.91,1.91,0,0,1,2-1.35,2,2,0,0,1,2.12,1.95.14.14,0,0,1-.1.19l-.42.09a.13.13,0,0,1-.18-.11c-.13-.87-.55-1.41-1.42-1.41a1.22,1.22,0,0,0-1.27.88c-.1.33-.14.64-.14,3.47a14.42,14.42,0,0,0,.14,3.48,1.26,1.26,0,0,0,1.28.87,1.24,1.24,0,0,0,1.28-.87,10.23,10.23,0,0,0,.15-2.9c0-.06,0-.08-.09-.08H178.7a.14.14,0,0,1-.14-.15v-.41a.14.14,0,0,1,.14-.14h1.86a.14.14,0,0,1,.15.14v.4c0,2.56,0,2.93-.19,3.37a2.14,2.14,0,0,1-4,0C176.39,61.1,176.35,60.73,176.35,57.83Z"/><path class="cls-1" d="M185.48,62.78a.14.14,0,0,1-.16-.11L184,58.31a3.91,3.91,0,0,1-.61,0h-.68a.08.08,0,0,0-.09.09v4.19a.14.14,0,0,1-.15.15h-.46a.14.14,0,0,1-.15-.15V53a.14.14,0,0,1,.15-.14h1.41c1.73,0,2.51.72,2.51,2.73,0,1.38-.43,2.15-1.22,2.5l1.34,4.51c0,.09,0,.15-.07.15Zm-.26-7.16c0-1.53-.5-2-1.7-2h-.77a.08.08,0,0,0-.09.09v3.88a.08.08,0,0,0,.09.09h.77C184.7,57.66,185.22,57.21,185.22,55.62Z"/><path class="cls-1" d="M188.4,53c0-.08.08-.14.16-.14H189a.15.15,0,0,1,.16.14l2,9.6a.12.12,0,0,1-.13.15h-.47c-.1,0-.14-.06-.16-.15L190,60.26h-2.41l-.5,2.37c0,.09-.06.15-.14.15h-.47a.14.14,0,0,1-.15-.15Zm1.44,6.55-1-5h0l-1.06,5Z"/><path class="cls-1" d="M192,53a.13.13,0,0,1,.14-.14H194a2,2,0,0,1,2.15,1.47,12.12,12.12,0,0,1,.23,3.47,12.37,12.37,0,0,1-.23,3.48A2,2,0,0,1,194,62.78h-1.78a.13.13,0,0,1-.14-.15Zm.84,9h1a1.38,1.38,0,0,0,1.51-1,12,12,0,0,0,.2-3.23,12,12,0,0,0-.2-3.23,1.38,1.38,0,0,0-1.51-1h-1a.08.08,0,0,0-.09.09V62C192.78,62,192.81,62.06,192.87,62.06Z"/><path class="cls-1" d="M197.62,61.54c-.14-.44-.19-.81-.19-3.71s0-3.27.19-3.71a2.15,2.15,0,0,1,4,0c.14.44.19.82.19,3.71s-.05,3.27-.19,3.71a2.15,2.15,0,0,1-4,0Zm3.26-.23c.1-.34.16-.64.16-3.48s-.06-3.14-.16-3.47a1.35,1.35,0,0,0-2.53,0c-.1.33-.14.64-.14,3.47a14.42,14.42,0,0,0,.14,3.48,1.35,1.35,0,0,0,2.53,0Z"/><path class="cls-1" d="M41.2,45.72v-.38a.74.74,0,0,1,0-.17l2-7.25a.15.15,0,0,1,.17-.11h.44c.09,0,.14.06.11.16l-2,7.18v0h2a.08.08,0,0,0,.09-.09V42.17a.13.13,0,0,1,.14-.14h.44a.13.13,0,0,1,.15.14v2.92c0,.06,0,.09.08.09h.83a.14.14,0,0,1,.15.15v.39a.13.13,0,0,1-.15.14h-.83c-.06,0-.08,0-.08.09v1.6a.14.14,0,0,1-.15.15h-.44a.14.14,0,0,1-.14-.15V46a.08.08,0,0,0-.09-.09h-2.6A.13.13,0,0,1,41.2,45.72Z"/><path class="cls-1" d="M50.6,38c0-.08.07-.14.16-.14h.48a.17.17,0,0,1,.16.14l2,9.6a.12.12,0,0,1-.13.15h-.46a.14.14,0,0,1-.16-.15l-.5-2.37H49.77l-.5,2.37c0,.09-.06.15-.14.15h-.47a.13.13,0,0,1-.14-.15ZM52,44.5l-1-5h0l-1.06,5Z"/><path class="cls-1" d="M54.42,38a.14.14,0,0,1,.15-.14h.58c.13,0,.19,0,.23.14l2.73,8.1h0V38a.14.14,0,0,1,.14-.14h.41a.14.14,0,0,1,.15.14v9.6a.14.14,0,0,1-.15.15h-.55c-.13,0-.19,0-.23-.15l-2.77-8.1h0v8.1a.14.14,0,0,1-.15.15h-.4a.14.14,0,0,1-.15-.15Zm2.07-2a.85.85,0,0,0-.48-.23c-.24,0-.38.14-.57.42-.07.07-.17.06-.17,0V35.7a.27.27,0,0,1,.11-.23.78.78,0,0,1,.64-.35,1.06,1.06,0,0,1,.67.29c.17.14.29.25.47.25s.39-.15.58-.43c.06-.07.16,0,.16.05v.43a.32.32,0,0,1-.1.24.87.87,0,0,1-.66.35A.94.94,0,0,1,56.49,36Z"/><path class="cls-1" d="M60.5,46.46c-.15-.44-.19-.81-.19-3.71s0-3.27.19-3.71a2.14,2.14,0,0,1,4,0c.15.44.19.82.19,3.71s0,3.27-.19,3.71a2.14,2.14,0,0,1-4,0Zm3.26-.23c.1-.34.16-.64.16-3.48s-.06-3.14-.16-3.47a1.35,1.35,0,0,0-2.53,0c-.1.33-.15.64-.15,3.47s.05,3.14.15,3.48a1.35,1.35,0,0,0,2.53,0Z"/><path class="cls-1" d="M67.89,47.81c-1.37,0-2-.81-2.13-2.48,0-.09,0-.15.11-.16l.43-.09c.12,0,.16,0,.16.11.1,1.45.57,1.92,1.44,1.92s1.34-.42,1.34-2c0-1.25-.31-1.73-1.09-2l-.6-.23c-1.31-.51-1.67-1.15-1.67-2.65,0-1.66.67-2.46,2-2.46s2,.74,2,2.28c0,.09,0,.14-.1.16l-.42.08a.11.11,0,0,1-.16-.12c0-1.16-.44-1.7-1.31-1.7s-1.28.51-1.28,1.73.29,1.59,1.11,1.91l.59.23C69.56,42.75,70,43.38,70,45,70,47,69.35,47.81,67.89,47.81Z"/><path class="cls-1" d="M74.78,37.84a.16.16,0,0,1,.16-.15h.34a.13.13,0,0,1,.13.15l-1.82,9.83a.15.15,0,0,1-.16.14h-.32c-.09,0-.15-.06-.13-.14Z"/><path class="cls-1" d="M78.75,38a.14.14,0,0,1,.14-.14h.47a.14.14,0,0,1,.15.14v4.22c0,.06,0,.09.08.09H82.2s.08,0,.08-.09V38a.14.14,0,0,1,.15-.14h.46A.14.14,0,0,1,83,38v9.6a.14.14,0,0,1-.15.15h-.46a.14.14,0,0,1-.15-.15V43.06c0-.06,0-.09-.08-.09H79.59s-.08,0-.08.09v4.49a.14.14,0,0,1-.15.15h-.47a.14.14,0,0,1-.14-.15Z"/><path class="cls-1" d="M86.11,38c0-.08.07-.14.16-.14h.48a.16.16,0,0,1,.16.14l2,9.6a.12.12,0,0,1-.13.15h-.46a.15.15,0,0,1-.16-.15l-.5-2.37H85.28l-.5,2.37c0,.09,0,.15-.14.15h-.47a.13.13,0,0,1-.14-.15Zm1.44,6.55-1-5h0l-1.07,5Z"/><path class="cls-1" d="M91.69,47.81c-1.36,0-2-.81-2.12-2.48,0-.09,0-.15.1-.16l.44-.09c.11,0,.16,0,.16.11.1,1.45.56,1.92,1.44,1.92s1.33-.42,1.33-2c0-1.25-.3-1.73-1.09-2l-.59-.23c-1.31-.51-1.67-1.15-1.67-2.65,0-1.66.66-2.46,2-2.46s2,.74,2,2.28c0,.09,0,.14-.1.16l-.42.08c-.11,0-.16,0-.16-.12,0-1.16-.44-1.7-1.31-1.7s-1.28.51-1.28,1.73.29,1.59,1.1,1.91l.6.23c1.23.49,1.66,1.12,1.66,2.72C93.79,47,93.16,47.81,91.69,47.81Z"/><path class="cls-1" d="M96.45,47.7a.14.14,0,0,1-.15-.15V38.61a.08.08,0,0,0-.09-.09H94.47a.14.14,0,0,1-.15-.15V38a.14.14,0,0,1,.15-.14h4.42A.14.14,0,0,1,99,38v.42a.14.14,0,0,1-.15.15H97.15a.08.08,0,0,0-.09.09v8.94a.14.14,0,0,1-.15.15Z"/><path class="cls-1" d="M101.38,38c0-.08.07-.14.16-.14H102a.17.17,0,0,1,.16.14l2,9.6a.12.12,0,0,1-.13.15h-.46a.14.14,0,0,1-.16-.15l-.5-2.37h-2.41l-.5,2.37c0,.09,0,.15-.14.15h-.47a.13.13,0,0,1-.14-.15Zm1.44,6.55-1-5h0l-1.07,5Z"/><path class="cls-1" d="M107.51,38a.14.14,0,0,1,.15-.14h.49a.17.17,0,0,1,.19.14l2,6.63h0l2-6.63a.18.18,0,0,1,.19-.14H113a.14.14,0,0,1,.15.14v9.6a.14.14,0,0,1-.15.15h-.42a.14.14,0,0,1-.15-.15V40h0l-1.74,5.83c0,.1-.08.15-.16.15h-.3c-.08,0-.13,0-.16-.15L108.27,40h0v7.59a.14.14,0,0,1-.15.15h-.42a.14.14,0,0,1-.15-.15Z"/><path class="cls-1" d="M116.2,38c0-.08.07-.14.16-.14h.48A.17.17,0,0,1,117,38l2,9.6a.12.12,0,0,1-.13.15h-.46a.14.14,0,0,1-.16-.15l-.5-2.37h-2.41l-.5,2.37c0,.09-.06.15-.14.15h-.47a.13.13,0,0,1-.14-.15Zm1.44,6.55-1-5h0l-1.06,5Z"/><path class="cls-1" d="M123.6,47.7a.14.14,0,0,1-.16-.11l-1.28-4.36a4,4,0,0,1-.61.05h-.69s-.08,0-.08.08v4.19a.14.14,0,0,1-.15.15h-.46a.14.14,0,0,1-.15-.15V38a.14.14,0,0,1,.15-.14h1.41c1.73,0,2.51.72,2.51,2.73,0,1.38-.43,2.15-1.22,2.5l1.34,4.51c0,.09,0,.15-.08.15Zm-.26-7.16c0-1.52-.5-2-1.71-2h-.77s-.08,0-.08.09v3.88c0,.06,0,.09.08.09h.77C122.81,42.58,123.34,42.13,123.34,40.54Z"/><path class="cls-1" d="M125.18,47.7a.14.14,0,0,1-.14-.15v-.39a.49.49,0,0,1,0-.21l3.26-8.42h-3a.14.14,0,0,1-.15-.15V38a.14.14,0,0,1,.15-.14H129a.13.13,0,0,1,.14.14v.41a.42.42,0,0,1,0,.19L125.85,47H129a.14.14,0,0,1,.15.15v.42a.14.14,0,0,1-.15.15Z"/><path class="cls-1" d="M130.29,46.46c-.15-.44-.19-.81-.19-3.71s0-3.27.19-3.71a2.14,2.14,0,0,1,4,0c.15.44.19.82.19,3.71s0,3.27-.19,3.71a2.14,2.14,0,0,1-4,0Zm3.25-.23c.11-.34.16-.64.16-3.48s0-3.14-.16-3.47a1.19,1.19,0,0,0-1.26-.88,1.22,1.22,0,0,0-1.27.88c-.1.33-.14.64-.14,3.47a14.42,14.42,0,0,0,.14,3.48,1.24,1.24,0,0,0,1.27.87A1.2,1.2,0,0,0,133.54,46.23Z"/><path class="cls-1" d="M138.23,38a.13.13,0,0,1,.14-.14h1.78a2,2,0,0,1,2.15,1.47,12.12,12.12,0,0,1,.23,3.47,12.37,12.37,0,0,1-.23,3.48,2,2,0,0,1-2.15,1.47h-1.78a.13.13,0,0,1-.14-.15Zm.84,9h1a1.38,1.38,0,0,0,1.51-1,11.51,11.51,0,0,0,.2-3.23,11.51,11.51,0,0,0-.2-3.23,1.38,1.38,0,0,0-1.51-1h-1a.08.08,0,0,0-.09.09V46.9C139,47,139,47,139.07,47Z"/><path class="cls-1" d="M144,38a.14.14,0,0,1,.15-.14h3.35a.14.14,0,0,1,.15.14v.42a.14.14,0,0,1-.15.15h-2.66c-.05,0-.08,0-.08.09v3.63c0,.06,0,.09.08.09h2.33a.14.14,0,0,1,.15.15v.42a.14.14,0,0,1-.15.14h-2.33c-.05,0-.08,0-.08.09V46.9a.07.07,0,0,0,.08.08h2.66a.14.14,0,0,1,.15.15v.42a.14.14,0,0,1-.15.15h-3.35a.14.14,0,0,1-.15-.15Z"/><path class="cls-1" d="M150.88,47.17a.35.35,0,0,1,.06-.23L153.42,42a3.85,3.85,0,0,0,.48-1.94,2.6,2.6,0,0,0-.1-1,1,1,0,0,0-1.06-.73,1,1,0,0,0-1.06.73,3.62,3.62,0,0,0-.09,1.14c0,.1-.06.16-.16.14l-.41,0a.15.15,0,0,1-.14-.18,3.81,3.81,0,0,1,.13-1.28,1.69,1.69,0,0,1,1.74-1.19,1.67,1.67,0,0,1,1.75,1.19,3.57,3.57,0,0,1,.12,1.18,4.6,4.6,0,0,1-.57,2.29L151.68,47h2.79a.14.14,0,0,1,.15.15v.39a.14.14,0,0,1-.15.15H151a.14.14,0,0,1-.14-.15Z"/><path class="cls-1" d="M155.88,42.75c0-3.14.06-3.55.16-3.87a1.89,1.89,0,0,1,3.51,0c.1.32.16.73.16,3.87s-.06,3.55-.16,3.86a1.88,1.88,0,0,1-3.51,0C155.94,46.3,155.88,45.89,155.88,42.75Zm1.92,4.38a1,1,0,0,0,1-.74,16.69,16.69,0,0,0,.13-3.64,16.35,16.35,0,0,0-.13-3.63,1.12,1.12,0,0,0-2.11,0c-.09.24-.13.59-.13,3.63s0,3.39.13,3.64A1,1,0,0,0,157.8,47.13Z"/><path class="cls-1" d="M160.94,47.17a.41.41,0,0,1,.06-.23L163.49,42a4,4,0,0,0,.48-1.94,2.32,2.32,0,0,0-.11-1,1,1,0,0,0-1.06-.73,1,1,0,0,0-1.06.73,3.62,3.62,0,0,0-.09,1.14c0,.1-.05.16-.16.14l-.4,0a.16.16,0,0,1-.15-.18,3.81,3.81,0,0,1,.13-1.28,1.7,1.7,0,0,1,1.75-1.19,1.66,1.66,0,0,1,1.74,1.19,3.57,3.57,0,0,1,.12,1.18,4.49,4.49,0,0,1-.57,2.29L161.74,47h2.79a.14.14,0,0,1,.15.15v.39a.14.14,0,0,1-.15.15h-3.44a.14.14,0,0,1-.15-.15Z"/><path class="cls-1" d="M166,45.5c0-.1,0-.16.14-.17l.41,0c.1,0,.16,0,.16.13a3.06,3.06,0,0,0,.09,1,1,1,0,0,0,1.06.73,1,1,0,0,0,1.05-.7,6.92,6.92,0,0,0,.11-1.85,6.8,6.8,0,0,0-.11-1.84,1,1,0,0,0-1.05-.71,1.13,1.13,0,0,0-1,.55.21.21,0,0,1-.22.13h-.36a.14.14,0,0,1-.15-.15V38a.14.14,0,0,1,.15-.14h3.33a.13.13,0,0,1,.14.14v.4a.13.13,0,0,1-.14.14h-2.72a.08.08,0,0,0-.09.09v3.29h0a1.45,1.45,0,0,1,1.17-.53,1.54,1.54,0,0,1,1.63,1.12,7.29,7.29,0,0,1,.13,2.12,6.74,6.74,0,0,1-.14,2.06,1.63,1.63,0,0,1-1.72,1.17,1.67,1.67,0,0,1-1.74-1.19A3.36,3.36,0,0,1,166,45.5Z"/></svg>